<?xml version="1.0" encoding="UTF-8" standalone="no"?>
<!-- Created with Inkscape (http://www.inkscape.org/) -->

<svg
   xmlns:dc="http://purl.org/dc/elements/1.1/"
   xmlns:cc="http://creativecommons.org/ns#"
   xmlns:rdf="http://www.w3.org/1999/02/22-rdf-syntax-ns#"
   xmlns:svg="http://www.w3.org/2000/svg"
   xmlns="http://www.w3.org/2000/svg"
   xmlns:sodipodi="http://sodipodi.sourceforge.net/DTD/sodipodi-0.dtd"
   xmlns:inkscape="http://www.inkscape.org/namespaces/inkscape"
   width="24"
   height="24"
   id="svg5692"
   version="1.1"
   inkscape:version="0.91 r"
   sodipodi:docname="create_model_boundary.svg"
   inkscape:export-filename="/media/home1/robert/svn/graphics/trunk/toolbar-icons/32x32/layer-vector.png"
   inkscape:export-xdpi="90"
   inkscape:export-ydpi="90">
  <title
     id="title2829">GIS icon theme 0.2</title>
  <defs
     id="defs5694">
    <inkscape:perspective
       sodipodi:type="inkscape:persp3d"
       inkscape:vp_x="0 : 16 : 1"
       inkscape:vp_y="0 : 1000 : 0"
       inkscape:vp_z="32 : 16 : 1"
       inkscape:persp3d-origin="16 : 10.666667 : 1"
       id="perspective3486" />
    <inkscape:perspective
       id="perspective3496"
       inkscape:persp3d-origin="0.5 : 0.33333333 : 1"
       inkscape:vp_z="1 : 0.5 : 1"
       inkscape:vp_y="0 : 1000 : 0"
       inkscape:vp_x="0 : 0.5 : 1"
       sodipodi:type="inkscape:persp3d" />
    <inkscape:perspective
       id="perspective3600"
       inkscape:persp3d-origin="0.5 : 0.33333333 : 1"
       inkscape:vp_z="1 : 0.5 : 1"
       inkscape:vp_y="0 : 1000 : 0"
       inkscape:vp_x="0 : 0.5 : 1"
       sodipodi:type="inkscape:persp3d" />
    <inkscape:perspective
       id="perspective7871"
       inkscape:persp3d-origin="0.5 : 0.33333333 : 1"
       inkscape:vp_z="1 : 0.5 : 1"
       inkscape:vp_y="0 : 1000 : 0"
       inkscape:vp_x="0 : 0.5 : 1"
       sodipodi:type="inkscape:persp3d" />
    <inkscape:perspective
       id="perspective8710"
       inkscape:persp3d-origin="0.5 : 0.33333333 : 1"
       inkscape:vp_z="1 : 0.5 : 1"
       inkscape:vp_y="0 : 1000 : 0"
       inkscape:vp_x="0 : 0.5 : 1"
       sodipodi:type="inkscape:persp3d" />
    <inkscape:perspective
       id="perspective9811"
       inkscape:persp3d-origin="0.5 : 0.33333333 : 1"
       inkscape:vp_z="1 : 0.5 : 1"
       inkscape:vp_y="0 : 1000 : 0"
       inkscape:vp_x="0 : 0.5 : 1"
       sodipodi:type="inkscape:persp3d" />
    <inkscape:perspective
       id="perspective4762"
       inkscape:persp3d-origin="0.5 : 0.33333333 : 1"
       inkscape:vp_z="1 : 0.5 : 1"
       inkscape:vp_y="0 : 1000 : 0"
       inkscape:vp_x="0 : 0.5 : 1"
       sodipodi:type="inkscape:persp3d" />
    <linearGradient
       id="linearGradient2831">
      <stop
         id="stop2833"
         offset="0"
         style="stop-color:#264976;stop-opacity:1;" />
      <stop
         style="stop-color:#3f689d;stop-opacity:1;"
         offset="0.33333334"
         id="stop2855" />
      <stop
         id="stop2835"
         offset="1"
         style="stop-color:#5689ca;stop-opacity:0;" />
    </linearGradient>
    <linearGradient
       id="linearGradient2380">
      <stop
         id="stop2382"
         offset="0"
         style="stop-color:#8cb0d8;stop-opacity:1;" />
      <stop
         id="stop2384"
         offset="1"
         style="stop-color:#4580bf;stop-opacity:1;" />
    </linearGradient>
    <linearGradient
       id="linearGradient2682">
      <stop
         id="stop2684"
         offset="0"
         style="stop-color:#2b5b95;stop-opacity:1;" />
      <stop
         id="stop2686"
         offset="1"
         style="stop-color:#5c8fce;stop-opacity:0;" />
    </linearGradient>
    <linearGradient
       id="linearGradient2402">
      <stop
         id="stop2404"
         offset="0"
         style="stop-color:#4580bf;stop-opacity:1;" />
      <stop
         id="stop2406"
         offset="1"
         style="stop-color:#376da5;stop-opacity:1;" />
    </linearGradient>
  </defs>
  <sodipodi:namedview
     id="base"
     pagecolor="#ffffff"
     bordercolor="#666666"
     borderopacity="1.0"
     inkscape:pageopacity="0.0"
     inkscape:pageshadow="2"
     inkscape:zoom="19.87288"
     inkscape:cx="13.198651"
     inkscape:cy="7.6239362"
     inkscape:current-layer="layer2"
     showgrid="false"
     inkscape:grid-bbox="true"
     inkscape:document-units="px"
     borderlayer="false"
     inkscape:window-width="1920"
     inkscape:window-height="1028"
     inkscape:window-x="0"
     inkscape:window-y="1200"
     inkscape:window-maximized="1"
     inkscape:snap-global="false"
     showguides="false"
     inkscape:guide-bbox="true"
     inkscape:snap-object-midpoints="true"
     inkscape:snap-grids="false"
     inkscape:snap-others="false">
    <inkscape:grid
       type="xygrid"
       id="grid5700"
       empspacing="5"
       visible="true"
       enabled="true"
       snapvisiblegridlinesonly="true"
       dotted="true"
       originx="2.5px"
       originy="2.5px" />
  </sodipodi:namedview>
  <metadata
     id="metadata5697">
    <rdf:RDF>
      <cc:Work
         rdf:about="">
        <dc:format>image/svg+xml</dc:format>
        <dc:type
           rdf:resource="http://purl.org/dc/dcmitype/StillImage" />
        <dc:title>GIS icon theme 0.2</dc:title>
        <dc:creator>
          <cc:Agent>
            <dc:title>Arnaud Morvan</dc:title>
          </cc:Agent>
        </dc:creator>
        <dc:rights>
          <cc:Agent>
            <dc:title>Arnaud Morvan</dc:title>
          </cc:Agent>
        </dc:rights>
        <dc:subject>
          <rdf:Bag>
            <rdf:li>GIS icons</rdf:li>
          </rdf:Bag>
        </dc:subject>
        <dc:coverage>GIS icons</dc:coverage>
        <dc:description />
        <cc:license
           rdf:resource="http://creativecommons.org/licenses/by-sa/3.0/" />
      </cc:Work>
      <cc:License
         rdf:about="http://creativecommons.org/licenses/by-sa/3.0/">
        <cc:permits
           rdf:resource="http://creativecommons.org/ns#Reproduction" />
        <cc:permits
           rdf:resource="http://creativecommons.org/ns#Distribution" />
        <cc:requires
           rdf:resource="http://creativecommons.org/ns#Notice" />
        <cc:requires
           rdf:resource="http://creativecommons.org/ns#Attribution" />
        <cc:permits
           rdf:resource="http://creativecommons.org/ns#DerivativeWorks" />
        <cc:requires
           rdf:resource="http://creativecommons.org/ns#ShareAlike" />
      </cc:License>
    </rdf:RDF>
  </metadata>
  <g
     inkscape:groupmode="layer"
     id="layer2"
     inkscape:label="Layer"
     style="display:inline"
     transform="translate(0,-8)">
    <g
       style="display:inline;stroke-width:0.43333367;stroke-miterlimit:4;stroke-dasharray:none"
       id="g3001"
       transform="matrix(0.69230716,0,0,0.69230716,1.6689832,9.666423)">
      <rect
         ry="2.6149368"
         inkscape:export-ydpi="120"
         inkscape:export-xdpi="120"
         y="19"
         x="19"
         height="13"
         width="13"
         id="rect3563-2"
         style="display:inline;fill:#c4a000;fill-opacity:1;stroke:#000000;stroke-width:0.43333367;stroke-linejoin:round;stroke-miterlimit:4;stroke-dasharray:none;stroke-opacity:1"
         inkscape:export-filename="C:\Program Files\QGIS-Dev\themes\gis-0.1\mActionAddOgrLayer.png"
         rx="2.6149371" />
      <path
         inkscape:connector-curvature="0"
         sodipodi:nodetypes="ccsssc"
         id="path6992-6"
         d="m 20.3,25.499999 10.4,0 c 0,0 0,0 0,-2.6 C 30.7,20.3 30.05,20.3 25.5,20.3 c -4.55,0 -5.2,0 -5.2,2.599999 0,2.6 0,2.6 0,2.6 z"
         style="display:inline;opacity:0.3;fill:#fcffff;fill-rule:evenodd;stroke:none;enable-background:new;stroke-width:0.43333367;stroke-miterlimit:4;stroke-dasharray:none" />
      <g
         transform="matrix(0.60271547,0,0,0.60365952,29.090173,29.540413)"
         id="text3831"
         style="font-style:normal;font-weight:normal;font-size:40px;line-height:125%;font-family:Sans;letter-spacing:0px;word-spacing:0px;fill:#ffffff;fill-opacity:1;stroke:#ffffff;stroke-width:0.71840647;stroke-miterlimit:4;stroke-dasharray:none;stroke-opacity:1">
        <path
           inkscape:connector-curvature="0"
           id="path3836"
           style="font-variant:normal;font-weight:bold;font-stretch:normal;font-family:'Century Schoolbook L';-inkscape-font-specification:'Century Schoolbook L Bold';fill:#ffffff;fill-opacity:1;stroke:#ffffff;stroke-width:0.71840647;stroke-miterlimit:4;stroke-dasharray:none;stroke-opacity:1"
           d="m -6.4566626,-5.8131979 0,0.76 c 0,1.039999 -0.1600005,1.7600009 -0.64,2.68 -0.7199993,1.55999844 -0.8,1.7600006 -0.8,2.36 0,1.1599988 0.880001,2.12 1.92,2.12 1.0799989,0 1.92,-0.9600012 1.92,-2.16 0,-0.3999996 -0.1200003,-0.92000052 -0.4,-1.44 -0.9199991,-1.959998 -1,-2.2800013 -1,-3.56 l 0,-0.76 0.64,0.4 c 0.8399992,0.4799995 1.4800006,1.0400008 2.04,1.84 1.3199987,1.7999982 1.7600011,2.16 2.84,2.16 0.999999,0 1.8,-0.760001 1.8,-1.76 0,-1.2399988 -1.04000156,-2.1600001 -2.6,-2.28 -1.959998,-0.1199999 -2.3200012,-0.2000007 -3.56,-0.88 l -0.64,-0.36 0.64,-0.36 c 0.9199991,-0.5199995 1.600001,-0.76 2.64,-0.8 1.5999984,-0.1599998 1.72000048,-0.1600002 2.2,-0.36 0.7999992,-0.3999996 1.32,-1.1200008 1.32,-1.9600001 0,-1.039999 -0.840001,-1.84 -1.88,-1.84 -0.87999912,0 -1.6000006,0.440001 -2.24,1.4 -1.1199989,1.6799984 -1.3600012,1.9200008 -2.56,2.6400001 l -0.64,0.4 0,-0.76 c 0,-0.999999 0.1600005,-1.7600011 0.64,-2.6800001 0.7599992,-1.599998 0.8,-1.76 0.8,-2.32 0,-1.199999 -0.8800011,-2.16 -1.96,-2.16 -1.039999,0 -1.92,0.960001 -1.92,2.12 0,0.44 0.1200003,0.960001 0.4,1.48 0.959999,1.9999981 1.04,2.2800014 1.04,3.5600001 l 0,0.76 -0.64,-0.4 c -0.9199991,-0.5199995 -1.4400006,-1.0400008 -2.04,-1.88 -0.7999992,-1.1999991 -0.8000003,-1.2000001 -1.1200004,-1.5200001 -0.439999,-0.399999 -1.08,-0.64 -1.6,-0.64 -1.079999,0 -1.92,0.840001 -1.92,1.84 0,1.2399989 1.000002,2.1200002 2.56,2.2400001 2.0399984,0.1199999 2.3600016,0.2000007 3.6000004,0.88 l 0.64,0.36 -0.64,0.4 c -0.8399992,0.4799995 -1.640001,0.7200001 -2.6400004,0.8 -1.559998,0.08 -1.68,0.1200002 -2.2,0.32 -0.799999,0.3599996 -1.32,1.1200008 -1.32,1.96 0,0.999999 0.840001,1.84 1.88,1.84 0.88,0 1.640001,-0.4800009 2.2400004,-1.4 1.0799989,-1.5999984 1.4000012,-1.9600007 2.56,-2.64 l 0.64,-0.4" />
      </g>
    </g>
    <path
       style="fill:none;fill-rule:evenodd;stroke:#000000;stroke-width:1px;stroke-linecap:butt;stroke-linejoin:miter;stroke-opacity:1"
       d="M 4.6797445,10.513431 C 2.6955786,10.762655 2.3447424,13.175117 2.7138671,14.777097 2.5387538,16.602428 3.19468,18.254113 3.78367,19.91699 c 0.3154912,1.55123 0.092711,3.183184 -0.5032682,4.64047 0.3597439,1.760068 0.051274,4.07936 1.8552231,5.137488 1.1869803,0.884039 3.0028513,0.08864 3.1844257,-1.374534 0.1066479,-1.474879 0.5856099,-2.951219 1.6979364,-3.985797 2.153736,-2.025023 4.981192,-3.423998 7.938833,-3.695618 2.108376,-0.469486 3.82867,-2.220576 4.265139,-4.335156 0.679726,-1.792601 0.920334,-4.67028 -1.22802,-5.537743 C 19.052982,10.159405 16.980151,10.133565 14.99044,9.7228363 12.01919,9.304669 8.9418031,9.3318665 6.0575239,10.221019 c -0.4653,0.06163 -0.9380338,0.11872 -1.3777794,0.292412 z"
       id="path4249"
       inkscape:connector-curvature="0" />
    <path
       style="fill:none;fill-rule:evenodd;stroke:#000000;stroke-width:0.3;stroke-linecap:butt;stroke-linejoin:miter;stroke-opacity:1;stroke-miterlimit:4;stroke-dasharray:none"
       d="m 5.1829428,10.563751 0,19.020897"
       id="path4259"
       inkscape:connector-curvature="0" />
    <path
       style="fill:none;fill-rule:evenodd;stroke:#000000;stroke-width:0.3;stroke-linecap:butt;stroke-linejoin:miter;stroke-opacity:1;stroke-miterlimit:4;stroke-dasharray:none"
       d="m 9.9633269,9.708314 0,14.341152"
       id="path4261"
       inkscape:connector-curvature="0" />
    <path
       style="fill:none;fill-rule:evenodd;stroke:#000000;stroke-width:0.3;stroke-linecap:butt;stroke-linejoin:miter;stroke-opacity:1;stroke-miterlimit:4;stroke-dasharray:none"
       d="m 15.04563,9.9095934 0,11.2716426"
       id="path4263"
       inkscape:connector-curvature="0" />
    <path
       style="fill:none;fill-rule:evenodd;stroke:#000000;stroke-width:0.3;stroke-linecap:butt;stroke-linejoin:miter;stroke-opacity:1;stroke-miterlimit:4;stroke-dasharray:none"
       d="m 19.876334,10.614071 0,8.856291"
       id="path4265"
       inkscape:connector-curvature="0" />
    <path
       style="fill:none;fill-rule:evenodd;stroke:#000000;stroke-width:0.3;stroke-linecap:butt;stroke-linejoin:miter;stroke-opacity:1;stroke-miterlimit:4;stroke-dasharray:none"
       d="m 2.5663115,13.381662 20.1279335,0"
       id="path4267"
       inkscape:connector-curvature="0" />
    <path
       style="fill:none;fill-rule:evenodd;stroke:#000000;stroke-width:0.3;stroke-linecap:butt;stroke-linejoin:miter;stroke-opacity:1;stroke-miterlimit:4;stroke-dasharray:none"
       d="m 3.01919,17.860127 18.618338,0"
       id="path4269"
       inkscape:connector-curvature="0" />
    <path
       style="fill:none;fill-rule:evenodd;stroke:#000000;stroke-width:0.3;stroke-linecap:butt;stroke-linejoin:miter;stroke-opacity:1;stroke-miterlimit:4;stroke-dasharray:none"
       d="m 3.623028,22.640511 8.504052,0"
       id="path4271"
       inkscape:connector-curvature="0" />
    <path
       style="fill:none;fill-rule:evenodd;stroke:#000000;stroke-width:0.3;stroke-linecap:butt;stroke-linejoin:miter;stroke-opacity:1;stroke-miterlimit:4;stroke-dasharray:none"
       d="m 3.5727081,27.219616 4.830704,0"
       id="path4273"
       inkscape:connector-curvature="0" />
  </g>
</svg>
