<?xml version="1.0" encoding="UTF-8" standalone="no"?>
<svg
   height="24"
   width="24"
   version="1.1"
   id="svg11"
   sodipodi:docname="mIconReport.svg"
   inkscape:version="1.3 (0e150ed6c4, 2023-07-21)"
   xmlns:inkscape="http://www.inkscape.org/namespaces/inkscape"
   xmlns:sodipodi="http://sodipodi.sourceforge.net/DTD/sodipodi-0.dtd"
   xmlns="http://www.w3.org/2000/svg"
   xmlns:svg="http://www.w3.org/2000/svg">
  <defs
     id="defs11" />
  <sodipodi:namedview
     id="namedview11"
     pagecolor="#505050"
     bordercolor="#eeeeee"
     borderopacity="1"
     inkscape:showpageshadow="0"
     inkscape:pageopacity="0"
     inkscape:pagecheckerboard="0"
     inkscape:deskcolor="#d1d1d1"
     inkscape:zoom="24.875"
     inkscape:cx="15.356784"
     inkscape:cy="12"
     inkscape:window-width="1920"
     inkscape:window-height="1009"
     inkscape:window-x="1912"
     inkscape:window-y="81"
     inkscape:window-maximized="1"
     inkscape:current-layer="svg11" />
  <g
     id="g11">
    <path
       d="M4.5 21.458l17-.05v-13.8l-5.005-5.15-11.995.05z"
       fill="#fff"
       fill-rule="evenodd"
       stroke="#727272"
       stroke-width=".999"
       stroke-linejoin="round"
       id="path2" />
    <path
       fill="#999"
       fill-opacity=".439"
       d="M6 4h10v1H6zM5.966 19h14.093v1H5.966z"
       id="path3" />
    <path
       d="M21.5 7.458h-5v-5z"
       fill="#f0f0f0"
       fill-rule="evenodd"
       stroke="#727272"
       stroke-linejoin="round"
       id="path4" />
    <path
       fill="#999"
       fill-opacity=".439"
       d="M20 19V8h-1v11zM7 19V5H6v14z"
       id="path5" />
    <path
       fill="#999"
       d="M8 11.958h1v6H8z"
       id="path6" />
    <path
       fill="#4d4d4d"
       d="M10 16.958h2v-3h-2z"
       id="path7"
       style="fill:#0000ff" />
    <path
       fill="gray"
       d="M13 11.958h2v6h-2z"
       id="path8"
       style="fill:#ffff00" />
    <path
       fill="#4d4d4d"
       d="M16 17.958h2v-5.007h-2z"
       id="path9"
       style="fill:#ff0000" />
    <path
       fill="#999"
       fill-opacity=".793"
       d="M8 6.958h7v-1H8zM8 8.958h7v-1H8zM8 10.958h10v-1H8z"
       id="path10"
       style="fill:#008000" />
    <path
       fill="#999"
       fill-opacity=".979"
       d="M9 17.958h9v-1H9z"
       id="path11" />
    <g
       transform="matrix(0,-0.52163262,0.52163262,0,7.3057444,23.958011)"
       id="g4">
      <path
         d="m 7.5000001,22.5 c 0,2 2,2 2,2 0,0 -7,7 -7,7 l -2.00000001,-2 z"
         fill="#ffcc30"
         fill-rule="evenodd"
         stroke="#505050"
         stroke-linejoin="round"
         id="path1" />
      <path
         d="m 17.96122,7 c 0,3.354712 -2.668929,6.074244 -5.96122,6.074244 C 8.707709,13.074244 6.0387797,10.354712 6.0387797,7 6.0387797,3.6452879 8.707709,0.92575645 12,0.92575645 c 3.292291,0 5.96122,2.71953145 5.96122,6.07424355 z"
         style="opacity:0.8;fill:#e6e6e6;stroke:#505050;stroke-width:0.752183;stroke-linecap:round;stroke-linejoin:round;stroke-dashoffset:7"
         transform="matrix(1.3420071,0,0,1.3170365,-1.604085,8.279109)"
         id="path2-3" />
      <path
         d="m 10,13 c 2,-3 4.442248,-3.398055 6,-2 1.557752,1.398055 -2,1 -4,3 -2,2 0,6 -2,6 -1.9999999,0 -1.9999999,-4 0,-7 z"
         fill="#fcffff"
         fill-rule="evenodd"
         opacity="0.7"
         id="path3-5" />
      <path
         d="m 2.0000001,29 4,-4"
         opacity="0.5"
         stroke="#fcffff"
         stroke-linecap="round"
         stroke-linejoin="round"
         id="path4-5" />
    </g>
  </g>
</svg>
