<?xml version="1.0" encoding="UTF-8" standalone="no"?>
<svg
   height="24"
   viewBox="0 0 24 24"
   width="24"
   version="1.1"
   id="svg6"
   sodipodi:docname="export_swmm.svg"
   inkscape:version="1.2.1 (9c6d41e410, 2022-07-14)"
   xml:space="preserve"
   xmlns:inkscape="http://www.inkscape.org/namespaces/inkscape"
   xmlns:sodipodi="http://sodipodi.sourceforge.net/DTD/sodipodi-0.dtd"
   xmlns="http://www.w3.org/2000/svg"
   xmlns:svg="http://www.w3.org/2000/svg"><defs
     id="defs6"><inkscape:path-effect
       effect="fillet_chamfer"
       id="path-effect2"
       is_visible="true"
       lpeversion="1"
       nodesatellites_param="F,0,0,1,0,1.5917684,0,1 @ F,0,0,1,0,1.7796344,0,1 @ F,0,0,1,0,1.5500204,0,1 @ F,0,0,1,0,1.4456504,0,1"
       radius="0"
       unit="px"
       method="auto"
       mode="F"
       chamfer_steps="1"
       flexible="false"
       use_knot_distance="true"
       apply_no_radius="true"
       apply_with_radius="true"
       only_selected="false"
       hide_knots="false" /><clipPath
       clipPathUnits="userSpaceOnUse"
       id="clipPath2-8"><path
         d="M 0,0 H 48 V 48 H 0 Z"
         id="path2-4" /></clipPath><clipPath
       clipPathUnits="userSpaceOnUse"
       id="clipPath4-2"><path
         d="M 0,0 H 48 V 48 H 0 Z"
         id="path4-6" /></clipPath><clipPath
       clipPathUnits="userSpaceOnUse"
       id="clipPath6-9"><path
         d="M 0,0 H 48 V 48 H 0 Z"
         id="path6" /></clipPath><clipPath
       clipPathUnits="userSpaceOnUse"
       id="clipPath8-6"><path
         d="M 0,0 H 48 V 48 H 0 Z"
         id="path8-8" /></clipPath><clipPath
       clipPathUnits="userSpaceOnUse"
       id="clipPath10-4"><path
         d="M 0,0 H 48 V 48 H 0 Z"
         id="path10-6" /></clipPath></defs><sodipodi:namedview
     id="namedview6"
     pagecolor="#505050"
     bordercolor="#eeeeee"
     borderopacity="1"
     inkscape:showpageshadow="0"
     inkscape:pageopacity="0"
     inkscape:pagecheckerboard="0"
     inkscape:deskcolor="#d1d1d1"
     showgrid="true"
     inkscape:zoom="20.826519"
     inkscape:cx="27.849109"
     inkscape:cy="19.494376"
     inkscape:window-width="2560"
     inkscape:window-height="1494"
     inkscape:window-x="2149"
     inkscape:window-y="2916"
     inkscape:window-maximized="1"
     inkscape:current-layer="svg6"><inkscape:grid
       id="grid6"
       units="px"
       originx="0"
       originy="0"
       spacingx="1"
       spacingy="1"
       empcolor="#0099e5"
       empopacity="0.30196078"
       color="#0099e5"
       opacity="0.14901961"
       empspacing="5"
       dotted="false"
       gridanglex="30"
       gridanglez="30"
       visible="true" /><inkscape:page
       x="0"
       y="0"
       width="24"
       height="24"
       id="page1"
       margin="0"
       bleed="0" /><inkscape:page
       x="34"
       y="0"
       width="1200"
       height="533.33332"
       id="page2" /><inkscape:page
       x="1244"
       y="0"
       width="48"
       height="48"
       id="page3" /></sodipodi:namedview><g
     id="g4"><g
       fill="none"
       stroke-dasharray="1.896 .948"
       stroke-width=".948"
       id="g5"><path
         d="m1.0054352 1h15.832339v3.1664679h-15.832339z"
         id="path2" /><path
         d="m1.0054352 1h20.582041v3.1664679h-20.582041z"
         id="path3" /><path
         d="m21.587477 4.1664677h3.1664679v1.583234h-3.1664679z"
         id="path4" /><path
         d="m1.0054352 1h20.582041v3.1664679h-20.582041z"
         id="path5" /></g><g
       id="g3"
       transform="matrix(0.52268449,0,0,0.52222724,0,0.00350241)"><path
         id="path1"
         d="m 44.6,0 1.16,0.43 c 0.27,0.11 0.42,0.31 0.43,0.6 0.04,0.73 -0.09,1.43 -0.38,2.1 -0.12,0.29 -0.18,0.59 -0.18,0.9 -0.02,5.78 -0.02,11.56 0.01,17.35 0.01,0.62 0.27,0.95 0.8,0.99 0.41,0.03 0.6,0.25 0.59,0.66 l -0.38,7.93 c -0.01,0.09 -0.06,0.14 -0.15,0.15 -0.14,0.01 -0.29,0.06 -0.44,0.14 -0.15,0.08 -0.22,0.21 -0.22,0.38 l 0.01,11.31 c 0,0.29 0.07,0.56 0.2,0.81 0.32,0.62 0.52,1.27 0.61,1.94 0.05,0.31 -0.14,0.6 -0.44,0.68 -2.04,0.58 -4.11,0.64 -6.21,0.18 -0.72,-0.15 -2.23,0.27 -3.19,0.22 C 33.56,46.6 30.3,46.59 27.04,46.75 24.77,46.86 22.41,46.84 19.96,46.69 17.59,46.54 15.21,46.5 12.84,46.57 10.02,46.66 7.2,45.4 3.95,46.79 3.74,46.87 3.51,46.9 3.29,46.86 1.99,46.64 0.93,47.17 0,45.86"
         style="fill:none;stroke:#080860;stroke-width:1;stroke-linecap:butt;stroke-linejoin:miter;stroke-miterlimit:10;stroke-dasharray:none;stroke-opacity:1"
         transform="matrix(1.0001333,0,0,1.0001333,0,-0.00670667)"
         clip-path="url(#clipPath2-8)" /><path
         id="path3-3"
         d="M 19.33,15 9.76,15.02 C 9.39,15.03 9.16,14.85 9.06,14.49 8.64,12.9 9.02,11.66 10.19,10.75 10.46,10.54 10.65,10.27 10.75,9.94 11.8,6.54 14.36,4.9 16.63,2.4 16.88,2.12 16.82,1.98 16.45,1.98 L 2.5,1.97 C 2.15,1.97 1.98,2.15 1.98,2.5 L 1.95,22.21 c 0,0.29 0.21,0.54 0.49,0.59 l 7.61,1.47 c 0.43,0.08 0.74,0.31 0.93,0.7 0.63,1.29 1.67,2.03 3.14,2.22 0.34,0.05 0.59,0.23 0.74,0.54 0.37,0.77 0.96,1.29 1.79,1.58 0.34,0.12 0.62,0.35 0.79,0.66 0.87,1.51 2.14,2.23 2.67,3.83 0.49,1.43 0.89,2.88 1.22,4.37 0.09,0.4 0.32,0.68 0.69,0.85 0.1,0.04 0.19,0.1 0.27,0.17 0.28,0.28 0.44,0.58 0.47,0.85 0.17,1.54 0.33,3.08 0.46,4.63 0.01,0.07 0.03,0.13 0.06,0.16 0.06,0.07 0.14,0.1 0.25,0.09 0.11,-0.01 0.17,-0.07 0.18,-0.18 l 0.5,-4.27 c 0.04,-0.37 0.17,-0.7 0.4,-0.99 1.21,-1.59 2.05,-3.37 2.52,-5.34 0.07,-0.3 0.23,-0.57 0.45,-0.79 l 0.63,-0.6 c 0.3,-0.29 0.5,-0.63 0.61,-1.04 0.35,-1.35 1.17,-2.31 2.46,-2.87 0.32,-0.13 0.54,-0.36 0.66,-0.69 0.11,-0.3 0.31,-0.54 0.59,-0.73 0.13,-0.09 0.26,-0.14 0.41,-0.17 1.42,-0.3 2.48,-1.07 3.18,-2.3 0.19,-0.34 0.48,-0.55 0.86,-0.63 l 7.5,-1.59 c 0.39,-0.08 0.59,-0.32 0.59,-0.72 L 45.11,2.46 C 45.12,2.19 44.89,1.97 44.61,1.97 H 30.73 c -0.48,0 -0.59,0.67 -0.14,0.83 0.8,0.29 1.35,0.85 1.65,1.67 0.13,0.35 0.36,0.62 0.69,0.81 1.77,1.05 2.86,2.58 3.25,4.6 0.07,0.38 0.27,0.68 0.58,0.91 1.23,0.89 1.61,2.13 1.15,3.7 -0.09,0.32 -0.31,0.48 -0.65,0.49 l -9.47,0.07 c -0.42,0 -0.76,-0.34 -0.76,-0.76 L 27,10.37 C 26.99,9.06 25.93,8 24.62,7.99 L 22.31,7.97 C 20.82,7.96 20.07,8.7 20.04,10.19 l -0.08,4.18 c -0.01,0.35 -0.28,0.62 -0.63,0.63"
         style="fill:none;stroke:#0080c0;stroke-width:1;stroke-linecap:butt;stroke-linejoin:miter;stroke-miterlimit:10;stroke-dasharray:none;stroke-opacity:1"
         transform="matrix(1.0001333,0,0,1.0001333,0,-0.00670667)"
         clip-path="url(#clipPath4-2)" /><path
         id="path5-9"
         d="M 14.12,43.17 13.94,42.85 C 13.77,42.54 13.52,42.36 13.18,42.29 10.63,41.78 8.48,40.61 6.72,38.77 5.93,37.95 6.05,37.2 5.46,36.26 4.53,34.8 2.84,34.75 2.85,32.25 2.85,32.13 2.79,32.08 2.67,32.09 L 2.35,32.11 C 2.1,32.13 1.97,32.27 1.97,32.53 L 2.01,44.5 c 0,0.27 0.22,0.49 0.49,0.49 l 14.03,0.02 c 0.19,0 0.35,-0.14 0.37,-0.33 0.02,-0.19 -0.1,-0.36 -0.28,-0.41 l -1.64,-0.43 c -0.39,-0.1 -0.67,-0.32 -0.86,-0.67"
         style="fill:none;stroke:#0080c0;stroke-width:1;stroke-linecap:butt;stroke-linejoin:miter;stroke-miterlimit:10;stroke-dasharray:none;stroke-opacity:1"
         transform="matrix(1.0001333,0,0,1.0001333,0,-0.00670667)"
         clip-path="url(#clipPath6-9)" /><path
         id="path7"
         d="m 43.23,34.88 -0.5,0.34 c -0.26,0.18 -0.41,0.43 -0.46,0.74 -0.24,1.52 -1.05,2.59 -2.44,3.21 -0.29,0.13 -0.51,0.32 -0.67,0.59 l -0.18,0.31 c -0.19,0.32 -0.47,0.54 -0.82,0.67 l -4.43,1.54 c -0.19,0.07 -0.36,0.2 -0.48,0.38 -0.61,0.97 -1.53,1.44 -2.75,1.39 -0.16,-0.01 -0.24,0.07 -0.24,0.22 v 0.3 c 0,0.32 0.16,0.48 0.49,0.48 l 13.52,-0.07 c 0.5,-0.01 0.75,-0.26 0.75,-0.75 L 45.03,33 c 0,-1.67 -0.32,-1.75 -0.95,-0.24 -0.11,0.27 -0.22,0.71 -0.34,1.34 -0.07,0.33 -0.24,0.59 -0.51,0.78"
         style="fill:none;stroke:#0080c0;stroke-width:1;stroke-linecap:butt;stroke-linejoin:miter;stroke-miterlimit:10;stroke-dasharray:none;stroke-opacity:1"
         transform="matrix(1.0001333,0,0,1.0001333,0,-0.00670667)"
         clip-path="url(#clipPath8-6)" /><path
         id="path9"
         d="m 17.84,27.77 0.28,0.57 c 0.18,0.37 0.56,0.61 0.97,0.61 l 8.97,-0.02 c 0.37,0 0.64,-0.17 0.81,-0.51 l 0.27,-0.56 c 0.17,-0.36 0.44,-0.57 0.83,-0.64 2.09,-0.35 2.94,-2.19 4.31,-3.34 1.29,-1.07 1.6,-1.6 2.01,-3.08 0.08,-0.31 0.29,-0.56 0.58,-0.7 1.07,-0.5 1.41,-1.35 1.04,-2.55 -0.12,-0.39 -0.54,-0.6 -0.92,-0.47 l -1.37,0.48 c -0.31,0.11 -0.63,0.16 -0.96,0.15 -1.96,-0.05 -3.92,0 -5.88,0.14 -1.08,0.07 -1.98,-0.42 -3.16,-0.15 -1.53,0.36 -2.68,-0.4 -4.3,-0.12 -1.67,0.29 -3.35,0.24 -5.03,-0.15 -0.26,-0.06 -0.54,-0.05 -0.8,0.03 -1.99,0.63 -3.89,0.48 -5.71,-0.47 -0.37,-0.19 -0.8,0.08 -0.8,0.49 l 0.01,1.38 c 0.01,0.39 0.23,0.75 0.58,0.93 l 0.71,0.36 c 0.29,0.15 0.48,0.43 0.52,0.75 0.19,1.51 0.95,2.59 2.3,3.25 0.32,0.16 0.59,0.42 0.76,0.74 0.71,1.34 1.82,2.14 3.33,2.39 0.28,0.05 0.52,0.23 0.65,0.49"
         style="fill:none;stroke:#0080c0;stroke-width:1;stroke-linecap:butt;stroke-linejoin:miter;stroke-miterlimit:10;stroke-dasharray:none;stroke-opacity:1"
         transform="matrix(1.0001333,0,0,1.0001333,0,-0.00670667)"
         clip-path="url(#clipPath10-4)" /><path
         id="path11-0"
         d="m 0,0 h 44.6 l 1.16,0.43 c 0.27,0.11 0.42,0.31 0.43,0.6 0.04,0.73 -0.09,1.43 -0.38,2.1 -0.12,0.29 -0.18,0.59 -0.18,0.9 -0.02,5.78 -0.02,11.56 0.01,17.35 0.01,0.62 0.27,0.95 0.8,0.99 0.41,0.03 0.6,0.25 0.59,0.66 l -0.38,7.93 c -0.01,0.09 -0.06,0.14 -0.15,0.15 -0.14,0.01 -0.29,0.06 -0.44,0.14 -0.15,0.08 -0.22,0.21 -0.22,0.38 l 0.01,11.31 c 0,0.29 0.07,0.56 0.2,0.81 0.32,0.62 0.52,1.27 0.61,1.94 0.05,0.31 -0.14,0.6 -0.44,0.68 -2.04,0.58 -4.11,0.64 -6.21,0.18 -0.72,-0.15 -2.23,0.27 -3.19,0.22 C 33.56,46.6 30.3,46.59 27.04,46.75 24.77,46.86 22.41,46.84 19.96,46.69 17.59,46.54 15.21,46.5 12.84,46.57 10.02,46.66 7.2,45.4 3.95,46.79 3.74,46.87 3.51,46.9 3.29,46.86 1.99,46.64 0.93,47.17 0,45.86 V 0 M 19.33,15 9.76,15.02 C 9.39,15.03 9.16,14.85 9.06,14.49 8.64,12.9 9.02,11.66 10.19,10.75 10.46,10.54 10.65,10.27 10.75,9.94 11.8,6.54 14.36,4.9 16.63,2.4 16.88,2.12 16.82,1.98 16.45,1.98 L 2.5,1.97 C 2.15,1.97 1.98,2.15 1.98,2.5 L 1.95,22.21 c 0,0.29 0.21,0.54 0.49,0.59 l 7.61,1.47 c 0.43,0.08 0.74,0.31 0.93,0.7 0.63,1.29 1.67,2.03 3.14,2.22 0.34,0.05 0.59,0.23 0.74,0.54 0.37,0.77 0.96,1.29 1.79,1.58 0.34,0.12 0.62,0.35 0.79,0.66 0.87,1.51 2.14,2.23 2.67,3.83 0.49,1.43 0.89,2.88 1.22,4.37 0.09,0.4 0.32,0.68 0.69,0.85 0.1,0.04 0.19,0.1 0.27,0.17 0.28,0.28 0.44,0.58 0.47,0.85 0.17,1.54 0.33,3.08 0.46,4.63 0.01,0.07 0.03,0.13 0.06,0.16 0.06,0.07 0.14,0.1 0.25,0.09 0.11,-0.01 0.17,-0.07 0.18,-0.18 l 0.5,-4.27 c 0.04,-0.37 0.17,-0.7 0.4,-0.99 1.21,-1.59 2.05,-3.37 2.52,-5.34 0.07,-0.3 0.23,-0.57 0.45,-0.79 l 0.63,-0.6 c 0.3,-0.29 0.5,-0.63 0.61,-1.04 0.35,-1.35 1.17,-2.31 2.46,-2.87 0.32,-0.13 0.54,-0.36 0.66,-0.69 0.11,-0.3 0.31,-0.54 0.59,-0.73 0.13,-0.09 0.26,-0.14 0.41,-0.17 1.42,-0.3 2.48,-1.07 3.18,-2.3 0.19,-0.34 0.48,-0.55 0.86,-0.63 l 7.5,-1.59 c 0.39,-0.08 0.59,-0.32 0.59,-0.72 L 45.11,2.46 C 45.12,2.19 44.89,1.97 44.61,1.97 H 30.73 c -0.48,0 -0.59,0.67 -0.14,0.83 0.8,0.29 1.35,0.85 1.65,1.67 0.13,0.35 0.36,0.62 0.69,0.81 1.77,1.05 2.86,2.58 3.25,4.6 0.07,0.38 0.27,0.68 0.58,0.91 1.23,0.89 1.61,2.13 1.15,3.7 -0.09,0.32 -0.31,0.48 -0.65,0.49 l -9.47,0.07 c -0.42,0 -0.76,-0.34 -0.76,-0.76 L 27,10.37 C 26.99,9.06 25.93,8 24.62,7.99 L 22.31,7.97 C 20.82,7.96 20.07,8.7 20.04,10.19 l -0.08,4.18 C 19.95,14.72 19.68,14.99 19.33,15 M 14.12,43.17 13.94,42.85 C 13.77,42.54 13.52,42.36 13.18,42.29 10.63,41.78 8.48,40.61 6.72,38.77 5.93,37.95 6.05,37.2 5.46,36.26 4.53,34.8 2.84,34.75 2.85,32.25 2.85,32.13 2.79,32.08 2.67,32.09 L 2.35,32.11 C 2.1,32.13 1.97,32.27 1.97,32.53 L 2.01,44.5 c 0,0.27 0.22,0.49 0.49,0.49 l 14.03,0.02 c 0.19,0 0.35,-0.14 0.37,-0.33 0.02,-0.19 -0.1,-0.36 -0.28,-0.41 l -1.64,-0.43 c -0.39,-0.1 -0.67,-0.32 -0.86,-0.67 m 29.11,-8.29 -0.5,0.34 c -0.26,0.18 -0.41,0.43 -0.46,0.74 -0.24,1.52 -1.05,2.59 -2.44,3.21 -0.29,0.13 -0.51,0.32 -0.67,0.59 l -0.18,0.31 c -0.19,0.32 -0.47,0.54 -0.82,0.67 l -4.43,1.54 c -0.19,0.07 -0.36,0.2 -0.48,0.38 -0.61,0.97 -1.53,1.44 -2.75,1.39 -0.16,-0.01 -0.24,0.07 -0.24,0.22 v 0.3 c 0,0.32 0.16,0.48 0.49,0.48 l 13.52,-0.07 c 0.5,-0.01 0.75,-0.26 0.75,-0.75 L 45.03,33 c 0,-1.67 -0.32,-1.75 -0.95,-0.24 -0.11,0.27 -0.22,0.71 -0.34,1.34 -0.07,0.33 -0.24,0.59 -0.51,0.78 z"
         style="fill:#000080;fill-opacity:1;fill-rule:nonzero;stroke:none"
         transform="matrix(1.0001333,0,0,1.0001333,0,-0.00670667)" /><path
         id="path12-9"
         d="M 44.6,0 H 48 V 48 H 0 v -2.14 c 0.93,1.31 1.99,0.78 3.29,1 0.22,0.04 0.45,0.01 0.66,-0.07 3.25,-1.39 6.07,-0.13 8.89,-0.22 2.37,-0.07 4.75,-0.03 7.12,0.12 2.45,0.15 4.81,0.17 7.08,0.06 3.26,-0.16 6.52,-0.15 9.78,0.02 0.96,0.05 2.47,-0.37 3.19,-0.22 2.1,0.46 4.17,0.4 6.21,-0.18 0.3,-0.08 0.49,-0.37 0.44,-0.68 -0.09,-0.67 -0.29,-1.32 -0.61,-1.94 -0.13,-0.25 -0.2,-0.52 -0.2,-0.81 L 45.84,31.63 c 0,-0.17 0.07,-0.3 0.22,-0.38 0.15,-0.08 0.3,-0.13 0.44,-0.14 0.09,-0.01 0.14,-0.06 0.15,-0.15 l 0.38,-7.93 C 47.04,22.62 46.85,22.4 46.44,22.37 45.91,22.33 45.65,22 45.64,21.38 45.61,15.59 45.61,9.81 45.63,4.03 c 0,-0.31 0.06,-0.61 0.18,-0.9 0.29,-0.67 0.42,-1.37 0.38,-2.1 -0.01,-0.29 -0.16,-0.49 -0.43,-0.6 z"
         style="fill:#0f0f40;fill-opacity:1;fill-rule:nonzero;stroke:none"
         transform="matrix(1.0001333,0,0,1.0001333,0,-0.00670667)" /><path
         id="path13"
         d="m 19.96,14.37 0.08,-4.18 C 20.07,8.7 20.82,7.96 22.31,7.97 l 2.31,0.02 C 25.93,8 26.99,9.06 27,10.37 l 0.03,3.92 c 0,0.42 0.34,0.76 0.76,0.76 l 9.47,-0.07 c 0.34,-0.01 0.56,-0.17 0.65,-0.49 0.46,-1.57 0.08,-2.81 -1.15,-3.7 C 36.45,10.56 36.25,10.26 36.18,9.88 35.79,7.86 34.7,6.33 32.93,5.28 32.6,5.09 32.37,4.82 32.24,4.47 31.94,3.65 31.39,3.09 30.59,2.8 30.14,2.64 30.25,1.97 30.73,1.97 h 13.88 c 0.28,0 0.51,0.22 0.5,0.49 l -0.04,19.55 c 0,0.4 -0.2,0.64 -0.59,0.72 l -7.5,1.59 c -0.38,0.08 -0.67,0.29 -0.86,0.63 -0.7,1.23 -1.76,2 -3.18,2.3 -0.15,0.03 -0.28,0.08 -0.41,0.17 -0.28,0.19 -0.48,0.43 -0.59,0.73 -0.12,0.33 -0.34,0.56 -0.66,0.69 -1.29,0.56 -2.11,1.52 -2.46,2.87 -0.11,0.41 -0.31,0.75 -0.61,1.04 l -0.63,0.6 c -0.22,0.22 -0.38,0.49 -0.45,0.79 -0.47,1.97 -1.31,3.75 -2.52,5.34 -0.23,0.29 -0.36,0.62 -0.4,0.99 l -0.5,4.27 C 23.7,44.85 23.64,44.91 23.53,44.92 23.42,44.93 23.34,44.9 23.28,44.83 23.25,44.8 23.23,44.74 23.22,44.67 23.09,43.12 22.93,41.58 22.76,40.04 22.73,39.77 22.57,39.47 22.29,39.19 22.21,39.12 22.12,39.06 22.02,39.02 21.65,38.85 21.42,38.57 21.33,38.17 21,36.68 20.6,35.23 20.11,33.8 19.58,32.2 18.31,31.48 17.44,29.97 17.27,29.66 16.99,29.43 16.65,29.31 15.82,29.02 15.23,28.5 14.86,27.73 14.71,27.42 14.46,27.24 14.12,27.19 12.65,27 11.61,26.26 10.98,24.97 10.79,24.58 10.48,24.35 10.05,24.27 L 2.44,22.8 C 2.16,22.75 1.95,22.5 1.95,22.21 L 1.98,2.5 C 1.98,2.15 2.15,1.97 2.5,1.97 l 13.95,0.01 c 0.37,0 0.43,0.14 0.18,0.42 -2.27,2.5 -4.83,4.14 -5.88,7.54 -0.1,0.33 -0.29,0.6 -0.56,0.81 -1.17,0.91 -1.55,2.15 -1.13,3.74 0.1,0.36 0.33,0.54 0.7,0.53 L 19.33,15 c 0.35,-0.01 0.62,-0.28 0.63,-0.63 m -2.12,13.4 0.28,0.57 c 0.18,0.37 0.56,0.61 0.97,0.61 l 8.97,-0.02 c 0.37,0 0.64,-0.17 0.81,-0.51 l 0.27,-0.56 c 0.17,-0.36 0.44,-0.57 0.83,-0.64 2.09,-0.35 2.94,-2.19 4.31,-3.34 1.29,-1.07 1.6,-1.6 2.01,-3.08 0.08,-0.31 0.29,-0.56 0.58,-0.7 1.07,-0.5 1.41,-1.35 1.04,-2.55 -0.12,-0.39 -0.54,-0.6 -0.92,-0.47 l -1.37,0.48 c -0.31,0.11 -0.63,0.16 -0.96,0.15 -1.96,-0.05 -3.92,0 -5.88,0.14 -1.08,0.07 -1.98,-0.42 -3.16,-0.15 -1.53,0.36 -2.68,-0.4 -4.3,-0.12 -1.67,0.29 -3.35,0.24 -5.03,-0.15 -0.26,-0.06 -0.54,-0.05 -0.8,0.03 -1.99,0.63 -3.89,0.48 -5.71,-0.47 -0.37,-0.19 -0.8,0.08 -0.8,0.49 l 0.01,1.38 c 0.01,0.39 0.23,0.75 0.58,0.93 l 0.71,0.36 c 0.29,0.15 0.48,0.43 0.52,0.75 0.19,1.51 0.95,2.59 2.3,3.25 0.32,0.16 0.59,0.42 0.76,0.74 0.71,1.34 1.82,2.14 3.33,2.39 0.28,0.05 0.52,0.23 0.65,0.49 z"
         style="fill:#00ffff;fill-opacity:1;fill-rule:nonzero;stroke:none"
         transform="matrix(1.0001333,0,0,1.0001333,0,-0.00670667)" /><path
         id="path14-5"
         d="M 17.19,27.28 C 15.68,27.03 14.57,26.23 13.86,24.89 13.69,24.57 13.42,24.31 13.1,24.15 11.75,23.49 10.99,22.41 10.8,20.9 10.76,20.58 10.57,20.3 10.28,20.15 L 9.57,19.79 C 9.22,19.61 9,19.25 8.99,18.86 L 8.98,17.48 c 0,-0.41 0.43,-0.68 0.8,-0.49 1.82,0.95 3.72,1.1 5.71,0.47 0.26,-0.08 0.54,-0.09 0.8,-0.03 1.68,0.39 3.36,0.44 5.03,0.15 1.62,-0.28 2.77,0.48 4.3,0.12 1.18,-0.27 2.08,0.22 3.16,0.15 1.96,-0.14 3.92,-0.19 5.88,-0.14 0.33,0.01 0.65,-0.04 0.96,-0.15 l 1.37,-0.48 c 0.38,-0.13 0.8,0.08 0.92,0.47 0.37,1.2 0.03,2.05 -1.04,2.55 -0.29,0.14 -0.5,0.39 -0.58,0.7 -0.41,1.48 -0.72,2.01 -2.01,3.08 -1.37,1.15 -2.22,2.99 -4.31,3.34 -0.39,0.07 -0.66,0.28 -0.83,0.64 l -0.27,0.56 c -0.17,0.34 -0.44,0.51 -0.81,0.51 l -8.97,0.02 c -0.41,0 -0.79,-0.24 -0.97,-0.61 l -0.28,-0.57 c -0.13,-0.26 -0.37,-0.44 -0.65,-0.49 z"
         style="fill:#000080;fill-opacity:1;fill-rule:nonzero;stroke:none"
         transform="matrix(1.0001333,0,0,1.0001333,0,-0.00670667)" /><path
         id="path15"
         d="m 14.98,43.84 1.64,0.43 c 0.18,0.05 0.3,0.22 0.28,0.41 -0.02,0.19 -0.18,0.33 -0.37,0.33 L 2.5,44.99 C 2.23,44.99 2.01,44.77 2.01,44.5 L 1.97,32.53 c 0,-0.26 0.13,-0.4 0.38,-0.42 l 0.32,-0.02 c 0.12,-0.01 0.18,0.04 0.18,0.16 -0.01,2.5 1.68,2.55 2.61,4.01 0.59,0.94 0.47,1.69 1.26,2.51 1.76,1.84 3.91,3.01 6.46,3.52 0.34,0.07 0.59,0.25 0.76,0.56 l 0.18,0.32 c 0.19,0.35 0.47,0.57 0.86,0.67 z"
         style="fill:#00ffff;fill-opacity:1;fill-rule:nonzero;stroke:none"
         transform="matrix(1.0001333,0,0,1.0001333,0,-0.00670667)" /><path
         id="path16-2"
         d="m 43.74,34.1 c 0.12,-0.63 0.23,-1.07 0.34,-1.34 0.63,-1.51 0.95,-1.43 0.95,0.24 l -0.01,11.23 c 0,0.49 -0.25,0.74 -0.75,0.75 l -13.52,0.07 c -0.33,0 -0.49,-0.16 -0.49,-0.48 v -0.3 c 0,-0.15 0.08,-0.23 0.24,-0.22 1.22,0.05 2.14,-0.42 2.75,-1.39 0.12,-0.18 0.29,-0.31 0.48,-0.38 l 4.43,-1.54 c 0.35,-0.13 0.63,-0.35 0.82,-0.67 l 0.18,-0.31 c 0.16,-0.27 0.38,-0.46 0.67,-0.59 1.39,-0.62 2.2,-1.69 2.44,-3.21 0.05,-0.31 0.2,-0.56 0.46,-0.74 l 0.5,-0.34 c 0.27,-0.19 0.44,-0.45 0.51,-0.78 z"
         style="fill:#00ffff;fill-opacity:1;fill-rule:nonzero;stroke:none"
         transform="matrix(1.0001333,0,0,1.0001333,0,-0.00670667)" /></g><g
       transform="matrix(0.6923,0,0,0.6923,1.846398,1.8463)"
       id="g12"><rect
         fill="#5a8c5a"
         height="13"
         rx="2.615"
         width="13"
         x="19"
         y="19"
         id="rect10" /><g
         fill-rule="evenodd"
         id="g11"><path
           d="m 21.6,25.5 h 7.8 m -3.9,3.9 v -7.8"
           fill="#ffffff"
           stroke="#ffffff"
           stroke-linecap="round"
           stroke-linejoin="round"
           stroke-width="2.6"
           id="path10-7"
           style="stroke-width:2.60002889;stroke-dasharray:none;fill:#8aae8b;fill-opacity:1" /><path
           d="m 20.3,25.5 h 10.4 v -2.6 c 0,-2.6 -0.65,-2.6 -5.2,-2.6 -4.55,0 -5.2,0 -5.2,2.6 z"
           fill="#fcffff"
           opacity="0.3"
           id="path11" /></g></g></g><g
     transform="matrix(0.69199998,0,0,0.69199998,1.8963926,1.8483769)"
     id="g8"><rect
       fill="#c4a000"
       height="13"
       rx="2.6099999"
       width="13"
       x="19"
       y="19"
       id="rect6" /><path
       d="m 20.3,25.5 h 10.4 v -2.6 c 0,-2.6 -0.65,-2.6 -5.2,-2.6 -4.55,0 -5.2,0 -5.2,2.6 z"
       fill="#fcffff"
       fill-rule="evenodd"
       opacity="0.3"
       id="path7-2" /><path
       d="m -6.46,-5.05 c 0,1.04 -0.16,1.76 -0.64,2.68 -0.72,1.56 -0.8,1.76 -0.8,2.36 0,1.16 0.88,2.12 1.92,2.12 1.08,0 1.92,-0.96 1.92,-2.16 0,-0.4 -0.12,-0.92 -0.4,-1.44 -0.92,-1.96 -1,-2.28 -1,-3.56 l 0.64,-0.36 c 0.84,0.48 1.48,1.04 2.04,1.84 1.32,1.8 1.76,2.16 2.84,2.16 1,0 1.8,-0.76 1.8,-1.76 0,-1.24 -1.04,-2.16 -2.6,-2.28 -1.96,-0.12 -2.32,-0.2 -3.56,-0.88 v -0.72 c 0.92,-0.52 1.6,-0.76 2.64,-0.8 1.6,-0.16 1.72,-0.16 2.2,-0.36 0.8,-0.4 1.32,-1.12 1.32,-1.96 0,-1.04 -0.84,-1.84 -1.88,-1.84 -0.88,0 -1.6,0.44 -2.24,1.4 -1.12,1.68 -1.36,1.92 -2.56,2.64 l -0.64,-0.36 c 0,-1 0.16,-1.76 0.64,-2.68 0.76,-1.6 0.8,-1.76 0.8,-2.32 0,-1.2 -0.88,-2.16 -1.96,-2.16 -1.04,0 -1.92,0.96 -1.92,2.12 0,0.44 0.12,0.96 0.4,1.48 0.96,2 1.04,2.28 1.04,3.56 l -0.64,0.36 c -0.92,-0.52 -1.44,-1.04 -2.04,-1.88 -0.8,-1.2 -0.8,-1.2 -1.12,-1.52 -0.44,-0.4 -1.08,-0.64 -1.6,-0.64 -1.08,0 -1.92,0.84 -1.92,1.84 0,1.24 1,2.12 2.56,2.24 2.04,0.12 2.36,0.2 3.6,0.88 v 0.76 c -0.84,0.48 -1.64,0.72 -2.64,0.8 -1.56,0.08 -1.68,0.12 -2.2,0.32 -0.8,0.36 -1.32,1.12 -1.32,1.96 0,1 0.84,1.84 1.88,1.84 0.88,0 1.64,-0.48 2.24,-1.4 1.08,-1.6 1.4,-1.96 2.56,-2.64 z"
       fill="#ffffff"
       stroke="#ffffff"
       stroke-width="0.497"
       transform="matrix(0.603,0,0,0.604,29.1,29.5)"
       id="path8-2" /></g></svg>
