<?xml version="1.0" encoding="UTF-8" standalone="no"?>
<svg
   height="24"
   width="24"
   version="1.1"
   id="svg8"
   sodipodi:docname="gpkg_backup.svg"
   inkscape:version="1.3 (0e150ed6c4, 2023-07-21)"
   xmlns:inkscape="http://www.inkscape.org/namespaces/inkscape"
   xmlns:sodipodi="http://sodipodi.sourceforge.net/DTD/sodipodi-0.dtd"
   xmlns:xlink="http://www.w3.org/1999/xlink"
   xmlns="http://www.w3.org/2000/svg"
   xmlns:svg="http://www.w3.org/2000/svg">
  <defs
     id="defs8">
    <linearGradient
       id="i"
       gradientTransform="matrix(-0.12080972,-0.09801846,-0.10207235,0.11601166,26.337805,17.257492)"
       gradientUnits="userSpaceOnUse"
       x1="5.9650002"
       x2="52.854"
       xlink:href="#a"
       y1="26.048"
       y2="26.048" />
    <linearGradient
       id="a">
      <stop
         offset="0"
         stop-color="#fff"
         id="stop1" />
      <stop
         offset="1"
         stop-color="#fff"
         stop-opacity="0"
         id="stop2" />
    </linearGradient>
    <linearGradient
       id="l"
       gradientUnits="userSpaceOnUse"
       x1="5.9650002"
       x2="52.854"
       xlink:href="#a"
       y1="26.048"
       y2="26.048"
       gradientTransform="matrix(0.12080972,0.09801846,0.10207235,-0.11601166,12.791227,21.501084)" />
    <linearGradient
       id="e"
       gradientUnits="userSpaceOnUse"
       x1="6.2620001"
       x2="7.3179998"
       y1="5.2950001"
       y2="9.9180002">
      <stop
         offset="0"
         stop-color="#264976"
         id="stop9" />
      <stop
         offset=".333"
         stop-color="#3f689d"
         id="stop10" />
      <stop
         offset="1"
         stop-color="#5689ca"
         stop-opacity="0"
         id="stop11" />
    </linearGradient>
    <linearGradient
       id="f"
       gradientTransform="matrix(-0.54367,0,0,-0.54367,24.52,24.602)"
       gradientUnits="userSpaceOnUse"
       x1="37.127998"
       x2="37.064999"
       y1="29.73"
       y2="26.194">
      <stop
         offset="0"
         stop-color="#3465a4"
         id="stop12" />
      <stop
         offset="1"
         stop-color="#3465a4"
         stop-opacity="0"
         id="stop13" />
    </linearGradient>
    <linearGradient
       id="g"
       gradientTransform="matrix(-0.31481,-0.26598,-0.26598,0.31481,29.625,6.946)"
       gradientUnits="userSpaceOnUse"
       x1="62.514"
       x2="15.985"
       y1="36.061001"
       y2="20.608999">
      <stop
         offset="0"
         stop-color="#8cb0d8"
         id="stop14" />
      <stop
         offset="1"
         stop-color="#4580bf"
         id="stop15" />
    </linearGradient>
    <linearGradient
       id="h"
       gradientTransform="matrix(-0.31481,-0.26598,-0.26598,0.31481,29.625,6.946)"
       gradientUnits="userSpaceOnUse"
       x1="46.834999"
       x2="45.380001"
       xlink:href="#b"
       y1="45.264"
       y2="50.939999" />
    <linearGradient
       id="b">
      <stop
         offset="0"
         stop-color="#3465a4"
         id="stop5" />
      <stop
         offset="1"
         stop-color="#3465a4"
         id="stop6" />
    </linearGradient>
    <linearGradient
       id="c"
       gradientUnits="userSpaceOnUse"
       x1="16.431"
       x2="18.865"
       y1="17.169001"
       y2="13.958">
      <stop
         offset="0"
         stop-color="#c4d7eb"
         id="stop7" />
      <stop
         offset="1"
         stop-color="#c4d7eb"
         stop-opacity="0"
         id="stop8" />
    </linearGradient>
    <linearGradient
       id="d"
       gradientUnits="userSpaceOnUse"
       x1="18.642"
       x2="18.865"
       y1="17.554001"
       y2="13.958">
      <stop
         offset="0"
         stop-color="#2b5b95"
         id="stop16" />
      <stop
         offset="1"
         stop-color="#5c8fce"
         stop-opacity="0"
         id="stop17" />
    </linearGradient>
    <linearGradient
       id="j"
       gradientTransform="matrix(0.31481,0.26598,0.26598,-0.31481,-5.625,17.054)"
       gradientUnits="userSpaceOnUse"
       x1="18.936001"
       x2="53.589001"
       y1="23.667999"
       y2="26.649">
      <stop
         offset="0"
         stop-color="#4580bf"
         id="stop18" />
      <stop
         offset="1"
         stop-color="#376da5"
         id="stop19" />
    </linearGradient>
    <linearGradient
       id="k"
       gradientTransform="matrix(0.31481,0.26598,0.26598,-0.31481,-5.625,17.054)"
       gradientUnits="userSpaceOnUse"
       x1="46.834999"
       x2="45.380001"
       xlink:href="#b"
       y1="45.264"
       y2="50.939999" />
    <linearGradient
       id="e-4"
       gradientUnits="userSpaceOnUse"
       x1="6.2620001"
       x2="7.3179998"
       y1="5.2950001"
       y2="9.9180002">
      <stop
         offset="0"
         stop-color="#264976"
         id="stop9-5" />
      <stop
         offset=".333"
         stop-color="#3f689d"
         id="stop10-6" />
      <stop
         offset="1"
         stop-color="#5689ca"
         stop-opacity="0"
         id="stop11-1" />
    </linearGradient>
    <linearGradient
       id="c-7"
       gradientUnits="userSpaceOnUse"
       x1="16.431"
       x2="18.865"
       y1="17.169001"
       y2="13.958">
      <stop
         offset="0"
         stop-color="#c4d7eb"
         id="stop7-8" />
      <stop
         offset="1"
         stop-color="#c4d7eb"
         stop-opacity="0"
         id="stop8-9" />
    </linearGradient>
    <linearGradient
       id="d-9"
       gradientUnits="userSpaceOnUse"
       x1="18.642"
       x2="18.865"
       y1="17.554001"
       y2="13.958">
      <stop
         offset="0"
         stop-color="#2b5b95"
         id="stop16-2" />
      <stop
         offset="1"
         stop-color="#5c8fce"
         stop-opacity="0"
         id="stop17-8" />
    </linearGradient>
    <linearGradient
       id="l-3"
       gradientUnits="userSpaceOnUse"
       x1="5.9650002"
       x2="52.854"
       xlink:href="#a"
       y1="26.048"
       y2="26.048"
       gradientTransform="matrix(0.12080972,0.09801846,0.10207235,-0.11601166,12.791227,21.501084)" />
    <linearGradient
       id="i-8"
       gradientTransform="matrix(-0.12080972,-0.09801846,-0.10207235,0.11601166,26.337805,17.257492)"
       gradientUnits="userSpaceOnUse"
       x1="5.9650002"
       x2="52.854"
       xlink:href="#a"
       y1="26.048"
       y2="26.048" />
  </defs>
  <sodipodi:namedview
     id="namedview8"
     pagecolor="#505050"
     bordercolor="#eeeeee"
     borderopacity="1"
     inkscape:showpageshadow="0"
     inkscape:pageopacity="0"
     inkscape:pagecheckerboard="0"
     inkscape:deskcolor="#d1d1d1"
     inkscape:zoom="24.875"
     inkscape:cx="10.532663"
     inkscape:cy="12"
     inkscape:window-width="1920"
     inkscape:window-height="1009"
     inkscape:window-x="3832"
     inkscape:window-y="-8"
     inkscape:window-maximized="1"
     inkscape:current-layer="svg8" />
  <path
     d="m.589 7.63 10.9-5.13 12 5.18-11 6.82z"
     fill="#806600"
     stroke="#000"
     stroke-linejoin="bevel"
     stroke-width=".602"
     id="path1" />
  <path
     d="m20.5 8.78c0 4.34-3.65 7.85-8.16 7.85s-8.16-3.52-8.16-7.85c0-4.34 3.65-7.85 8.16-7.85s8.16 3.52 8.16 7.85z"
     fill="#aec7e2"
     stroke="#2e4e72"
     stroke-width=".885"
     id="path2" />
  <path
     d="m9.42 2.57c-.175.179-.948.256-.52.508.23.185.634-.477.848-.23-.135.152-.451.0955-.0541.243.46.528-.329.875.226 1.38.15-.431.478-.731.92-.821-.0635-.419.53-.62.393-.965-.371-.00507-.825-.0534-1.21-.025-.203.00944-.4-.0675-.599-.0898zm6 .541c-.325.0615-.867.175-.74.609-.176-.123-.189-.449-.0856.0515-.0833.422-.244-.806-.312-.199.264.495-.322-.0346-.448.228-.326-.17-.617.773-.742.132.607.0354-.287-.54-.539-.285-.207.295-.778.903-.426.945.131.452.474.255.375-.146-.0232-.385.392-.497.182-.0316.313.0316.176.142.0735.221-.009.222-.242.535-.523.389-.199-.0471-.308.308-.502.469-.342.0843.0133.307-.129.609-.403-.295-.5.735-.0625.652.183-.296.346-.662.535-.77.262.15.39.55.322.688.355-.316-.122-.454-.109-.805.346.136.303.735.516.82-.0737-.372.225-.507.221-.00781.259.108.624.0532.369.513-.2.463-.836-.402-.743.175-.326-.0873-.543-.351-.475-.672-.232.0641-.59.266-.766.146-.17.281-.246.554-.4.842-.257.462-.184 1-.205 1.5.165.374.364.986.828.631.24-.19.358.12.501.208-.0664.483.22.888.218 1.37-.0068.443-.15.875.0723 1.31.0912.309.0105 1.34.48 1.05.313-.289.527-.778.561-1.18.146-.509.422-1.05.209-1.65.135-.508.755-1.33.544-1.62-.602.184-.514-.835-.744-1.22-.125-.352-.204-.859.0543-.328.228.359.198 1.23.563 1.29.445-.256.791-.99.395-1.25-.287.748-.573-1.07-.172-.195.256.17.548.198.796.372.135.436.439.12.338.651.0552.294.277 1.41.369.541-.142-.408.525-1.52.689-.615.2.319.277.476.301 1-.0179-.681.104-.386.331-.0588.571-.32-.408-1.17.125-1.26.0345.73.115-.231.436-.308.198-.377-.102-1.11-.189-1.24-.337-.027.129-.641.137-.21.157-.156.284.885.413.249-.523-.489.25-.725.0752-1.29-.0342-.466-.767-.227-.418-.795.144-.342.613.246.548-.336.406-.156.0743.381.318.658.115.572.293.256.185-.161-.297-.0929.0726-.656.0379-.269.26-.241.214-.302.0308-.511.109-.204.621.205.227-.176-.546-.206-.922-.0797-1.43-.295-.382.114-.614-.355-.792.0286-.389-.192-.829-.0967-1.17-.23.229-.298-.107-.185-.248-.256zm-7.99.164c-.291.102.0217.337.133.439.307.143.631-.452.168-.239-.128-.0367-.138-.235-.301-.2zm1.22.0449c-.344.436.564.0648.293.665-.309.315.27.348.213.165.0195-.207.111-.298-.00128-.613-.0828-.255-.421-.113-.505-.217zm-.342.18c-.174.324-.253.436-.648.287-.198.255-.705-.413-1.1.00598-.223-.337-.702-.222-1.08-.0586-.134.172-.0345.265-.295.265.0457.13.294.109-.0564.249-.296.0809-.0867.585.0801.402.185-.186.488-.29.742-.0261.124.335.115.835-.000919 1.19-.464.605-.075 1.24-.0162 1.89.252.896-.146-.767.0895-.319.183.483.106 1.13.574 1.42.265-.00862.554.26.602.543.147.321.355.34.105-.0156.0996-.348-.0553-.568-.196-.631.209-.286-.0482-.701-.134-.189-.591.202-.233-1.34.15-1.03.299-.502.408.407.481.31-.153-.582.387-.912.564-1.42.241-.219.509-.712.49-.328.162-.21.405-.279.0346-.296.337-.289-.443-.0694.00637-.313.559.0349.591-.376.377-.666.128-.542-.331.168-.275-.383-.5-.238-.201.561-.565.689-.185.568-.0103-.283-.338-.183-.42-.408.43-.865.494-.938.321-.157.262-.377-.00625-.147-.00649-.0931-.0558-.229-.0723-.307zm-.451 5.67c-.323.315-.15.752-.355 1.14-.211.478.0443.928.176 1.42.422.36.47.801.406 1.34.0574.447-.00649.926.0923 1.36.201.381-.0443.907.386 1.17.116-.345.0101-.695-.0049-1.09.108-.111.198-.255.348-.485-.335-.419.175-.0027.188-.484.0184-.432.144-.77.453-1.03.0585-.532.173-1.08.25-1.57-.174-.284-.495-.261-.672-.459-.262.0801.0356-.478-.334-.594-.216-.267-.379-.562-.66-.588-.234-.3-.154.52-.246-.0796zm9.87.588c-.173.363-.526.573-.26.959.43.0711.318-.575.344-.865l-.0644-.0801zm-1.06.123c.119.214.343 1.4.51.953-.0971-.365-.26-.705-.51-.953zm1.93.582c-.179.122.0904.37.258.496-.0617.418.324.211.422.349.423.508.0266-.38-.137-.502-.328-.585-.426.4-.543-.343zm.449 1.09c.101.435-.371.843-.355.207-.0463-.553-.424.483-.456.0405-.275.212-.188.507-.618.702-.262.318-.232 1.13-.109 1.35.272-.0823.456-.287.733-.32.162.0848.101.446.308.144-.164.44.236.862.494.359.335-.45.527-1.09.217-1.58-.155-.274-.0683-.603-.213-.904zm-4.84.105c-.241.359-.35.726-.316 1.18.289.258.28-.751.346-1.01-.0061-.0574-.0204-.114-.0293-.172z"
     fill="#2e4e72"
     stroke="#fff"
     stroke-width=".0564"
     id="path3" />
  <path
     d="m20.5 8.78c0 4.34-3.65 7.85-8.16 7.85s-8.16-3.52-8.16-7.85c0-4.34 3.65-7.85 8.16-7.85s8.16 3.52 8.16 7.85z"
     fill="none"
     stroke="#6e96c4"
     stroke-width=".885"
     id="path4" />
  <path
     d="m.5 7.5 11.9 6.98v9.57l-11.9-7.98z"
     fill="#d4aa00"
     stroke="#000"
     stroke-linejoin="bevel"
     stroke-width=".539"
     id="path5" />
  <path
     d="m23.5 7.5-11.1 6.98v9.57l11.1-7.98z"
     fill="#ffff7a"
     stroke="#000"
     stroke-linejoin="bevel"
     stroke-width=".549"
     id="path6" />
  <g
     transform="matrix(.692 0 0 .692 1.86 1.82)"
     id="g8" />
  <g
     id="g1"
     transform="matrix(1.2427284,0,0,1.1837455,-5.8166477,-4.4774426)">
    <g
       stroke-width="0.544"
       id="g20"
       transform="matrix(0.43697227,0,0,0.41961754,14.311016,14.344087)">
      <path
         d="m 9.638,5.336 c 0,0 -4.859,-0.34 -3.364,5.369 h -4.18 c 0,0 0.273,-6.456 7.544,-5.369 z"
         display="block"
         fill="url(#e)"
         stroke="url(#f)"
         id="path17"
         style="fill:url(#e-4);stroke:url(#f)" />
      <path
         d="M 2.317,10.975 C 0.32,1.513 10.423,-2.041 19.229,4.906 l 2.596,-2.85 -0.052,9.315 -8.134,-0.008 2.707,-3.044 C 10.153,3.625 2.22,3.977 2.316,10.975 Z"
         display="block"
         fill="url(#g)"
         stroke="url(#h)"
         id="path18"
         style="fill:url(#g);stroke:url(#h)" />
      <path
         d="m 14.108,18.631 c 0,0 4.86,0.34 3.364,-5.369 H 21.7 c 0,0.817 -0.32,6.456 -7.592,5.37 z"
         display="block"
         fill="url(#c)"
         stroke="url(#d)"
         id="path19"
         style="fill:url(#c-7);stroke:url(#d-9)" />
      <path
         d="m 21.683,13.025 c 1.996,9.462 -8.106,13.016 -16.912,6.069 l -2.528,2.951 0.018,-9.348 7.965,-0.06 -2.572,3.044 c 6.193,4.694 14.126,4.342 14.03,-2.656 z"
         display="block"
         fill="url(#j)"
         stroke="url(#k)"
         id="path20"
         style="fill:url(#j);stroke:url(#k)" />
    </g>
    <path
       d="m 15.412624,23.245853 0.01486,-3.393866 3.073663,-0.08518 -1.042616,1.181224 0.918515,0.541306 c -0.712264,0.513612 -1.080632,0.552637 -1.318345,1.137164 L 16.389697,22.1452 Z"
       fill="#e6e6e6"
       opacity="0.272"
       id="path21"
       style="stroke-width:0.428207" />
    <path
       d="m 23.653008,21.178807 c -0.451757,2.659626 -3.982797,3.477615 -7.288141,0.845943 l -0.838306,0.959377 0.02373,-3.081268 2.67041,-0.01491 -0.912722,1.050308 c 2.094689,1.744054 5.283136,2.277694 6.345032,0.240551 z"
       display="block"
       fill="none"
       opacity="0.5"
       stroke="url(#l)"
       stroke-width="0.232787"
       id="path22"
       style="stroke:url(#l-3)" />
    <path
       d="m 15.382035,17.615845 c 0.45183,-2.659536 4.002667,-3.527725 7.352059,-0.882036 l 0.853407,-0.902178 0.0061,3.052718 -2.789194,8.39e-4 0.986684,-1.078837 c -2.242979,-1.74435 -5.317079,-2.142147 -6.409073,-0.190506 z"
       display="block"
       fill="none"
       opacity="0.5"
       stroke="url(#i)"
       stroke-width="0.232945"
       id="path23"
       style="stroke:url(#i-8)" />
    <path
       d="m 15.353195,17.97252 c 0.853844,-2.38175 3.906532,-1.401523 4.796208,-1.026385 0.991927,0.04826 1.348059,-0.646631 2.138105,-0.684396 -3.338031,-2.233624 -6.84517,-1.482929 -6.934313,1.710781 z"
       fill="#ffffff"
       opacity="0.272"
       id="path24"
       style="stroke-width:0.428207" />
  </g>
</svg>
