<?xml version="1.0" encoding="UTF-8" standalone="no"?>
<!-- Created with Inkscape (http://www.inkscape.org/) -->

<svg
   width="24"
   height="24"
   viewBox="0 0 6.3500001 6.3500001"
   version="1.1"
   id="svg1"
   xml:space="preserve"
   inkscape:version="1.3 (0e150ed6c4, 2023-07-21)"
   sodipodi:docname="project_toolbar.svg"
   inkscape:export-filename="..\project_toolbar.svg"
   inkscape:export-xdpi="96"
   inkscape:export-ydpi="96"
   xmlns:inkscape="http://www.inkscape.org/namespaces/inkscape"
   xmlns:sodipodi="http://sodipodi.sourceforge.net/DTD/sodipodi-0.dtd"
   xmlns="http://www.w3.org/2000/svg"
   xmlns:svg="http://www.w3.org/2000/svg"
   xmlns:rdf="http://www.w3.org/1999/02/22-rdf-syntax-ns#"
   xmlns:cc="http://creativecommons.org/ns#"><sodipodi:namedview
     id="namedview1"
     pagecolor="#505050"
     bordercolor="#eeeeee"
     borderopacity="1"
     inkscape:showpageshadow="0"
     inkscape:pageopacity="0"
     inkscape:pagecheckerboard="0"
     inkscape:deskcolor="#d1d1d1"
     inkscape:document-units="mm"
     inkscape:zoom="27.416668"
     inkscape:cx="8.5349541"
     inkscape:cy="28.43161"
     inkscape:window-width="1920"
     inkscape:window-height="1009"
     inkscape:window-x="1912"
     inkscape:window-y="81"
     inkscape:window-maximized="1"
     inkscape:current-layer="svg1"
     showgrid="true"><inkscape:grid
       id="grid278"
       units="px"
       originx="0"
       originy="0"
       spacingx="0.26458334"
       spacingy="0.26458334"
       empcolor="#0099e5"
       empopacity="0.30196078"
       color="#0099e5"
       opacity="0.14901961"
       empspacing="5"
       dotted="false"
       gridanglex="30"
       gridanglez="30"
       visible="true" /><inkscape:page
       x="0"
       y="0"
       width="6.3499999"
       height="6.3499999"
       id="page1"
       margin="0"
       bleed="0"
       inkscape:export-filename="..\settings.svg"
       inkscape:export-xdpi="96"
       inkscape:export-ydpi="96" /></sodipodi:namedview><defs
     id="defs1" /><style
     type="text/css"
     id="style4" /><metadata
     id="metadata3"><rdf:RDF><cc:Work
         rdf:about=""><cc:license
           rdf:resource="http://artlibre.org/licence/lal" /></cc:Work><cc:License
         rdf:about="http://artlibre.org/licence/lal"><cc:permits
           rdf:resource="http://creativecommons.org/ns#Reproduction" /><cc:permits
           rdf:resource="http://creativecommons.org/ns#Distribution" /><cc:permits
           rdf:resource="http://creativecommons.org/ns#DerivativeWorks" /><cc:requires
           rdf:resource="http://creativecommons.org/ns#ShareAlike" /><cc:requires
           rdf:resource="http://creativecommons.org/ns#Notice" /><cc:requires
           rdf:resource="http://creativecommons.org/ns#Attribution" /></cc:License></rdf:RDF></metadata><g
     id="g6"
     transform="matrix(0.29908238,0,0,0.29908238,-0.41533756,-0.3093745)"><path
       d="m 11.068112,18.608277 c -0.02638,-2.58523 0.263801,-3.297492 1.952114,-4.748386 2.58523,-2.295051 3.165591,-3.191972 3.165591,-5.0385645 0,-2.7435088 -2.031257,-4.5901059 -5.038565,-4.5901059 -2.9809278,0 -5.1440841,1.6355573 -5.1440841,3.904228 0,1.1607153 0.7386387,2.0312534 1.7146947,2.0312534 0.8441566,0 1.5036554,-0.6331185 1.5036554,-1.4508951 0,-0.5275979 -0.2637997,-0.9760575 -0.7650177,-1.3981357 C 8.0608019,7.0011124 8.0344216,6.9483521 8.0344216,6.7373129 c 0,-0.6858772 1.1607177,-1.3189959 2.4269524,-1.3189959 1.872973,0 2.954551,1.2134783 2.954551,3.24473 0,1.0815756 -0.316559,2.084014 -0.844157,2.849031 -1.952112,2.664369 -1.952115,2.664373 -2.295053,3.587669 -0.263799,0.738637 -0.3693191,1.424517 -0.3693191,2.664372 v 0.844158 z m -0.633118,2.136773 c -0.923296,0 -1.6619346,0.738639 -1.6619346,1.635555 0,0.923296 0.7386386,1.661935 1.6355546,1.661935 0.923297,0 1.661935,-0.738639 1.661935,-1.661935 0,-0.896916 -0.738638,-1.635555 -1.635555,-1.635555"
       fill="#ffffff"
       transform="matrix(0.78565017,0,0,0.70666671,2.78361,3.509937)"
       id="path1-2" /><path
       d="M 2.2645314,1.4840879 H 21.6748 V 21.832521 H 2.2645314 Z"
       fill="#6d97c4"
       stroke="#1f1b1e"
       stroke-width="0.867"
       id="path2-15" /><path
       d="m 2.4262834,1.4679123 h 4.481678 V 21.816345 h -4.481678 z"
       fill="#2d3e4d"
       stroke="#1f1b1e"
       stroke-width="0.867"
       id="path3-3" /><path
       d="m 13.944461,17.701892 c -0.261816,-1e-6 -0.485867,-0.09314 -0.672153,-0.279435 -0.181258,-0.191324 -0.271885,-0.417892 -0.271881,-0.679704 -4e-6,-0.266846 0.09062,-0.493414 0.271881,-0.679705 0.186286,-0.186288 0.410337,-0.279433 0.672153,-0.279434 0.261808,10e-7 0.485858,0.09315 0.672152,0.279434 0.19132,0.186291 0.286982,0.412859 0.286987,0.679705 -5e-6,0.256777 -0.09315,0.480828 -0.279434,0.672152 -0.186294,0.191324 -0.412863,0.286986 -0.679705,0.286987 m 0.339852,-3.88187 v 0.59663 h -0.619286 v -1.064871 c -4e-6,-0.392714 0.05034,-0.725013 0.151045,-0.9969 0.100693,-0.271877 0.304604,-0.604176 0.611735,-0.9969 0.03524,-0.05034 0.08811,-0.118313 0.158597,-0.203912 0.714943,-0.9113 1.072417,-1.7395324 1.072423,-2.4846983 -6e-6,-0.654521 -0.148534,-1.142901 -0.445584,-1.4651414 -0.292026,-0.3222197 -0.735093,-0.4833348 -1.3292,-0.4833456 -0.362513,1.08e-5 -0.684743,0.085603 -0.966691,0.2567774 -0.281955,0.1711952 -0.422931,0.3574845 -0.422928,0.5588683 -3e-6,0.060428 0.115799,0.1963689 0.347405,0.4078229 0.2316,0.211473 0.347401,0.4632153 0.347404,0.7552275 -3e-6,0.2668556 -0.08308,0.4833539 -0.249225,0.6494956 C 12.77889,9.5101986 12.562392,9.5907561 12.290513,9.5907482 11.993454,9.5907561 11.754299,9.482507 11.573047,9.2660004 11.39179,9.0495103 11.301163,8.7625241 11.301165,8.4050411 c -2e-6,-0.6645905 0.284467,-1.2259757 0.853407,-1.6841574 0.568935,-0.4581601 1.283883,-0.6872455 2.144846,-0.687257 0.865989,1.15e-5 1.570867,0.2442015 2.114637,0.7325707 0.548791,0.4883907 0.82319,1.1177463 0.823198,1.8880687 -8e-6,0.9465597 -0.596637,1.9484939 -1.789889,3.0058059 -0.151051,0.130911 -0.264335,0.231608 -0.339853,0.302091 -0.32727,0.297061 -0.546286,0.579012 -0.657048,0.845854 -0.110771,0.261817 -0.166154,0.599152 -0.16615,1.012005"
       fill="#ffffff"
       transform="scale(1.0231315,0.97739146)"
       id="path4-6" /></g></svg>
