<?xml version="1.0" encoding="UTF-8" standalone="no"?>
<svg
   height="24"
   width="24"
   version="1.1"
   id="svg6"
   sodipodi:docname="import_sd_shapefiles.svg"
   inkscape:version="1.3 (0e150ed6c4, 2023-07-21)"
   xmlns:inkscape="http://www.inkscape.org/namespaces/inkscape"
   xmlns:sodipodi="http://sodipodi.sourceforge.net/DTD/sodipodi-0.dtd"
   xmlns:xlink="http://www.w3.org/1999/xlink"
   xmlns="http://www.w3.org/2000/svg"
   xmlns:svg="http://www.w3.org/2000/svg">
  <defs
     id="defs6">
    <linearGradient
       inkscape:collect="always"
       xlink:href="#linearGradient4137"
       id="linearGradient3226"
       gradientUnits="userSpaceOnUse"
       gradientTransform="translate(-33)"
       x1="23"
       y1="15"
       x2="23"
       y2="21" />
    <linearGradient
       id="linearGradient4137">
      <stop
         id="stop4139"
         offset="0"
         style="stop-color:#555753;stop-opacity:1;" />
      <stop
         id="stop4141"
         offset="1"
         style="stop-color:#555753;stop-opacity:0;" />
    </linearGradient>
  </defs>
  <sodipodi:namedview
     id="namedview6"
     pagecolor="#505050"
     bordercolor="#eeeeee"
     borderopacity="1"
     inkscape:showpageshadow="0"
     inkscape:pageopacity="0"
     inkscape:pagecheckerboard="0"
     inkscape:deskcolor="#d1d1d1"
     inkscape:zoom="33.875"
     inkscape:cx="12"
     inkscape:cy="12"
     inkscape:window-width="1920"
     inkscape:window-height="1009"
     inkscape:window-x="1912"
     inkscape:window-y="81"
     inkscape:window-maximized="1"
     inkscape:current-layer="svg6" />
  <g
     stroke-linecap="round"
     id="g6">
    <g
       fill="none"
       stroke="#5b6775"
       stroke-linejoin="bevel"
       stroke-width="1.001575"
       transform="translate(36.080801 -6.377072)"
       id="g3">
      <g
         transform="translate(1.53601 -4.184115)"
         id="g2">
        <path
           d="m-35.041811 13.136187-1.269685 20.357015 21.122373-.23733-.772688-19.998685-5.744.022-6.985 15.153z"
           id="path1" />
        <path
           d="m-36.311496 33.493202 7.620685-5.061015 13.501688 4.823685-6.516688-19.976685"
           id="path2" />
      </g>
      <path
         d="m-33.505801 8.9520718 13.336.143"
         id="path3" />
    </g>
    <g
       stroke="#c4a000"
       stroke-linejoin="round"
       id="g5">
      <path
         d="m2.575 2.575 6.351 15.296 6.985-15.153 5.744-.022"
         fill="none"
         stroke-width="1.5"
         id="path4" />
      <path
         d="m4.257 2.575a1.681 1.681 0 1 1 -3.363 0 1.681 1.681 0 1 1 3.363 0zm6.372 14.495a1.681 1.681 0 1 1 -3.363 0 1.681 1.681 0 1 1 3.363 0zm6.786-14.388a1.681 1.681 0 1 1 -3.363 0 1.681 1.681 0 1 1 3.363 0zm5.921.014a1.681 1.681 0 1 1 -3.363 0 1.681 1.681 0 1 1 3.363 0z"
         fill="#eeeeec"
         fill-rule="evenodd"
         id="path5" />
    </g>
  </g>
  <g
     id="g3221"
     transform="translate(33)"
     style="display:inline">
    <rect
       ry="2.0114901"
       inkscape:export-ydpi="120"
       inkscape:export-xdpi="120"
       y="13"
       x="-20"
       height="11"
       width="11"
       id="rect2730"
       style="display:inline;fill:#c4a000;fill-opacity:1;stroke:url(#linearGradient3226);stroke-width:0;stroke-linejoin:round;stroke-miterlimit:4;stroke-dasharray:none;stroke-opacity:1;enable-background:new"
       rx="2.0114901" />
    <path
       style="display:inline;fill:#fcffff;fill-opacity:1;fill-rule:nonzero;stroke:#008000;stroke-width:0;stroke-linecap:round;stroke-linejoin:round;stroke-miterlimit:4;stroke-dashoffset:7;stroke-opacity:1;enable-background:new"
       d="m -15,14 v 2.0625 c -0.537663,0.111041 -1.024662,0.383291 -1.375,0.78125 l -1.78125,-1.03125 -0.5,0.875 1.78125,1.03125 C -16.957063,17.966182 -17,18.225145 -17,18.5 c 0,0.274855 0.04294,0.533818 0.125,0.78125 l -1.78125,1.03125 0.5,0.875 1.78125,-1.03125 c 0.352503,0.40042 0.832682,0.670182 1.375,0.78125 V 23 h 1 v -2.0625 c 0.537663,-0.111041 1.024662,-0.383291 1.375,-0.78125 l 1.78125,1.03125 0.5,-0.875 -1.78125,-1.03125 C -12.042937,19.033818 -12,18.774855 -12,18.5 c 0,-0.274855 -0.04294,-0.533818 -0.125,-0.78125 l 1.78125,-1.03125 -0.5,-0.875 -1.78125,1.03125 C -12.977503,16.44333 -13.457682,16.173568 -14,16.0625 V 14 Z m 0.5,3.5 c 0.552,0 1,0.448 1,1 0,0.552 -0.448,1 -1,1 -0.552,0 -1,-0.448 -1,-1 0,-0.552 0.448,-1 1,-1 z"
       id="rect3812"
       inkscape:connector-curvature="0" />
    <path
       sodipodi:nodetypes="ccsssc"
       id="path4133"
       d="m -19,19 9,-0.0096 c 0,0 0,0 0,-2 C -10,14 -11,14 -14.5,14 -18,14 -19,14 -19,17 Z"
       style="display:inline;opacity:0.3;fill:#fcffff;fill-rule:evenodd;stroke:none;enable-background:new"
       inkscape:connector-curvature="0" />
  </g>
</svg>
