<?xml version="1.0" encoding="UTF-8" standalone="no"?>
<!-- Created with Inkscape (http://www.inkscape.org/) -->

<svg
   xmlns:osb="http://www.openswatchbook.org/uri/2009/osb"
   xmlns:dc="http://purl.org/dc/elements/1.1/"
   xmlns:cc="http://creativecommons.org/ns#"
   xmlns:rdf="http://www.w3.org/1999/02/22-rdf-syntax-ns#"
   xmlns:svg="http://www.w3.org/2000/svg"
   xmlns="http://www.w3.org/2000/svg"
   xmlns:xlink="http://www.w3.org/1999/xlink"
   xmlns:sodipodi="http://sodipodi.sourceforge.net/DTD/sodipodi-0.dtd"
   xmlns:inkscape="http://www.inkscape.org/namespaces/inkscape"
   width="24"
   height="24"
   id="svg5692"
   version="1.1"
   inkscape:version="0.92.2 (5c3e80d, 2017-08-06)"
   sodipodi:docname="import_components2.svg"
   inkscape:export-filename="/media/home1/robert/svn/graphics/trunk/toolbar-icons/32x32/layer-vector.png"
   inkscape:export-xdpi="90"
   inkscape:export-ydpi="90">
  <title
     id="title2829">GIS icon theme 0.2</title>
  <defs
     id="defs5694">
    <linearGradient
       id="linearGradient6064"
       osb:paint="solid">
      <stop
         style="stop-color:#231b1b;stop-opacity:1;"
         offset="0"
         id="stop6062" />
    </linearGradient>
    <inkscape:perspective
       sodipodi:type="inkscape:persp3d"
       inkscape:vp_x="0 : 16 : 1"
       inkscape:vp_y="0 : 1000 : 0"
       inkscape:vp_z="32 : 16 : 1"
       inkscape:persp3d-origin="16 : 10.666667 : 1"
       id="perspective3486" />
    <inkscape:perspective
       id="perspective3496"
       inkscape:persp3d-origin="0.5 : 0.33333333 : 1"
       inkscape:vp_z="1 : 0.5 : 1"
       inkscape:vp_y="0 : 1000 : 0"
       inkscape:vp_x="0 : 0.5 : 1"
       sodipodi:type="inkscape:persp3d" />
    <inkscape:perspective
       id="perspective3600"
       inkscape:persp3d-origin="0.5 : 0.33333333 : 1"
       inkscape:vp_z="1 : 0.5 : 1"
       inkscape:vp_y="0 : 1000 : 0"
       inkscape:vp_x="0 : 0.5 : 1"
       sodipodi:type="inkscape:persp3d" />
    <inkscape:perspective
       id="perspective7871"
       inkscape:persp3d-origin="0.5 : 0.33333333 : 1"
       inkscape:vp_z="1 : 0.5 : 1"
       inkscape:vp_y="0 : 1000 : 0"
       inkscape:vp_x="0 : 0.5 : 1"
       sodipodi:type="inkscape:persp3d" />
    <inkscape:perspective
       id="perspective8710"
       inkscape:persp3d-origin="0.5 : 0.33333333 : 1"
       inkscape:vp_z="1 : 0.5 : 1"
       inkscape:vp_y="0 : 1000 : 0"
       inkscape:vp_x="0 : 0.5 : 1"
       sodipodi:type="inkscape:persp3d" />
    <inkscape:perspective
       id="perspective9811"
       inkscape:persp3d-origin="0.5 : 0.33333333 : 1"
       inkscape:vp_z="1 : 0.5 : 1"
       inkscape:vp_y="0 : 1000 : 0"
       inkscape:vp_x="0 : 0.5 : 1"
       sodipodi:type="inkscape:persp3d" />
    <inkscape:perspective
       id="perspective4762"
       inkscape:persp3d-origin="0.5 : 0.33333333 : 1"
       inkscape:vp_z="1 : 0.5 : 1"
       inkscape:vp_y="0 : 1000 : 0"
       inkscape:vp_x="0 : 0.5 : 1"
       sodipodi:type="inkscape:persp3d" />
    <linearGradient
       id="linearGradient2831">
      <stop
         id="stop2833"
         offset="0"
         style="stop-color:#264976;stop-opacity:1;" />
      <stop
         style="stop-color:#3f689d;stop-opacity:1;"
         offset="0.33333334"
         id="stop2855" />
      <stop
         id="stop2835"
         offset="1"
         style="stop-color:#5689ca;stop-opacity:0;" />
    </linearGradient>
    <linearGradient
       id="linearGradient2380">
      <stop
         id="stop2382"
         offset="0"
         style="stop-color:#8cb0d8;stop-opacity:1;" />
      <stop
         id="stop2384"
         offset="1"
         style="stop-color:#4580bf;stop-opacity:1;" />
    </linearGradient>
    <linearGradient
       id="linearGradient2682">
      <stop
         id="stop2684"
         offset="0"
         style="stop-color:#2b5b95;stop-opacity:1;" />
      <stop
         id="stop2686"
         offset="1"
         style="stop-color:#5c8fce;stop-opacity:0;" />
    </linearGradient>
    <linearGradient
       id="linearGradient2402">
      <stop
         id="stop2404"
         offset="0"
         style="stop-color:#4580bf;stop-opacity:1;" />
      <stop
         id="stop2406"
         offset="1"
         style="stop-color:#376da5;stop-opacity:1;" />
    </linearGradient>
    <linearGradient
       inkscape:collect="always"
       xlink:href="#linearGradient6064"
       id="linearGradient6066"
       x1="3.5418944"
       y1="22.274975"
       x2="9.8387694"
       y2="22.274975"
       gradientUnits="userSpaceOnUse" />
  </defs>
  <sodipodi:namedview
     id="base"
     pagecolor="#ffffff"
     bordercolor="#666666"
     borderopacity="1.0"
     inkscape:pageopacity="0.0"
     inkscape:pageshadow="2"
     inkscape:zoom="22.627417"
     inkscape:cx="2.3600278"
     inkscape:cy="8.0988631"
     inkscape:current-layer="layer2"
     showgrid="false"
     inkscape:grid-bbox="true"
     inkscape:document-units="px"
     borderlayer="false"
     inkscape:window-width="2560"
     inkscape:window-height="1373"
     inkscape:window-x="1791"
     inkscape:window-y="721"
     inkscape:window-maximized="1"
     inkscape:snap-global="false"
     showguides="false"
     inkscape:guide-bbox="true"
     inkscape:snap-object-midpoints="true"
     inkscape:snap-grids="false"
     inkscape:snap-others="false">
    <inkscape:grid
       type="xygrid"
       id="grid5700"
       empspacing="5"
       visible="true"
       enabled="true"
       snapvisiblegridlinesonly="true"
       dotted="true"
       originx="2.5"
       originy="2.5"
       spacingx="1"
       spacingy="1" />
  </sodipodi:namedview>
  <metadata
     id="metadata5697">
    <rdf:RDF>
      <cc:Work
         rdf:about="">
        <dc:format>image/svg+xml</dc:format>
        <dc:type
           rdf:resource="http://purl.org/dc/dcmitype/StillImage" />
        <dc:title>GIS icon theme 0.2</dc:title>
        <dc:creator>
          <cc:Agent>
            <dc:title>Arnaud Morvan</dc:title>
          </cc:Agent>
        </dc:creator>
        <dc:rights>
          <cc:Agent>
            <dc:title>Arnaud Morvan</dc:title>
          </cc:Agent>
        </dc:rights>
        <dc:subject>
          <rdf:Bag>
            <rdf:li>GIS icons</rdf:li>
          </rdf:Bag>
        </dc:subject>
        <dc:coverage>GIS icons</dc:coverage>
        <dc:description />
        <cc:license
           rdf:resource="http://creativecommons.org/licenses/by-sa/3.0/" />
      </cc:Work>
      <cc:License
         rdf:about="http://creativecommons.org/licenses/by-sa/3.0/">
        <cc:permits
           rdf:resource="http://creativecommons.org/ns#Reproduction" />
        <cc:permits
           rdf:resource="http://creativecommons.org/ns#Distribution" />
        <cc:requires
           rdf:resource="http://creativecommons.org/ns#Notice" />
        <cc:requires
           rdf:resource="http://creativecommons.org/ns#Attribution" />
        <cc:permits
           rdf:resource="http://creativecommons.org/ns#DerivativeWorks" />
        <cc:requires
           rdf:resource="http://creativecommons.org/ns#ShareAlike" />
      </cc:License>
    </rdf:RDF>
  </metadata>
  <g
     inkscape:groupmode="layer"
     id="layer2"
     inkscape:label="Layer"
     style="display:inline"
     transform="translate(0,-8)">
    <g
       id="g4262"
       transform="matrix(0.96745638,0,0,0.96332054,-8.7444483,2.9157373)"
       style="stroke-width:1.18979478">
      <path
         style="fill:#56fa90;stroke-width:1.18979478"
         d="m 16.603761,22.612871 c -0.274597,-0.03872 -0.598115,-0.118157 -0.718929,-0.176528 -0.120813,-0.05837 -0.286605,-0.106129 -0.368426,-0.106129 -0.256087,0 -1.116039,-0.315988 -1.842318,-0.676959 -4.3988096,-2.186267 -6.0098459,-8.116905 -3.327635,-12.24988 0.14935,-0.230131 0.309927,-0.499304 0.356839,-0.598163 0.04691,-0.09886 0.171382,-0.265033 0.276601,-0.369276 0.443728,-0.439609 1.032534,-0.98658 1.248721,-1.159997 0.127663,-0.102407 0.328238,-0.267827 0.445723,-0.367602 0.117484,-0.099778 0.29157,-0.2198017 0.386858,-0.266727 0.09529,-0.046925 0.39376,-0.1957607 0.663271,-0.3307442 0.675638,-0.3383915 1.274088,-0.5676329 1.882711,-0.7211891 0.283696,-0.071572 0.597051,-0.1528 0.696345,-0.1804965 0.462697,-0.1290623 1.483404,-0.1734069 1.975103,-0.085806 0.261249,0.046542 0.649086,0.098538 0.861858,0.1155552 0.757209,0.060544 2.187109,0.5324525 2.579056,0.8511655 0.07093,0.057671 0.254159,0.1633313 0.40719,0.2347989 0.429258,0.2004714 0.666422,0.3829645 1.355465,1.0430025 0.350329,0.335583 0.672355,0.631823 0.715613,0.658309 0.09052,0.05543 0.461855,0.505038 0.461855,0.559218 0,0.01991 0.08939,0.168396 0.198656,0.329964 0.401759,0.594099 0.906017,1.6252547 1.064343,2.1764717 0.266544,0.927982 0.322339,1.217694 0.390793,2.029183 0.248761,2.948949 -0.894933,5.542623 -3.31648,7.521125 -0.445755,0.3642 -1.093244,0.7641 -1.277435,0.788967 -0.04255,0.0057 -0.297881,0.116338 -0.567393,0.245763 -1.27293,0.611284 -3.209909,0.924707 -4.548385,0.735976 z"
         id="path4248"
         inkscape:connector-curvature="0" />
      <path
         style="fill:#f4e801;stroke-width:1.18979478"
         d="m 17.158787,22.646461 c -0.01523,-0.02465 -0.2081,-0.0608 -0.428587,-0.08033 -0.220488,-0.01954 -0.528551,-0.08266 -0.684584,-0.140291 -0.156033,-0.05763 -0.390273,-0.112515 -0.520534,-0.121972 -0.358325,-0.02602 -0.976554,-0.248091 -1.739796,-0.624966 -2.57729,-1.272616 -4.3638454,-3.858399 -4.6818893,-6.776364 -0.050572,-0.463985 -0.034488,-1.993674 0.022075,-2.099361 0.032921,-0.06151 0.059858,-0.171775 0.059858,-0.245023 0,-1.162086 1.1361203,-3.435942 2.2868353,-4.576927 1.369095,-1.3575151 3.189261,-2.3173972 4.633983,-2.443775 0.104216,-0.00907 0.278302,-0.039123 0.38686,-0.066693 0.457559,-0.1161822 1.249702,-0.1758353 1.499546,-0.1129241 0.133674,0.033659 0.545293,0.093488 0.914708,0.1329614 1.275563,0.136284 3.182449,0.8287432 2.67043,0.9697298 -0.04965,0.013669 0.006,0.012772 0.123805,-0.00202 0.477855,-0.059919 2.237996,1.3298884 2.887607,2.2800554 0.592842,0.867131 0.808531,1.247543 1.045335,1.8436645 0.328485,0.82691 0.491644,1.44557 0.656466,2.489149 0.351902,2.228091 -0.70183,5.229099 -2.455406,6.992949 -0.733423,0.737719 -1.949094,1.598999 -2.148785,1.522371 -0.04108,-0.01576 -0.195564,0.03926 -0.343309,0.122283 -0.638644,0.358848 -1.563241,0.636138 -2.678288,0.803228 -0.291755,0.04372 -0.538201,0.10189 -0.547657,0.129268 -0.02138,0.06189 -0.920607,0.06654 -0.958671,0.0049 z m 2.168039,-1.322688 c 0.126465,-0.04014 0.01788,-0.142274 -0.410056,-0.385697 -0.623972,-0.354935 -0.851958,-0.505728 -1.229761,-0.813374 -0.721523,-0.58754 -0.82953,-0.63721 -0.567794,-0.261111 0.418109,0.600795 1.410481,1.413684 1.814944,1.486688 0.17549,0.03167 0.218505,0.02877 0.392667,-0.0265 z m 5.861015,-5.443662 c 0.251799,-0.310958 0.109452,-0.385097 -1.172943,-0.610899 -0.510653,-0.08992 -1.235243,-0.223585 -1.610201,-0.297044 -0.745013,-0.145957 -0.839902,-0.139056 -0.839902,0.06109 0,0.389945 0.202224,0.475741 1.702177,0.722162 0.800783,0.131557 1.366582,0.239482 1.39269,0.265653 0.06414,0.06429 0.444084,-0.03711 0.528179,-0.140964 z M 14.867979,7.771446 c 0.170587,-0.14894 0.463528,-0.406323 0.65098,-0.571961 0.99644,-0.8804902 1.415607,-1.0204758 2.731174,-0.9121051 0.808598,0.066613 1.197243,0.031764 1.525509,-0.1367557 0.341587,-0.1753636 0.01445,-0.292947 -1.27814,-0.4594094 C 16.97227,5.4947939 16.805812,5.5577696 15.52703,6.815029 14.587545,7.738702 14.107365,8.435541 14.867979,7.771446 Z"
         id="path4246"
         inkscape:connector-curvature="0" />
      <path
         style="fill:#f39c01;stroke-width:1.18979478"
         d="m 17.158787,22.646461 c -0.01523,-0.02465 -0.2081,-0.0608 -0.428587,-0.08033 -0.220488,-0.01954 -0.528551,-0.08266 -0.684584,-0.140291 -0.156033,-0.05763 -0.390273,-0.112515 -0.520534,-0.121972 -0.358325,-0.02602 -0.976554,-0.248091 -1.739796,-0.624966 -2.57729,-1.272616 -4.3638454,-3.858399 -4.6818893,-6.776364 -0.050572,-0.463985 -0.034488,-1.993674 0.022075,-2.099361 0.032921,-0.06151 0.059858,-0.169541 0.059858,-0.240059 0,-0.35351 0.3678275,-1.59116 0.5947978,-2.001352 0.041666,-0.0753 0.075757,-0.168341 0.075757,-0.206755 0,-0.03842 0.096219,-0.220524 0.2138195,-0.40469 0.117601,-0.184166 0.247119,-0.389087 0.287818,-0.455379 0.155329,-0.253011 0.121742,-0.05036 -0.0388,0.234108 -0.3514038,0.622653 -0.7528183,1.993024 -0.8468503,2.891024 -0.033757,0.322382 -0.033757,0.322382 0.8147473,0.322382 0.938411,0 0.873861,0.04552 0.987284,-0.696346 0.09827,-0.642754 0.696706,-2.302131 1.062589,-2.946402 0.231491,-0.407624 0.264571,-0.391277 -0.75269,-0.371945 -0.496497,0.0095 -0.902611,0.0055 -0.902477,-0.0087 6.22e-4,-0.06565 0.214888,-0.366784 0.3722,-0.523097 0.174355,-0.173248 0.174355,-0.173248 0.868153,-0.173248 0.693798,0 0.693798,0 0.708227,-0.625263 0.01189,-0.515257 0.03004,-0.638778 0.103163,-0.702081 0.150233,-0.1300624 0.578469,-0.3613936 0.583597,-0.3152576 0.0027,0.023972 0.002,0.2524904 -0.0014,0.5078176 -0.0088,0.650886 0.02302,0.669648 0.387818,0.22873 0.833933,-1.0079152 1.804414,-1.7329479 2.383995,-1.7810174 0.122083,-0.010121 0.307774,-0.040151 0.412648,-0.066724 0.452459,-0.1146439 1.244675,-0.1736135 1.492852,-0.1111217 0.133674,0.033659 0.545293,0.093488 0.914708,0.1329614 0.947354,0.1012175 1.720662,0.3239893 2.505856,0.7218765 0.247529,0.1254322 0.33041,0.230562 0.181768,0.230562 -0.04019,0 -0.08091,0.023518 -0.09049,0.052258 -0.0096,0.02874 -0.342277,0.186546 -0.739329,0.3506809 -0.654407,0.270522 -1.684856,0.841585 -2.135559,1.183499 -0.272456,0.206693 -0.14107,0.221832 1.793938,0.206688 1.734536,-0.01358 1.734536,-0.01358 1.741201,-0.811004 0.0076,-0.9050908 0.0033,-0.8980999 0.382959,-0.6331428 0.28093,0.1960748 0.28093,0.1960748 0.30672,0.8133248 0.02579,0.617249 0.02579,0.617249 0.65183,0.617249 0.696393,0 0.713116,0.0068 1.006318,0.407493 0.233768,0.319493 0.241752,0.316339 -0.755412,0.298423 -0.902736,-0.01622 -0.902736,-0.01622 -0.902736,1.9987683 0,2.014987 0,2.014987 0.193429,2.021071 0.394523,0.01241 2.825138,-0.01718 2.854012,-0.03474 0.236886,-0.144072 -0.538746,-2.75382 -1.067293,-3.5910933 -0.141054,-0.223445 -0.156705,-0.289252 -0.04717,-0.198347 0.53708,0.445736 1.243487,2.3000953 1.503604,3.9470463 0.351902,2.228092 -0.70183,5.2291 -2.455406,6.992949 -0.733423,0.73772 -1.949094,1.599 -2.148785,1.522372 -0.04108,-0.01576 -0.195564,0.03926 -0.343309,0.122283 -0.638644,0.358848 -1.563241,0.636138 -2.678288,0.803228 -0.291755,0.04372 -0.538201,0.10189 -0.547657,0.129268 -0.02138,0.06189 -0.920607,0.06654 -0.958671,0.0049 z m 2.168039,-1.322688 c 0.126465,-0.04014 0.01788,-0.142274 -0.410056,-0.385697 -0.623972,-0.354935 -0.851958,-0.505728 -1.229761,-0.813374 -0.721523,-0.58754 -0.82953,-0.63721 -0.567794,-0.261111 0.418109,0.600795 1.410481,1.413684 1.814944,1.486688 0.17549,0.03167 0.218505,0.02877 0.392667,-0.0265 z m 5.861015,-5.443662 c 0.251799,-0.310958 0.109452,-0.385097 -1.172943,-0.610899 -0.510653,-0.08992 -1.235243,-0.223585 -1.610201,-0.297044 -0.745013,-0.145957 -0.839902,-0.139056 -0.839902,0.06109 0,0.389945 0.202224,0.475741 1.702177,0.722162 0.800783,0.131557 1.366582,0.239482 1.39269,0.265653 0.06414,0.06429 0.444084,-0.03711 0.528179,-0.140964 z m -14.25268,-1.024416 c 0.02341,-0.04516 0.05894,-0.320031 0.07896,-0.61082 0.0364,-0.528705 0.0364,-0.528705 -0.774701,-0.528705 -0.8766935,0 -0.9401208,0.08348 -0.6662903,0.876878 0.04406,0.127663 0.090641,0.262382 0.1035114,0.299376 0.03745,0.107642 1.2013019,0.07368 1.2585229,-0.03673 z m 6.398168,-0.0013 c 0.02937,-0.05487 0.0534,-0.333411 0.0534,-0.618972 0,-0.519202 0,-0.519202 -0.650356,-0.519202 -0.648499,0 -0.650274,3.1e-4 -0.621857,0.116057 0.01568,0.06383 0.0446,0.243721 0.06426,0.399754 0.04226,0.335152 0.189151,0.653023 0.317196,0.686391 0.279405,0.07281 0.784804,0.03416 0.837355,-0.06402 z m 2.941283,-0.01629 c 0.02679,-0.06383 0.07235,-0.210009 0.101234,-0.324839 0.123058,-0.489196 0.344037,-0.549507 1.48554,-0.405451 0.270801,0.03417 0.270801,0.03417 0.270801,-0.178712 0,-0.212887 0,-0.212887 -2.011663,-0.212887 -2.011663,0 -2.011663,0 -2.011663,0.584586 0,0.321522 0.01547,0.60006 0.03439,0.618973 0.109733,0.109733 2.082758,0.03413 2.131364,-0.08167 z m 5.47974,-0.180534 c 0.04348,-0.04965 0.09468,-0.206324 0.11376,-0.348173 0.01908,-0.141847 0.04772,-0.333343 0.06363,-0.425544 0.02893,-0.167638 0.02893,-0.167638 -1.524247,-0.167638 -1.553174,0 -1.553174,0 -1.552384,0.219219 0.0013,0.35616 0.02284,0.36716 0.979251,0.499553 0.501191,0.06938 1.6217,0.268113 1.646298,0.291988 0.05245,0.05091 0.201396,0.01315 0.27369,-0.0694 z m -8.353244,-3.275447 c 0.04247,-2.138536 0.01715,-2.210223 -0.446366,-1.263737 -0.430898,0.879883 -0.689799,1.714832 -0.786279,2.535731 -0.03389,0.288335 -0.03389,0.288335 0.583885,0.288335 0.617774,0 0.617774,0 0.64876,-1.560329 z m 4.749045,1.212156 c 0.01809,-0.191495 0.03304,-1.097009 0.03325,-2.012255 3.67e-4,-1.664083 3.67e-4,-1.664083 -2.049983,-1.650595 -2.050349,0.01349 -2.050349,0.01349 -2.052588,1.638292 -0.0012,0.893642 0.0064,1.793088 0.01713,1.998768 0.01937,0.373963 0.01937,0.373963 2.019338,0.373963 1.999973,0 1.999973,0 2.032856,-0.348173 z M 14.867979,7.771446 c 0.170587,-0.14894 0.463528,-0.406323 0.65098,-0.571961 0.99644,-0.8804902 1.415607,-1.0204758 2.731174,-0.9121051 0.808598,0.066613 1.197243,0.031764 1.525509,-0.1367557 0.341587,-0.1753636 0.01445,-0.292947 -1.27814,-0.4594094 C 16.97227,5.4947939 16.805812,5.5577696 15.52703,6.815029 14.587545,7.738702 14.107365,8.435541 14.867979,7.771446 Z"
         id="path4244"
         inkscape:connector-curvature="0" />
      <path
         style="fill:#0be456;stroke-width:1.18979478"
         d="m 17.158787,22.646461 c -0.01523,-0.02465 -0.2081,-0.0608 -0.428587,-0.08033 -0.220488,-0.01954 -0.528551,-0.08266 -0.684584,-0.140291 -0.156033,-0.05763 -0.390273,-0.112515 -0.520534,-0.121972 -0.358325,-0.02602 -0.976554,-0.248091 -1.739796,-0.624966 -2.57729,-1.272616 -4.3638454,-3.858399 -4.6818893,-6.776364 -0.051446,-0.472012 -0.035059,-2.018467 0.021994,-2.075521 0.032966,-0.03296 0.060445,-0.119126 0.061066,-0.191469 0.00124,-0.144506 0.2605047,-1.178011 0.3550453,-1.415318 0.1146059,-0.287673 0.1084463,-0.09308 -0.015491,0.489372 -0.2932712,1.378264 -0.3500237,1.295224 0.870288,1.27339 0.958228,-0.01715 0.830146,0.09313 1.005682,-0.865834 0.141009,-0.770341 0.485995,-1.797134 0.857716,-2.552852 0.365183,-0.742425 0.400862,-0.706951 -0.688743,-0.684811 -0.942504,0.01915 -0.933282,0.02387 -0.653949,-0.334664 0.242746,-0.311576 0.246649,-0.312753 1.053703,-0.317742 0.696345,-0.0043 0.696345,-0.0043 0.696345,-0.633787 0,-0.702287 -0.0088,-0.682159 0.399753,-0.9162909 0.245011,-0.140416 0.245011,-0.140416 0.2458,0.3931919 0.0011,0.720063 0.01462,0.727433 0.426919,0.232175 0.880263,-1.057377 1.757789,-1.7177839 2.347526,-1.7666961 0.122082,-0.010121 0.307774,-0.040151 0.412648,-0.066724 0.452459,-0.1146439 1.244675,-0.1736135 1.492852,-0.1111217 0.133674,0.033659 0.545293,0.093488 0.914708,0.1329614 0.947353,0.1012175 1.720662,0.3239892 2.505856,0.7218765 0.247529,0.1254322 0.33041,0.230562 0.181768,0.230562 -0.04019,0 -0.08105,0.023931 -0.0908,0.053185 -0.0098,0.029254 -0.330289,0.1809966 -0.712306,0.337213 -0.671049,0.2744082 -2.056187,1.0521402 -2.244547,1.2602742 -0.136971,0.151352 -0.03317,0.159251 1.882779,0.14328 1.727969,-0.01441 1.727969,-0.01441 1.742173,-0.826805 0.0079,-0.446822 0.03286,-0.8124029 0.05566,-0.8124029 0.0228,0 0.167286,0.088064 0.321072,0.1956891 0.279611,0.1956898 0.279611,0.1956898 0.279611,0.8124028 0,0.616713 0,0.616713 0.652183,0.616713 0.579065,0 0.665209,0.01156 0.768372,0.103162 0.12368,0.109813 0.410569,0.484647 0.410582,0.536446 4e-6,0.01702 -0.412,0.03095 -0.915565,0.03095 -0.915572,0 -0.915572,0 -0.915572,2.0374557 0,2.037453 0,2.037453 1.495852,2.051909 1.982666,0.01916 1.825071,0.132598 1.560768,-1.12345 -0.147769,-0.702246 -0.162534,-0.808031 -0.104389,-0.747926 0.07248,0.07492 0.365863,1.137487 0.405904,1.470062 0.01878,0.156033 0.05133,0.306908 0.07232,0.335277 0.02099,0.02837 0.04624,0.214061 0.05612,0.412649 0.150155,3.020249 -1.069864,5.748494 -3.362743,7.519869 -0.529209,0.408842 -1.161713,0.77743 -1.265649,0.737546 -0.04108,-0.01576 -0.195564,0.03926 -0.343309,0.122283 -0.638644,0.358848 -1.563241,0.636139 -2.678288,0.803228 -0.291755,0.04372 -0.538201,0.10189 -0.547657,0.129268 -0.02138,0.06189 -0.920607,0.06654 -0.958671,0.0049 z m 2.168039,-1.322688 c 0.126465,-0.04014 0.01788,-0.142274 -0.410056,-0.385697 -0.623972,-0.354935 -0.851958,-0.505728 -1.229761,-0.813374 -0.721523,-0.58754 -0.82953,-0.63721 -0.567794,-0.261111 0.418109,0.600795 1.410481,1.413684 1.814944,1.486688 0.17549,0.03167 0.218505,0.02877 0.392667,-0.0265 z m -5.396129,-0.192819 c -5.1e-5,-0.03546 -0.126648,-0.203746 -0.281326,-0.373963 -0.281234,-0.309487 -0.281234,-0.309487 -0.283603,-0.03992 -0.0023,0.259845 0.0046,0.273253 0.19106,0.371684 0.223238,0.117852 0.374003,0.134868 0.373869,0.0422 z m 8.033852,-0.141283 c 0.167638,-0.102211 0.167638,-0.102211 0.167638,-1.340916 0,-1.238705 0,-1.238705 -2.011663,-1.238705 -2.011663,0 -2.011663,0 -2.011663,0.347357 0,0.347356 0,0.347356 0.348173,0.6735 1.106491,1.036479 2.990735,1.873851 3.507515,1.558764 z m -9.333561,-1.148245 c -0.02067,-0.560105 -0.02804,-0.591354 -0.211892,-0.898453 -0.104765,-0.174991 -0.190482,-0.342459 -0.190482,-0.372148 0,-0.135984 -1.3333,-0.254553 -1.458178,-0.129674 -0.126561,0.126561 1.591037,1.980562 1.834849,1.980562 0.0269,0 0.03793,-0.248888 0.0257,-0.580287 z m 10.883511,-0.02579 c 0.565218,-0.568061 1.120253,-1.269121 1.069626,-1.351038 -0.02148,-0.03477 -0.341285,-0.05455 -0.881758,-0.05455 -0.848044,0 -0.848044,0 -0.848044,0.954251 0,1.157337 -0.02517,1.140128 0.660176,0.451335 z M 11.787965,17.691489 c 0.01632,-0.0264 -0.02882,-0.222257 -0.100316,-0.435229 -0.279376,-0.832247 -0.453388,-1.91386 -0.507299,-3.153232 -0.01795,-0.41265 -0.01795,-0.41265 -0.930274,-0.426739 -1.0814681,-0.0167 -1.0013529,-0.08283 -0.9138685,0.754371 0.1312704,1.25623 0.6851195,3.060733 1.0034535,3.26936 0.08493,0.05567 1.413469,0.04783 1.448304,-0.0086 z m 5.598886,-0.867558 c 5.2e-5,-0.50356 0.01537,-1.420415 0.034,-2.037454 0.03388,-1.121889 0.03388,-1.121889 -0.704332,-1.121889 -0.738211,0 -0.738211,0 -0.704009,0.580287 0.07174,1.21721 0.762501,3.366828 1.112075,3.460734 0.271368,0.07289 0.262125,0.103969 0.262261,-0.881678 z m 4.771128,0.555487 c 0,-0.334285 0,-0.334285 -0.644765,-0.529579 -0.876397,-0.265452 -0.825298,-0.174982 -0.825298,-1.461183 0,-1.174033 0.01127,-1.207672 0.381038,-1.137335 1.146343,0.218054 1.074548,0.234395 1.105493,-0.251599 0.02134,-0.335134 0.02134,-0.335134 -2.047914,-0.335134 -2.069254,0 -2.069254,0 -2.069254,1.955864 0,1.075725 0.01419,1.992846 0.03154,2.038047 0.02824,0.07358 0.242984,0.08077 2.050349,0.0687 2.018814,-0.01349 2.018814,-0.01349 2.018814,-0.347777 z m 2.041594,0.282706 c 0.0055,-0.07437 -0.07026,-0.10241 -0.681825,-0.252336 -0.699191,-0.171407 -0.663425,-0.17675 -0.663425,0.09909 0,0.233611 0,0.233611 0.670712,0.219219 0.399822,-0.0086 0.672257,-0.03522 0.674538,-0.06598 z m 0.988268,-1.782013 c 0.251799,-0.310958 0.109452,-0.385097 -1.172943,-0.610899 -0.510653,-0.08992 -1.235243,-0.223585 -1.610201,-0.297044 -0.745013,-0.145957 -0.839902,-0.139056 -0.839902,0.06109 0,0.389945 0.202224,0.475741 1.702177,0.722162 0.800783,0.131557 1.366582,0.239482 1.39269,0.265653 0.06414,0.06429 0.444084,-0.03711 0.528179,-0.140964 z m 0.695525,-0.893814 c 0.11215,-0.142574 0.264065,-1.195682 0.184028,-1.275719 -0.02751,-0.02751 -0.719182,-0.04176 -1.643185,-0.03385 -1.595676,0.01366 -1.595676,0.01366 -1.589125,0.379155 0.0082,0.454152 0.07259,0.588751 0.281909,0.588751 0.08573,0 0.2532,0.02248 0.372148,0.04995 0.118948,0.02747 0.541232,0.10983 0.938406,0.183017 0.397175,0.07318 0.803376,0.152761 0.90267,0.176832 0.321063,0.07783 0.450911,0.06184 0.553149,-0.06814 z m -8.45724,-3.648435 c 0.01732,-2.074192 0.0066,-2.137185 -0.287994,-1.685104 -0.54598,0.838003 -1.087668,2.382934 -1.091649,3.113459 -0.0012,0.229452 0.0077,0.232149 0.718436,0.216388 0.647597,-0.01436 0.647597,-0.01436 0.661207,-1.644743 z m 4.731853,-0.407072 c 0,-2.037455 0,-2.037455 -2.037455,-2.037455 -2.037454,0 -2.037454,0 -2.050974,1.985731 -0.0075,1.092151 -0.0022,2.015078 0.0115,2.050948 0.01971,0.05136 0.45555,0.06235 2.050974,0.05172 2.025948,-0.0135 2.025948,-0.0135 2.025948,-2.050949 z m -7.29,-3.159344 c 0.170587,-0.14894 0.463528,-0.406323 0.65098,-0.571961 0.99644,-0.8804902 1.415607,-1.0204758 2.731174,-0.9121051 0.808598,0.066613 1.197243,0.031764 1.525509,-0.1367557 0.341587,-0.1753636 0.01445,-0.292947 -1.27814,-0.4594094 C 16.97227,5.4947939 16.805812,5.5577696 15.52703,6.815029 14.587545,7.738702 14.107365,8.435541 14.867979,7.771446 Z"
         id="path4242"
         inkscape:connector-curvature="0" />
      <path
         style="fill:#ad6707;stroke-width:1.18979478"
         d="m 17.158787,22.646461 c -0.01523,-0.02465 -0.2081,-0.0608 -0.428587,-0.08033 -0.220488,-0.01954 -0.528551,-0.08266 -0.684584,-0.140291 -0.156033,-0.05763 -0.390273,-0.112515 -0.520534,-0.121972 -0.358325,-0.02602 -0.976554,-0.248091 -1.739796,-0.624966 -2.57729,-1.272616 -4.3638454,-3.858399 -4.6818893,-6.776364 -0.051446,-0.472012 -0.035059,-2.018467 0.021994,-2.075521 0.032966,-0.03296 0.060445,-0.119126 0.061066,-0.191469 0.00124,-0.144506 0.2605047,-1.178011 0.3550453,-1.415318 0.1146059,-0.287673 0.1084463,-0.09308 -0.015491,0.489372 -0.2932712,1.378264 -0.3500237,1.295224 0.870288,1.27339 0.958228,-0.01715 0.830146,0.09313 1.005682,-0.865834 0.141009,-0.770341 0.485995,-1.797134 0.857716,-2.552852 0.365183,-0.742425 0.400862,-0.706951 -0.688743,-0.684811 -0.942504,0.01915 -0.933282,0.02387 -0.653949,-0.334664 0.242746,-0.311576 0.246649,-0.312753 1.053703,-0.317742 0.696345,-0.0043 0.696345,-0.0043 0.696345,-0.633787 0,-0.702287 -0.0088,-0.682159 0.399753,-0.9162909 0.245011,-0.140416 0.245011,-0.140416 0.2458,0.3931919 10e-4,0.70417 0.02383,0.727074 0.335881,0.337661 0.651771,-0.8133426 1.596864,-1.6351877 2.056183,-1.7880402 0.442746,-0.1473353 0.527229,-0.1134604 0.20757,0.083226 -0.59607,0.3667653 -1.995688,1.7283775 -2.431003,2.3649885 -0.976385,1.427886 -1.520037,2.6078307 -1.568532,3.4043537 -0.0069,0.113479 -0.03937,0.241142 -0.07213,0.283696 -0.147069,0.191033 -0.251372,0.682787 -0.159129,0.750238 0.07506,0.05489 0.08184,0.127477 0.05104,0.546304 -0.047,0.639019 -0.03765,0.87171 0.05359,1.334095 0.04198,0.212772 0.11315,0.630579 0.158143,0.92846 0.371768,2.461303 1.8578,4.900354 3.828601,6.283951 0.583382,0.409564 1.645295,0.5043 2.980804,0.265929 0.541246,-0.0966 1.726889,-0.203985 2.262989,-0.204951 0.844118,-0.0015 -0.917418,0.639763 -2.334571,0.849896 -0.301066,0.04464 -0.555129,0.10369 -0.564585,0.13122 -0.02132,0.06209 -0.920501,0.06698 -0.958671,0.0052 z m -3.22809,-1.515507 c -5.1e-5,-0.03546 -0.126648,-0.203746 -0.281326,-0.373963 -0.281234,-0.309487 -0.281234,-0.309487 -0.283603,-0.03992 -0.0023,0.259845 0.0046,0.273253 0.19106,0.371684 0.223238,0.117852 0.374003,0.134868 0.373869,0.0422 z m -1.299709,-1.289528 c -0.02067,-0.560105 -0.02804,-0.591354 -0.211892,-0.898453 -0.104765,-0.174991 -0.190482,-0.342459 -0.190482,-0.372148 0,-0.135984 -1.3333,-0.254553 -1.458178,-0.129674 -0.126561,0.126561 1.591037,1.980562 1.834849,1.980562 0.0269,0 0.03793,-0.248888 0.0257,-0.580287 z m -0.843023,-2.149937 c 0.01632,-0.0264 -0.02882,-0.222257 -0.100316,-0.435229 -0.279376,-0.832247 -0.453388,-1.91386 -0.507299,-3.153232 -0.01795,-0.41265 -0.01795,-0.41265 -0.930274,-0.426739 -1.0814681,-0.0167 -1.0013529,-0.08283 -0.9138685,0.754371 0.1312704,1.25623 0.6851195,3.060733 1.0034535,3.26936 0.08493,0.05567 1.413469,0.04783 1.448304,-0.0086 z m -0.143089,-5.016613 c -0.01647,-0.04115 -0.02869,-0.02892 -0.03116,0.03117 -0.0022,0.05438 0.0099,0.08484 0.02709,0.0677 0.01714,-0.01714 0.01897,-0.06163 0.0041,-0.09886 z m 9.661271,8.807436 c -2.112134,-0.648246 -3.954111,-2.159178 -4.701811,-3.856792 -0.116085,-0.263564 -0.230371,-0.503728 -0.253967,-0.533698 -0.106027,-0.13466 -0.501469,-1.216228 -0.555278,-1.518733 -0.117669,-0.661514 -0.263209,-1.425108 -0.342027,-1.79449 -0.211927,-0.993206 0.355573,-3.143834 1.173411,-4.446824 0.696707,-1.110001 1.43196,-1.793887 2.702941,-2.5141059 0.740641,-0.4196936 2.228616,-0.7000479 2.112735,-0.3980667 -0.01588,0.041371 -5.77e-4,0.075917 0.03399,0.076784 0.104193,0.00262 -0.101522,0.1026621 -0.751088,0.3653375 -0.599627,0.242482 -1.998341,1.033855 -2.177828,1.232184 -0.136971,0.151352 -0.03317,0.159251 1.882779,0.14328 1.727969,-0.01441 1.727969,-0.01441 1.742173,-0.826805 0.0079,-0.446822 0.03286,-0.8124029 0.05566,-0.8124029 0.0228,0 0.167286,0.088064 0.321072,0.1956891 0.279611,0.1956898 0.279611,0.1956898 0.279611,0.8124028 0,0.616713 0,0.616713 0.652183,0.616713 0.579065,0 0.665209,0.01156 0.768372,0.103162 0.12368,0.109813 0.410569,0.484647 0.410582,0.536446 4e-6,0.01702 -0.412,0.03095 -0.915565,0.03095 -0.915572,0 -0.915572,0 -0.915572,2.0374551 0,2.037453 0,2.037453 1.495852,2.051909 1.982666,0.01916 1.825071,0.132598 1.560768,-1.12345 -0.147769,-0.702246 -0.162534,-0.808031 -0.104389,-0.747926 0.07248,0.07492 0.365863,1.137487 0.405904,1.470062 0.01878,0.156033 0.05118,0.306908 0.07198,0.335277 0.02081,0.02837 0.04144,0.182881 0.04588,0.343359 0.0044,0.160477 0.01887,0.398685 0.03209,0.529351 0.03264,0.322551 -0.06035,1.416689 -0.127254,1.497302 -0.04326,0.05212 -0.107427,0.05095 -0.324677,-0.0059 -0.427869,-0.112002 -2.620757,-0.51467 -3.159306,-0.580127 -0.198587,-0.02413 -0.419096,-0.06832 -0.490021,-0.09817 -0.29081,-0.122429 -1.34681,-0.275213 -1.429258,-0.206787 -0.110866,0.09201 -0.05755,0.588523 0.07662,0.713521 0.0538,0.05012 0.136402,0.228663 0.183569,0.396763 0.151837,0.54114 0.246505,0.58863 2.303852,1.155712 0.56106,0.15465 0.818807,0.253835 1.031622,0.396983 0.541266,0.36408 0.612541,0.331465 1.00761,-0.461081 0.698244,-1.400743 0.872364,-0.933573 0.254729,0.683446 -0.509152,1.332997 -1.491265,2.625287 -2.711734,3.568167 -0.415763,0.321199 -1.128388,0.763098 -1.218345,0.755495 -0.02215,-0.0019 -0.214688,-0.05693 -0.427869,-0.122363 z m 0.658402,-0.492641 c 0.167638,-0.102211 0.167638,-0.102211 0.167638,-1.340916 0,-1.238705 0,-1.238705 -2.011663,-1.238705 -2.011663,0 -2.011663,0 -2.011663,0.347357 0,0.347356 0,0.347356 0.348173,0.6735 1.106491,1.036479 2.990735,1.873851 3.507515,1.558764 z m 1.54995,-1.174035 c 0.565218,-0.568062 1.120253,-1.269122 1.069626,-1.351038 -0.02148,-0.03477 -0.341285,-0.05455 -0.881758,-0.05455 -0.848044,0 -0.848044,0 -0.848044,0.954251 0,1.157337 -0.02517,1.140128 0.660176,0.451335 z m -6.127648,-2.991705 c 5.2e-5,-0.50356 0.01537,-1.420415 0.034,-2.037454 0.03388,-1.121889 0.03388,-1.121889 -0.704332,-1.121889 -0.738211,0 -0.738211,0 -0.704009,0.580287 0.07174,1.21721 0.762501,3.366828 1.112075,3.460734 0.271368,0.07289 0.262125,0.103969 0.262261,-0.881678 z m 4.771128,0.555487 c 0,-0.334285 0,-0.334285 -0.644765,-0.529579 -0.876397,-0.265452 -0.825298,-0.174982 -0.825298,-1.461183 0,-1.174033 0.01127,-1.207672 0.381038,-1.137335 1.146343,0.218054 1.074548,0.234395 1.105493,-0.251599 0.02134,-0.335134 0.02134,-0.335134 -2.047914,-0.335134 -2.069254,0 -2.069254,0 -2.069254,1.955864 0,1.075725 0.01419,1.992846 0.03154,2.038047 0.02824,0.07358 0.242984,0.08077 2.050349,0.0687 2.018814,-0.01349 2.018814,-0.01349 2.018814,-0.347777 z m 2.041594,0.282706 c 0.0055,-0.07437 -0.07026,-0.10241 -0.681825,-0.252336 -0.699191,-0.171407 -0.663425,-0.17675 -0.663425,0.09909 0,0.233611 0,0.233611 0.670712,0.219219 0.399822,-0.0086 0.672257,-0.03522 0.674538,-0.06598 z m 1.683793,-2.675827 c 0.11215,-0.142574 0.264065,-1.195682 0.184028,-1.275719 -0.02751,-0.02751 -0.719182,-0.04176 -1.643185,-0.03385 -1.595676,0.01366 -1.595676,0.01366 -1.589125,0.379155 0.0082,0.454152 0.07259,0.588751 0.281909,0.588751 0.08573,0 0.2532,0.02248 0.372148,0.04995 0.118948,0.02747 0.541232,0.10983 0.938406,0.183017 0.397175,0.07318 0.803376,0.152761 0.90267,0.176832 0.321063,0.07783 0.450911,0.06184 0.553149,-0.06814 z m -8.45724,-3.648435 c 0.01732,-2.074192 0.0066,-2.137185 -0.287994,-1.685104 -0.54598,0.838003 -1.087668,2.382934 -1.091649,3.113459 -0.0012,0.229452 0.0077,0.232149 0.718436,0.216388 0.647597,-0.01436 0.647597,-0.01436 0.661207,-1.644743 z m 4.731853,-0.407072 c 0,-2.037455 0,-2.037455 -2.037455,-2.037455 -2.037454,0 -2.037454,0 -2.050974,1.985731 -0.0075,1.092151 -0.0022,2.015078 0.0115,2.050948 0.01971,0.05136 0.45555,0.06235 2.050974,0.05172 2.025948,-0.0135 2.025948,-0.0135 2.025948,-2.050949 z"
         id="path4240"
         inkscape:connector-curvature="0" />
      <path
         style="fill:#095e22;stroke-width:1.18979478"
         d="m 17.158787,22.646461 c -0.01523,-0.02465 -0.2081,-0.0608 -0.428587,-0.08033 -0.927944,-0.0822 -1.935141,-0.801438 -3.026556,-2.161262 -0.444762,-0.554141 -0.462403,-0.542648 -0.43263,0.28187 0.02684,0.743188 0.02224,0.751124 -0.29963,0.517294 -0.316892,-0.230213 -0.345207,-0.281181 -0.282224,-0.507997 0.259418,-0.934215 -0.03313,-2.274692 -0.512127,-2.346636 -0.353499,-0.05309 -1.242912,-0.04868 -1.539899,0.0077 -0.337949,0.06409 -0.378054,0.04584 -0.514008,-0.234 -0.18268,-0.376012 -0.2257089,-0.359548 0.893271,-0.341793 1.146846,0.0182 1.068465,0.05865 0.909445,-0.469405 -0.241758,-0.802822 -0.553951,-2.879793 -0.514421,-3.422375 0.02358,-0.323648 -0.02476,-0.335426 -1.307748,-0.318615 -1.1455238,0.01501 -1.0929649,0.02938 -1.0457087,-0.285756 0.035118,-0.234186 0.035118,-0.234186 1.2179767,-0.249737 1.297546,-0.01706 1.279781,-0.01242 1.281329,-0.334891 8.64e-4,-0.180205 0.0483,-0.236953 0.147065,-0.175916 0.04781,0.02955 0.05497,0.162258 0.0283,0.525303 -0.04715,0.641995 -0.03787,0.874128 0.05344,1.336851 0.04198,0.212772 0.113149,0.630579 0.158142,0.92846 0.371768,2.461303 1.8578,4.900354 3.828601,6.283951 0.583383,0.409564 1.645295,0.5043 2.980804,0.265929 0.541246,-0.0966 1.726889,-0.203984 2.262989,-0.204951 0.843459,-0.0015 -0.916036,0.639309 -2.333519,0.849896 -0.300487,0.04464 -0.568865,0.10369 -0.596394,0.13122 -0.06212,0.06212 -0.889874,0.06678 -0.927913,0.0052 z m -5.513911,-9.971585 c -0.01647,-0.04115 -0.02869,-0.02892 -0.03116,0.03117 -0.0022,0.05438 0.0099,0.08484 0.02709,0.0677 0.01714,-0.01714 0.01897,-0.06163 0.0041,-0.09886 z m 9.365818,8.713821 c -0.715068,-0.239496 -0.561798,-0.241388 0.334882,-0.0041 0.14894,0.0394 0.270801,0.09421 0.270801,0.121792 0,0.07396 -0.07989,0.05845 -0.605683,-0.11766 z m 1.216079,-1.542138 c 0.01385,-1.167459 0.0037,-1.459392 -0.05158,-1.494483 -0.09198,-0.05831 -4.020557,-0.05626 -4.112796,0.0021 -0.08306,0.05259 -0.05491,1.007644 0.0344,1.167245 0.138291,0.247113 1.271589,1.074923 1.906754,1.392776 0.191994,0.09608 0.316618,0.17544 0.276941,0.17636 -0.114331,0.0026 -0.876579,-0.430115 -1.333361,-0.757013 -1.060274,-0.758769 -1.923987,-1.757141 -2.342806,-2.708046 -0.116085,-0.263564 -0.230371,-0.503729 -0.253967,-0.533698 -0.106027,-0.13466 -0.501469,-1.216229 -0.555278,-1.518733 -0.11767,-0.661515 -0.263209,-1.425108 -0.342027,-1.79449 -0.158012,-0.740528 0.189041,-2.452598 0.749801,-3.698898 0.914341,-2.032138 3.260084,-3.8031428 5.020515,-3.7904221 0.461166,0.00333 0.272867,0.1853988 -0.534772,0.5170695 -0.577071,0.2369836 -1.762293,0.8959576 -2.205784,1.2263996 -0.357822,0.266609 -0.335493,0.26981 1.779549,0.25513 1.947186,-0.01352 1.947186,-0.01352 1.961425,-0.80013 0.01577,-0.8707752 0.01646,-0.8721532 0.333321,-0.6568422 0.190972,0.1297692 0.190972,0.1297692 0.205403,0.7866112 0.01443,0.656843 0.01443,0.656843 0.745014,0.682634 0.730585,0.02579 0.730585,0.02579 0.889774,0.226312 0.230211,0.289982 0.240418,0.285774 -0.730585,0.301176 -0.889774,0.01411 -0.889774,0.01411 -0.889774,2.103148 0,2.089035 0,2.089035 1.717744,2.102629 1.717744,0.01359 1.717744,0.01359 1.702176,0.27515 -0.01556,0.261556 -0.01556,0.261556 -1.666162,0.256897 -1.949319,-0.0055 -1.794589,-0.05862 -1.771696,0.608251 0.01989,0.579398 -0.0045,0.608075 -0.399909,0.470443 -0.149545,-0.05206 -0.149545,-0.05206 -0.149545,-0.554497 0,-0.502446 0,-0.502446 -2.089035,-0.502446 -2.089035,0 -2.089035,0 -2.102509,2.10193 -0.01348,2.10193 -0.01348,2.10193 2.10193,2.10193 2.115404,0 2.115404,0 2.115404,-0.380542 0,-0.459119 0.02933,-0.432791 -0.722135,-0.648278 -0.779252,-0.223456 -0.722136,-0.145349 -0.722136,-0.987539 0,-0.82861 0.07547,-0.917071 0.261075,-0.306011 0.178835,0.588774 0.239733,0.620116 2.317981,1.192959 0.56106,0.15465 0.818807,0.253835 1.031622,0.396983 0.541266,0.36408 0.612541,0.331465 1.00761,-0.461081 0.68593,-1.37604 0.886363,-0.849327 0.25395,0.667345 -0.468528,1.123641 -0.777988,1.587121 -0.872426,1.30664 -0.03087,-0.09166 -0.09042,-0.188355 -0.132356,-0.214872 -0.132062,-0.08351 -1.780956,-0.06259 -1.852406,0.0235 -0.06721,0.08098 -0.05057,2.109948 0.01933,2.356669 0.03308,0.11678 0.0085,0.158633 -0.185717,0.31609 -0.457821,0.371185 -0.432552,0.445004 -0.412959,-1.20638 z m -4.798394,-1.366553 c -0.01279,-0.0625 -0.05478,-0.08957 -0.120895,-0.07794 -0.147677,0.02595 -0.154087,0.0474 -0.04889,0.163637 0.10558,0.116666 0.201325,0.06835 0.169789,-0.08568 z m 0.06151,-2.772445 c 0,-1.852312 -0.0091,-2.086991 -0.08159,-2.114825 -0.107965,-0.04143 -1.179072,-0.0392 -1.434466,0.003 -0.225905,0.03732 -0.240466,0.407655 -0.0595,1.51314 0.193316,1.180908 0.234691,1.33068 0.543688,1.968125 0.348939,0.719839 0.34112,0.712253 0.735273,0.713304 0.296591,7.86e-4 0.296591,7.86e-4 0.296591,-2.08273 z m 6.860288,2.016003 c 0,-0.03713 -0.02901,-0.103307 -0.06448,-0.147056 -0.07013,-0.08652 -1.407592,-0.425191 -1.486516,-0.376414 -0.05459,0.03374 -0.06611,0.504118 -0.01363,0.556596 0.07077,0.07077 1.564627,0.03914 1.564627,-0.03312 z M 17.4641,11.115622 c 0,-1.360945 -0.0165,-1.909703 -0.05784,-1.923482 -0.139333,-0.04644 -0.977451,1.446971 -1.107747,1.97386 -0.03466,0.140146 -0.140554,0.457036 -0.235326,0.7042 -0.166911,0.435301 -0.239192,1.03976 -0.136603,1.14235 0.01964,0.01964 0.373615,0.02932 0.786612,0.02149 0.750903,-0.01421 0.750903,-0.01421 0.750903,-1.91842 z m 4.745462,-0.184832 c 0,-2.089035 0,-2.089035 -2.089035,-2.089035 -2.089035,0 -2.089035,0 -2.102541,2.037349 -0.0075,1.120542 -0.0022,2.066674 0.0115,2.102516 0.0197,0.05132 0.466415,0.0623 2.102541,0.05168 2.077533,-0.01348 2.077533,-0.01348 2.077533,-2.102516 z m -10.52516,1.057413 c 0.01619,-0.08511 0.05037,-0.317225 0.07595,-0.515812 0.05555,-0.431255 0.309098,-1.142621 0.669413,-1.878138 0.399351,-0.815201 0.434778,-0.778289 -0.746971,-0.778289 -0.938659,0 -0.947586,-0.0039 -0.694594,-0.309487 0.1495,-0.180534 0.1495,-0.180534 0.939968,-0.206324 0.790467,-0.02579 0.790467,-0.02579 0.801154,-0.644764 0.0059,-0.340436 0.01168,-0.647151 0.0129,-0.68159 0.0025,-0.07196 0.354711,-0.3242414 0.452622,-0.3242414 0.04889,0 0.06557,0.1464543 0.0661,0.5802874 0.0011,0.945214 0.01154,0.95505 0.437735,0.414197 0.380813,-0.483263 0.995058,-1.085078 1.564829,-1.5331637 0.401457,-0.3157171 0.663917,-0.4747168 0.363629,-0.2202869 -0.998319,0.8458602 -1.899301,1.7628036 -2.179059,2.2176636 -0.03874,0.06299 -0.234814,0.369852 -0.435718,0.681918 -0.632225,0.982039 -1.065642,2.04335 -1.10151,2.697273 -0.0067,0.121758 -0.04237,0.246461 -0.0793,0.277116 -0.03694,0.03065 -0.06752,0.09352 -0.06795,0.139689 -4.33e-4,0.04617 -0.02505,0.118768 -0.05471,0.161322 -0.04076,0.05849 -0.04674,0.03961 -0.02448,-0.07737 z"
         id="path4238"
         inkscape:connector-curvature="0" />
      <path
         style="fill:#090800;stroke-width:1.18979478"
         d="m 12.899919,21.088001 c -0.201286,-0.159107 -0.256829,-0.231616 -0.227194,-0.296592 0.02157,-0.0473 0.04873,-0.41778 0.06035,-0.823292 0.01793,-0.625913 0.03207,-0.728205 0.09361,-0.677134 0.03987,0.03308 0.07249,0.08073 0.07249,0.10587 0,0.02514 0.0691,0.141098 0.153549,0.25768 0.177378,0.244864 0.196433,0.338067 0.222752,1.089563 0.02261,0.645527 0.01493,0.65256 -0.37555,0.343905 z m 9.326288,-1.266962 c 0.01332,-1.140508 0.003,-1.434714 -0.05158,-1.469311 -0.09158,-0.05807 -4.020341,-0.0557 -4.112231,0.0025 -0.0574,0.03634 -0.06636,0.152642 -0.0436,0.565788 0.03317,0.602075 -0.0073,0.62258 -0.348033,0.176329 -0.179028,-0.234465 -0.21418,-0.31854 -0.243808,-0.58312 -0.01036,-0.09252 -0.04103,-0.124422 -0.108534,-0.112918 -0.118459,0.02019 -0.22211,-0.06524 -0.377153,-0.310844 -0.189104,-0.299561 -0.170233,-0.326643 0.213814,-0.306841 0.335968,0.01732 0.335968,0.01732 0.322491,-2.089035 -0.01348,-2.106356 -0.01348,-2.106356 -0.828652,-2.120575 -0.815174,-0.01422 -0.815174,-0.01422 -0.799507,-0.257714 0.01567,-0.243496 0.01567,-0.243496 0.763593,-0.228829 1.009615,0.0198 0.900947,0.265596 0.912273,-2.063506 0.01333,-2.740093 -0.05523,-2.671215 2.658638,-2.671215 1.470616,0 1.995123,-0.01591 2.041115,-0.06189 0.04237,-0.04237 0.06189,-0.294585 0.06189,-0.799508 0,-0.405684 0.01383,-0.737609 0.03073,-0.737609 0.04457,0 0.349426,0.217574 0.39403,0.281211 0.02085,0.02974 0.03826,0.324318 0.03869,0.654626 9.41e-4,0.715207 -0.06188,0.663177 0.800761,0.663177 0.63679,0 0.63679,0 0.792877,0.189361 0.220302,0.267265 0.199696,0.27487 -0.744804,0.27487 -0.848044,0 -0.848044,0 -0.851182,0.245009 -0.02207,1.722968 0.01737,3.961921 0.07039,3.996939 0.03393,0.02241 0.799691,0.03461 1.701687,0.02712 1.824299,-0.01515 1.729751,-0.0337 1.678368,0.329304 -0.01717,0.121304 -0.01717,0.121304 -1.719347,0.147094 -1.702177,0.02579 -1.702177,0.02579 -1.716939,0.528707 -0.01477,0.502915 -0.01477,0.502915 -0.17103,0.502915 -0.319641,0 -0.369599,-0.0701 -0.330119,-0.46323 0.06236,-0.620976 0.25324,-0.571734 -2.155538,-0.55608 -2.074013,0.01348 -2.074013,0.01348 -2.087482,2.109243 -0.01347,2.095764 -0.01347,2.095764 0.103162,2.127017 0.154787,0.04147 3.393824,0.04167 3.790324,2.06e-4 0.310264,-0.03243 0.310264,-0.03243 0.344123,-0.396733 0.04043,-0.435049 0.03392,-0.426427 0.276714,-0.366449 0.193027,0.04771 0.193027,0.04771 0.218818,0.382987 0.03013,0.391645 0.127111,0.425947 1.132413,0.400505 0.539229,-0.01365 0.539229,-0.01365 0.657659,0.16162 0.212669,0.314734 0.212619,0.314754 -0.773924,0.314754 -0.625278,0 -0.910878,0.01853 -0.954251,0.06189 -0.07784,0.07784 -0.08686,2.032136 -0.01031,2.233483 0.0725,0.190696 -0.323953,0.644462 -0.563347,0.644783 -0.01641,2.3e-5 -0.02235,-0.641683 -0.0132,-1.426012 z m 0.0074,-6.823615 c 0.0831,-0.15527 0.07257,-4.111903 -0.01108,-4.163767 -0.108559,-0.06731 -4.18439,-0.0175 -4.231466,0.05171 -0.08282,0.12177 -0.01933,4.107264 0.06629,4.161363 0.172078,0.108717 4.116608,0.06215 4.176255,-0.04931 z m -11.927284,5.319914 c -0.102222,-0.116691 -0.244116,-0.400392 -0.244116,-0.488084 0,-0.05699 0.07485,-0.06157 0.399754,-0.02453 0.219864,0.02507 0.671091,0.03094 1.002725,0.01304 0.669997,-0.03616 0.717342,-0.01449 0.792853,0.362864 0.03043,0.152047 0.03043,0.152047 -0.760071,0.152047 -0.434773,0 -0.863333,0.01631 -0.952355,0.03624 -0.120755,0.02704 -0.181393,0.01394 -0.23879,-0.05158 z M 9.0821638,13.487717 c 9e-6,-0.410059 0.02071,-0.416936 1.2307482,-0.408885 1.116195,0.0075 1.116195,0.0075 1.132609,0.200227 0.0242,0.284255 0.01901,0.285519 -1.22029,0.297297 -1.0984126,0.01043 -1.1430693,0.007 -1.1430672,-0.08864 z M 12.692844,8.867545 c 0,-0.03236 -0.325666,-0.05158 -0.873835,-0.05158 -0.949164,0 -1.006888,-0.01797 -0.818866,-0.254984 0.167815,-0.211539 0.197787,-0.218412 0.922758,-0.211588 0.883631,0.0084 0.821524,0.05893 0.821524,-0.669512 0,-0.712552 0.0064,-0.736089 0.239946,-0.8804195 0.225357,-0.1392779 0.204821,-0.1972929 0.241092,0.6810995 0.03112,0.75363 0.03112,0.75363 -0.18615,1.096098 -0.194238,0.306168 -0.346469,0.433977 -0.346469,0.290886 z"
         id="path4236"
         inkscape:connector-curvature="0" />
    </g>
    <path
       style="display:inline;fill:none;fill-rule:evenodd;stroke:#ffffff;stroke-width:5;stroke-linecap:round;stroke-linejoin:round;stroke-miterlimit:4;stroke-dasharray:none;stroke-opacity:1"
       d="m 21.492621,29.386729 -8.965755,-8.969944 1.194601,4.877366 3.809693,-3.811474 -5.004294,-1.065892"
       id="path4252-3-3"
       inkscape:connector-curvature="0" />
    <path
       style="fill:#c41e1e;fill-opacity:1;stroke:none;stroke-width:0.04419417;stroke-opacity:0.50251255"
       d="m 21.116035,31.961944 c -0.109381,-0.0396 -0.258536,-0.112264 -0.331456,-0.161482 -0.07292,-0.04922 -1.261062,-1.21508 -2.640314,-2.590807 l -2.507731,-2.501321 -0.497473,0.494863 c -0.377985,0.376004 -0.560673,0.523624 -0.760601,0.614603 -0.671971,0.305783 -1.489731,0.02285 -1.850662,-0.640296 -0.181579,-0.333621 -1.369683,-5.176179 -1.373096,-5.596562 -0.0063,-0.781978 0.652695,-1.450523 1.427787,-1.448371 0.406924,0.0011 5.400419,1.072997 5.695598,1.222576 0.656769,0.33281 0.967931,1.133567 0.709626,1.826176 -0.08048,0.215786 -0.184118,0.34611 -0.662913,0.833579 -0.312137,0.317793 -0.567522,0.595828 -0.567522,0.617856 0,0.02203 1.151864,1.193907 2.559698,2.604176 l 2.559698,2.564125 0.09766,0.325023 c 0.211682,0.704512 -0.07011,1.385781 -0.715473,1.729757 -0.231274,0.123268 -0.335489,0.151112 -0.611375,0.163349 -0.22882,0.01015 -0.39462,-0.0077 -0.53145,-0.05724 z"
       id="path855"
       inkscape:connector-curvature="0" />
    <text
       xml:space="preserve"
       style="font-style:normal;font-variant:normal;font-weight:normal;font-stretch:normal;font-size:8px;line-height:1.25;font-family:'MS Reference Sans Serif';-inkscape-font-specification:'MS Reference Sans Serif';font-variant-ligatures:normal;font-variant-caps:normal;font-variant-numeric:normal;font-feature-settings:normal;text-align:start;letter-spacing:0px;word-spacing:0px;writing-mode:lr-tb;text-anchor:start;fill:#000000;fill-opacity:1;stroke:none"
       x="1.6793786"
       y="17.06237"
       id="text4586"><tspan
         sodipodi:role="line"
         id="tspan4584"
         x="1.6793786"
         y="24.361012"></tspan></text>
    <text
       xml:space="preserve"
       style="font-style:normal;font-variant:normal;font-weight:normal;font-stretch:normal;font-size:16px;line-height:1.25;font-family:'MS Reference Sans Serif';-inkscape-font-specification:'MS Reference Sans Serif';font-variant-ligatures:normal;font-variant-caps:normal;font-variant-numeric:normal;font-feature-settings:normal;text-align:start;letter-spacing:0px;word-spacing:0px;writing-mode:lr-tb;text-anchor:start;fill:#000000;fill-opacity:1;stroke:none"
       x="19.533825"
       y="24.133436"
       id="text4594"><tspan
         sodipodi:role="line"
         id="tspan4592"
         x="19.533825"
         y="38.730721"></tspan></text>
    <text
       xml:space="preserve"
       style="font-style:normal;font-variant:normal;font-weight:normal;font-stretch:normal;font-size:16px;line-height:1.25;font-family:'MS Reference Sans Serif';-inkscape-font-specification:'MS Reference Sans Serif';font-variant-ligatures:normal;font-variant-caps:normal;font-variant-numeric:normal;font-feature-settings:normal;text-align:start;letter-spacing:0px;word-spacing:0px;writing-mode:lr-tb;text-anchor:start;fill:#000000;fill-opacity:1;stroke:none"
       x="16.219261"
       y="26.917669"
       id="text4598"><tspan
         sodipodi:role="line"
         id="tspan4596"
         x="16.219261"
         y="41.514954"></tspan></text>
    <text
       xml:space="preserve"
       style="font-style:normal;font-variant:normal;font-weight:normal;font-stretch:normal;font-size:16.91073227px;line-height:1.25;font-family:'MS Reference Sans Serif';-inkscape-font-specification:'MS Reference Sans Serif';font-variant-ligatures:normal;font-variant-caps:normal;font-variant-numeric:normal;font-feature-settings:normal;text-align:start;letter-spacing:0px;word-spacing:0px;writing-mode:lr-tb;text-anchor:start;fill:#18202a;fill-opacity:1;stroke:none;stroke-width:1;"
       x="15.057159"
       y="20.396423"
       id="text4602"
       transform="scale(0.98598751,1.0142116)"><tspan
         sodipodi:role="line"
         id="tspan4600"
         x="15.057159"
         y="20.396423"
         style="fill:#18202a;fill-opacity:1;stroke-width:1;">1</tspan></text>
  </g>
</svg>
