<?xml version="1.0" encoding="UTF-8" standalone="no"?>
<svg
   height="24"
   viewBox="0 0 24 24"
   width="24"
   version="1.1"
   id="svg6"
   sodipodi:docname="import_hdf5.svg"
   inkscape:version="1.3 (0e150ed6c4, 2023-07-21)"
   xml:space="preserve"
   xmlns:inkscape="http://www.inkscape.org/namespaces/inkscape"
   xmlns:sodipodi="http://sodipodi.sourceforge.net/DTD/sodipodi-0.dtd"
   xmlns="http://www.w3.org/2000/svg"
   xmlns:svg="http://www.w3.org/2000/svg"><defs
     id="defs6"><clipPath
       clipPathUnits="userSpaceOnUse"
       id="clipPath2"><path
         d="M 0,0 H 900 V 400 H 0 Z"
         id="path2-1" /></clipPath><clipPath
       clipPathUnits="userSpaceOnUse"
       id="clipPath4"><path
         d="M 0,0 H 900 V 400 H 0 Z"
         id="path4-8" /></clipPath><clipPath
       clipPathUnits="userSpaceOnUse"
       id="clipPath6"><path
         d="M 0,0 H 900 V 400 H 0 Z"
         id="path6-0" /></clipPath><clipPath
       clipPathUnits="userSpaceOnUse"
       id="clipPath8"><path
         d="M 0,0 H 900 V 400 H 0 Z"
         id="path8" /></clipPath><clipPath
       clipPathUnits="userSpaceOnUse"
       id="clipPath10"><path
         d="M 0,0 H 900 V 400 H 0 Z"
         id="path10" /></clipPath><clipPath
       clipPathUnits="userSpaceOnUse"
       id="clipPath12"><path
         d="M 0,0 H 900 V 400 H 0 Z"
         id="path12" /></clipPath><clipPath
       clipPathUnits="userSpaceOnUse"
       id="clipPath14"><path
         d="M 0,0 H 900 V 400 H 0 Z"
         id="path14" /></clipPath><clipPath
       clipPathUnits="userSpaceOnUse"
       id="clipPath16"><path
         d="M 0,0 H 900 V 400 H 0 Z"
         id="path16" /></clipPath><clipPath
       clipPathUnits="userSpaceOnUse"
       id="clipPath18"><path
         d="M 0,0 H 900 V 400 H 0 Z"
         id="path18" /></clipPath><clipPath
       clipPathUnits="userSpaceOnUse"
       id="clipPath20"><path
         d="M 0,0 H 900 V 400 H 0 Z"
         id="path20" /></clipPath><clipPath
       clipPathUnits="userSpaceOnUse"
       id="clipPath22"><path
         d="M 0,0 H 900 V 400 H 0 Z"
         id="path22" /></clipPath><clipPath
       clipPathUnits="userSpaceOnUse"
       id="clipPath24"><path
         d="M 0,0 H 900 V 400 H 0 Z"
         id="path24" /></clipPath><clipPath
       clipPathUnits="userSpaceOnUse"
       id="clipPath26"><path
         d="M 0,0 H 900 V 400 H 0 Z"
         id="path26" /></clipPath><clipPath
       clipPathUnits="userSpaceOnUse"
       id="clipPath28"><path
         d="M 0,0 H 900 V 400 H 0 Z"
         id="path28" /></clipPath><clipPath
       clipPathUnits="userSpaceOnUse"
       id="clipPath30"><path
         d="M 0,0 H 900 V 400 H 0 Z"
         id="path30" /></clipPath><clipPath
       clipPathUnits="userSpaceOnUse"
       id="clipPath32"><path
         d="M 0,0 H 900 V 400 H 0 Z"
         id="path32" /></clipPath><clipPath
       clipPathUnits="userSpaceOnUse"
       id="clipPath34"><path
         d="M 0,0 H 900 V 400 H 0 Z"
         id="path34" /></clipPath></defs><sodipodi:namedview
     id="namedview6"
     pagecolor="#505050"
     bordercolor="#eeeeee"
     borderopacity="1"
     inkscape:showpageshadow="0"
     inkscape:pageopacity="0"
     inkscape:pagecheckerboard="0"
     inkscape:deskcolor="#d1d1d1"
     showgrid="true"
     inkscape:zoom="23.953242"
     inkscape:cx="15.864241"
     inkscape:cy="12.795763"
     inkscape:window-width="1920"
     inkscape:window-height="1009"
     inkscape:window-x="1912"
     inkscape:window-y="81"
     inkscape:window-maximized="1"
     inkscape:current-layer="svg6"><inkscape:grid
       id="grid6"
       units="px"
       originx="0"
       originy="0"
       spacingx="1"
       spacingy="1"
       empcolor="#0099e5"
       empopacity="0.30196078"
       color="#0099e5"
       opacity="0.14901961"
       empspacing="5"
       dotted="false"
       gridanglex="30"
       gridanglez="30"
       visible="true" /><inkscape:page
       x="0"
       y="0"
       width="24"
       height="24"
       id="page1"
       margin="0"
       bleed="0" /><inkscape:page
       x="34"
       y="0"
       width="1200"
       height="533.33332"
       id="page2" /></sodipodi:namedview><g
     fill="none"
     stroke-dasharray="1.896 .948"
     stroke-width=".948"
     id="g5"><path
       d="m1.0054352 1h15.832339v3.1664679h-15.832339z"
       id="path2" /><path
       d="m1.0054352 1h20.582041v3.1664679h-20.582041z"
       id="path3" /><path
       d="m21.587477 4.1664677h3.1664679v1.583234h-3.1664679z"
       id="path4" /><path
       d="m1.0054352 1h20.582041v3.1664679h-20.582041z"
       id="path5" /></g><g
     id="g1"
     inkscape:groupmode="layer"
     inkscape:label="1"
     transform="translate(34)"><g
       id="g2"
       transform="matrix(0.03167564,0,0,0.03167564,-40.989758,6.5579137)"><path
         id="path1-6"
         d="m 367.99,47.79 c 13.05,-0.09 26.11,-0.1 39.16,-0.03 8.64,0.05 15.02,0.37 19.15,0.97 35.93,5.23 60.89,30.6 65.22,66.68 0.05,0.4 0.27,0.6 0.68,0.6 L 732.75,116 c 0.33,0 0.5,-0.17 0.5,-0.5 V 79 c 0,-0.27 -0.22,-0.49 -0.49,-0.49 L 603,78.5 c -0.14,0 -0.25,-0.11 -0.25,-0.25 v -29 c 0,-0.28 0.22,-0.5 0.5,-0.5 l 129.5,-0.01 c 0.33,0 0.5,-0.16 0.5,-0.49 l 0.01,-36.74 c 0,-0.34 -0.17,-0.51 -0.51,-0.51 h -170 c -0.33,0 -0.49,0.17 -0.49,0.5 L 562.25,78 c 0,0.28 -0.22,0.5 -0.5,0.5 l -35.74,-0.01 c -0.29,0 -0.5,-0.13 -0.63,-0.4 -20.7,-45.27 -65.25,-67.1 -113.64,-67.12 -27.98,-0.01 -55.98,0.01 -84.01,0.06 -0.32,0 -0.48,0.16 -0.48,0.49 V 78 c 0,0.28 -0.22,0.5 -0.5,0.5 h -120 c -0.28,0 -0.5,-0.22 -0.5,-0.5 l 0.01,-66.49 c 0,-0.34 -0.17,-0.51 -0.5,-0.51 H 166.5 c -0.33,0 -0.5,0.17 -0.5,0.5 v 104 c 0,0.28 0.22,0.51 0.5,0.51 H 367 c 0.33,0 0.5,-0.17 0.5,-0.51 V 48.28 c 0,-0.33 0.16,-0.49 0.49,-0.49"
         style="fill:none;stroke:#8aafd0;stroke-width:1;stroke-linecap:butt;stroke-linejoin:miter;stroke-miterlimit:10;stroke-dasharray:none;stroke-opacity:1"
         transform="scale(1.3333333)"
         clip-path="url(#clipPath2)" /><path
         id="path3-1"
         d="m 562.25,174.25 0.01,66.25 c 0,0.33 0.16,0.5 0.49,0.5 h 39.5 c 0.28,0 0.5,-0.22 0.5,-0.5 V 136.3 c 0,-0.17 -0.13,-0.3 -0.3,-0.3 H 492.26 c -0.33,0 -0.51,0.16 -0.55,0.48 -3.39,28.12 -19.17,51.15 -45.51,61.74 -9.91,3.98 -20.06,5.98 -30.45,6.01 -15.97,0.03 -31.81,0.03 -47.52,0.01 -0.49,0 -0.73,-0.25 -0.73,-0.74 v -67.25 c 0,-0.14 -0.11,-0.25 -0.25,-0.25 H 166.5 c -0.28,0 -0.5,0.22 -0.5,0.5 l 0.01,104 c 0,0.28 0.22,0.5 0.49,0.5 h 39.51 c 0.14,0 0.25,-0.12 0.25,-0.26 L 206.25,174 c 0,-0.14 0.11,-0.25 0.25,-0.25 h 120.25 c 0.33,0 0.5,0.17 0.5,0.5 v 66.23 c 0,0.34 0.17,0.51 0.51,0.51 26.67,0.02 53.41,0.02 80.23,-0.01 8.95,-0.01 15.61,-0.24 19.97,-0.69 41.94,-4.38 79.24,-26.94 97.05,-66.07 0.13,-0.29 0.42,-0.47 0.73,-0.47 h 36.01 c 0.33,0 0.5,0.17 0.5,0.5"
         style="fill:none;stroke:#b0c19c;stroke-width:1;stroke-linecap:butt;stroke-linejoin:miter;stroke-miterlimit:10;stroke-dasharray:none;stroke-opacity:1"
         transform="scale(1.3333333)"
         clip-path="url(#clipPath4)" /><path
         id="path36"
         d="m 367.5,48.28 v 67.22 c 0,0.34 -0.17,0.51 -0.5,0.51 H 166.5 c -0.28,0 -0.5,-0.23 -0.5,-0.51 v -104 c 0,-0.33 0.17,-0.5 0.5,-0.5 h 39.26 c 0.33,0 0.5,0.17 0.5,0.51 L 206.25,78 c 0,0.28 0.22,0.5 0.5,0.5 h 120 c 0.28,0 0.5,-0.22 0.5,-0.5 V 11.52 c 0,-0.33 0.16,-0.49 0.48,-0.49 28.03,-0.05 56.03,-0.07 84.01,-0.06 48.39,0.02 92.94,21.85 113.64,67.12 0.13,0.27 0.34,0.4 0.63,0.4 l 35.74,0.01 c 0.28,0 0.5,-0.22 0.5,-0.5 l 0.01,-66.5 c 0,-0.33 0.16,-0.5 0.49,-0.5 h 170 c 0.34,0 0.51,0.17 0.51,0.51 l -0.01,36.74 c 0,0.33 -0.17,0.49 -0.5,0.49 l -129.5,0.01 c -0.28,0 -0.5,0.22 -0.5,0.5 v 29 c 0,0.14 0.11,0.25 0.25,0.25 l 129.76,0.01 c 0.27,0 0.49,0.22 0.49,0.49 v 36.5 c 0,0.33 -0.17,0.5 -0.5,0.5 l -240.55,0.01 c -0.41,0 -0.63,-0.2 -0.68,-0.6 -4.33,-36.08 -29.29,-61.45 -65.22,-66.68 -4.13,-0.6 -10.51,-0.92 -19.15,-0.97 -13.05,-0.07 -26.11,-0.06 -39.16,0.03 -0.33,0 -0.49,0.16 -0.49,0.49 z"
         style="fill:#155fa0;fill-opacity:1;fill-rule:nonzero;stroke:none"
         transform="scale(1.3333333)" /><path
         id="path37"
         d="m 561.75,173.75 h -36.01 c -0.31,0 -0.6,0.18 -0.73,0.47 -17.81,39.13 -55.11,61.69 -97.05,66.07 -4.36,0.45 -11.02,0.68 -19.97,0.69 -26.82,0.03 -53.56,0.03 -80.23,0.01 -0.34,0 -0.51,-0.17 -0.51,-0.51 v -66.23 c 0,-0.33 -0.17,-0.5 -0.5,-0.5 H 206.5 c -0.14,0 -0.25,0.11 -0.25,0.25 l 0.01,66.74 c 0,0.14 -0.11,0.26 -0.25,0.26 H 166.5 c -0.27,0 -0.49,-0.22 -0.49,-0.5 L 166,136.5 c 0,-0.28 0.22,-0.5 0.5,-0.5 h 200.75 c 0.14,0 0.25,0.11 0.25,0.25 v 67.25 c 0,0.49 0.24,0.74 0.73,0.74 15.71,0.02 31.55,0.02 47.52,-0.01 10.39,-0.03 20.54,-2.03 30.45,-6.01 26.34,-10.59 42.12,-33.62 45.51,-61.74 0.04,-0.32 0.22,-0.48 0.55,-0.48 h 110.19 c 0.17,0 0.3,0.13 0.3,0.3 v 104.2 c 0,0.28 -0.22,0.5 -0.5,0.5 h -39.5 c -0.33,0 -0.49,-0.17 -0.49,-0.5 l -0.01,-66.25 c 0,-0.33 -0.17,-0.5 -0.5,-0.5 z"
         style="fill:#618339;fill-opacity:1;fill-rule:nonzero;stroke:none"
         transform="scale(1.3333333)" /></g></g><g
     transform="matrix(0.6923,0,0,0.6923,1.846398,1.8463)"
     id="g12"><rect
       fill="#5a8c5a"
       height="13"
       rx="2.615"
       width="13"
       x="19"
       y="19"
       id="rect10" /><g
       fill-rule="evenodd"
       id="g11"><path
         d="m 21.6,25.5 h 7.8 m -3.9,3.9 v -7.8"
         fill="#ffffff"
         stroke="#ffffff"
         stroke-linecap="round"
         stroke-linejoin="round"
         stroke-width="2.6"
         id="path10-7" /><path
         d="m 20.3,25.5 h 10.4 v -2.6 c 0,-2.6 -0.65,-2.6 -5.2,-2.6 -4.55,0 -5.2,0 -5.2,2.6 z"
         fill="#fcffff"
         opacity="0.3"
         id="path11" /></g></g></svg>
