<?xml version="1.0" encoding="UTF-8" standalone="no"?>
<!-- Created with Inkscape (http://www.inkscape.org/) -->

<svg
   width="24"
   height="24"
   viewBox="0 0 6.3500001 6.3500001"
   version="1.1"
   id="svg1"
   xml:space="preserve"
   inkscape:version="1.3 (0e150ed6c4, 2023-07-21)"
   sodipodi:docname="project_toolbar.svg"
   inkscape:export-filename="..\project_toolbar.svg"
   inkscape:export-xdpi="96"
   inkscape:export-ydpi="96"
   xmlns:inkscape="http://www.inkscape.org/namespaces/inkscape"
   xmlns:sodipodi="http://sodipodi.sourceforge.net/DTD/sodipodi-0.dtd"
   xmlns="http://www.w3.org/2000/svg"
   xmlns:svg="http://www.w3.org/2000/svg"
   xmlns:rdf="http://www.w3.org/1999/02/22-rdf-syntax-ns#"
   xmlns:cc="http://creativecommons.org/ns#"><sodipodi:namedview
     id="namedview1"
     pagecolor="#505050"
     bordercolor="#eeeeee"
     borderopacity="1"
     inkscape:showpageshadow="0"
     inkscape:pageopacity="0"
     inkscape:pagecheckerboard="0"
     inkscape:deskcolor="#d1d1d1"
     inkscape:document-units="mm"
     inkscape:zoom="27.416668"
     inkscape:cx="8.5349541"
     inkscape:cy="28.43161"
     inkscape:window-width="1920"
     inkscape:window-height="1009"
     inkscape:window-x="1912"
     inkscape:window-y="81"
     inkscape:window-maximized="1"
     inkscape:current-layer="svg1"
     showgrid="true"><inkscape:grid
       id="grid278"
       units="px"
       originx="0"
       originy="0"
       spacingx="0.26458334"
       spacingy="0.26458334"
       empcolor="#0099e5"
       empopacity="0.30196078"
       color="#0099e5"
       opacity="0.14901961"
       empspacing="5"
       dotted="false"
       gridanglex="30"
       gridanglez="30"
       visible="true" /><inkscape:page
       x="0"
       y="0"
       width="6.3499999"
       height="6.3499999"
       id="page1"
       margin="0"
       bleed="0"
       inkscape:export-filename="..\set_levee_elev.svg"
       inkscape:export-xdpi="96"
       inkscape:export-ydpi="96" /></sodipodi:namedview><defs
     id="defs1" /><style
     type="text/css"
     id="style4" /><g
     transform="matrix(0.18693671,0,0,0.18693671,-0.04199106,-0.13546511)"
     id="g4200"><circle
       transform="matrix(0.57265697,0,0,0.57265697,-1.1160383,-0.61600782)"
       id="circle3"
       r="28.677999"
       cy="32"
       cx="32"
       stroke-miterlimit="10"
       style="fill:#6d97c4;fill-opacity:1;stroke:#445e75;stroke-width:1.96174;stroke-miterlimit:10;stroke-opacity:1" /><path
       id="path5-3"
       d="M 3.9078817,20.685686 C 4.3270667,15.864487 5.2685147,12.971997 8.2623647,9.9781472 11.495586,6.7449252 14.49001,5.2445642 20.147861,3.9572302 22.927538,3.3250172 18.112638,1.2290941 11.449774,3.7218682 7.8706667,5.0607402 4.2377317,8.5550932 2.9629967,13.64716 c -1.5444549,6.165223 0.753044,9.246119 0.944885,7.038526 z"
       inkscape:connector-curvature="0"
       style="opacity:0.3;fill:#ffffff" /><path
       id="path7-6"
       d="m 21.146001,24.621557 -0.406586,-0.405442 c -0.370508,-0.369935 -1.080031,-0.296635 -1.373231,0.14202 -0.183823,0.275448 -1.033646,1.155049 -1.56908,1.568507 0.06643,-0.274303 0.193557,-0.693487 0.432928,-1.373803 l 2.147463,-6.096507 c 0.504511,-1.443668 0.809166,-2.315252 0.809166,-3.05856 0,-1.176238 -0.867003,-1.936727 -2.207594,-1.936727 -3.38612,0 -6.036377,3.057988 -7.017338,4.371664 -0.0126,0.0166 -0.02405,0.03265 -0.03436,0.04696 -0.168933,0.191839 -0.235934,0.447817 -0.183249,0.710094 0.04066,0.20272 0.151754,0.399142 0.321834,0.569222 l 0.304653,0.304081 c 0.182104,0.182104 0.418611,0.282319 0.666572,0.282319 0.184968,0 0.462134,-0.05785 0.734718,-0.333286 l 0.05041,-0.05898 c 0.35333,-0.470723 1.013603,-1.182536 1.496353,-1.620619 -0.08304,0.281747 -0.200431,0.627632 -0.338441,1.025629 l -1.492915,4.351621 c -1.063425,3.074594 -1.461421,4.225062 -1.461421,4.865866 0,0.837796 0.535434,1.732286 2.038086,1.732286 4.670018,0 6.972098,-3.469155 7.224639,-3.872879 0.257124,-0.430638 0.207876,-0.860703 -0.142592,-1.21346 z"
       stroke-miterlimit="10"
       inkscape:connector-curvature="0"
       style="fill:#ffffff;stroke:#34497d;stroke-width:1.1234;stroke-miterlimit:10" /><path
       id="path9-2"
       d="m 19.249362,6.4740582 c -1.501507,0 -2.818045,1.300504 -2.818045,2.783686 0,1.6910558 1.132715,2.7836848 2.885619,2.7836848 1.720834,0 3.055124,-1.587405 3.055124,-2.9531918 5.72e-4,-1.205443 -0.817182,-2.614179 -3.122698,-2.614179 z"
       stroke-miterlimit="10"
       inkscape:connector-curvature="0"
       style="fill:#ffffff;stroke:#34497d;stroke-width:1.1234;stroke-miterlimit:10" /></g><metadata
     id="metadata3"><rdf:RDF><cc:Work
         rdf:about=""><cc:license
           rdf:resource="http://artlibre.org/licence/lal" /></cc:Work><cc:License
         rdf:about="http://artlibre.org/licence/lal"><cc:permits
           rdf:resource="http://creativecommons.org/ns#Reproduction" /><cc:permits
           rdf:resource="http://creativecommons.org/ns#Distribution" /><cc:permits
           rdf:resource="http://creativecommons.org/ns#DerivativeWorks" /><cc:requires
           rdf:resource="http://creativecommons.org/ns#ShareAlike" /><cc:requires
           rdf:resource="http://creativecommons.org/ns#Notice" /><cc:requires
           rdf:resource="http://creativecommons.org/ns#Attribution" /></cc:License></rdf:RDF></metadata></svg>
