<?xml version="1.0" encoding="UTF-8" standalone="no"?>
<svg
   height="24"
   width="24"
   version="1.1"
   id="svg16"
   sodipodi:docname="mActionSaveGeoPackageLayer.svg"
   xml:space="preserve"
   inkscape:version="1.3 (0e150ed6c4, 2023-07-21)"
   xmlns:inkscape="http://www.inkscape.org/namespaces/inkscape"
   xmlns:sodipodi="http://sodipodi.sourceforge.net/DTD/sodipodi-0.dtd"
   xmlns="http://www.w3.org/2000/svg"
   xmlns:svg="http://www.w3.org/2000/svg"><defs
     id="defs16" /><sodipodi:namedview
     id="namedview16"
     pagecolor="#505050"
     bordercolor="#eeeeee"
     borderopacity="1"
     inkscape:showpageshadow="0"
     inkscape:pageopacity="0"
     inkscape:pagecheckerboard="0"
     inkscape:deskcolor="#d1d1d1"
     inkscape:zoom="23.953242"
     inkscape:cx="11.856433"
     inkscape:cy="14.089951"
     inkscape:window-width="1920"
     inkscape:window-height="1009"
     inkscape:window-x="1912"
     inkscape:window-y="81"
     inkscape:window-maximized="1"
     inkscape:current-layer="svg16" /><path
     d="m 0.47174999,7.2493342 10.90000001,-5.13 12,5.18 -11,6.8199998 z"
     fill="#806600"
     stroke="#000000"
     stroke-linejoin="bevel"
     stroke-width="0.602"
     id="path1-9" /><path
     d="m 20.38275,8.3993342 c 0,4.3399998 -3.65,7.8499998 -8.16,7.8499998 -4.51,0 -8.16,-3.52 -8.16,-7.8499998 0,-4.34 3.65,-7.85 8.16,-7.85 4.51,0 8.16,3.52 8.16,7.85 z"
     fill="#aec7e2"
     stroke="#2e4e72"
     stroke-width="0.885"
     id="path2-6" /><path
     d="m 9.30275,2.1893342 c -0.175,0.179 -0.948,0.256 -0.52,0.508 0.23,0.185 0.634,-0.477 0.848,-0.23 -0.135,0.152 -0.451,0.0955 -0.0541,0.243 0.46,0.528 -0.329,0.875 0.226,1.38 0.15,-0.431 0.478,-0.731 0.92,-0.821 -0.0635,-0.419 0.53,-0.62 0.393,-0.965 -0.371,-0.00507 -0.825,-0.0534 -1.21,-0.025 -0.203,0.00944 -0.4,-0.0675 -0.599,-0.0898 z m 6,0.541 c -0.325,0.0615 -0.867,0.175 -0.74,0.609 -0.176,-0.123 -0.189,-0.449 -0.0856,0.0515 -0.0833,0.422 -0.244,-0.806 -0.312,-0.199 0.264,0.495 -0.322,-0.0346 -0.448,0.228 -0.326,-0.17 -0.617,0.773 -0.742,0.132 0.607,0.0354 -0.287,-0.54 -0.539,-0.285 -0.207,0.295 -0.778,0.903 -0.426,0.945 0.131,0.452 0.474,0.255 0.375,-0.146 -0.0232,-0.385 0.392,-0.497 0.182,-0.0316 0.313,0.0316 0.176,0.142 0.0735,0.221 -0.009,0.222 -0.242,0.535 -0.523,0.389 -0.199,-0.0471 -0.308,0.308 -0.502,0.469 -0.342,0.0843 0.0133,0.307 -0.129,0.609 -0.403,-0.295 -0.5,0.735 -0.0625,0.652 0.183,-0.296 0.346,-0.662 0.535,-0.77 0.262,0.15 0.39,0.55 0.322,0.688 0.355,-0.316 -0.122,-0.454 -0.109,-0.805 0.346,0.136 0.303,0.735 0.516,0.82 -0.0737,-0.372 0.225,-0.507 0.221,-0.00781 0.259,0.108 0.624,0.0532 0.369,0.513 -0.2,0.463 -0.836,-0.402 -0.743,0.175 -0.326,-0.0873 -0.543,-0.351 -0.475,-0.672 -0.232,0.0641 -0.59,0.266 -0.766,0.146 -0.17,0.281 -0.246,0.554 -0.4,0.842 -0.257,0.462 -0.184,1 -0.205,1.5 0.165,0.374 0.364,0.986 0.828,0.631 0.24,-0.19 0.358,0.12 0.501,0.208 -0.0664,0.4829998 0.22,0.8879998 0.218,1.3699998 -0.0068,0.443 -0.15,0.875 0.0723,1.31 0.0912,0.309 0.0105,1.34 0.48,1.05 0.313,-0.289 0.527,-0.778 0.561,-1.18 0.146,-0.509 0.422,-1.05 0.209,-1.65 0.135,-0.508 0.755,-1.3299998 0.544,-1.6199998 -0.602,0.184 -0.514,-0.835 -0.744,-1.22 -0.125,-0.352 -0.204,-0.859 0.0543,-0.328 0.228,0.359 0.198,1.23 0.563,1.29 0.445,-0.256 0.791,-0.99 0.395,-1.25 -0.287,0.748 -0.573,-1.07 -0.172,-0.195 0.256,0.17 0.548,0.198 0.796,0.372 0.135,0.436 0.439,0.12 0.338,0.651 0.0552,0.294 0.277,1.41 0.369,0.541 -0.142,-0.408 0.525,-1.52 0.689,-0.615 0.2,0.319 0.277,0.476 0.301,1 -0.0179,-0.681 0.104,-0.386 0.331,-0.0588 0.571,-0.32 -0.408,-1.17 0.125,-1.26 0.0345,0.73 0.115,-0.231 0.436,-0.308 0.198,-0.377 -0.102,-1.11 -0.189,-1.24 -0.337,-0.027 0.129,-0.641 0.137,-0.21 0.157,-0.156 0.284,0.885 0.413,0.249 -0.523,-0.489 0.25,-0.725 0.0752,-1.29 -0.0342,-0.466 -0.767,-0.227 -0.418,-0.795 0.144,-0.342 0.613,0.246 0.548,-0.336 0.406,-0.156 0.0743,0.381 0.318,0.658 0.115,0.572 0.293,0.256 0.185,-0.161 -0.297,-0.0929 0.0726,-0.656 0.0379,-0.269 0.26,-0.241 0.214,-0.302 0.0308,-0.511 0.109,-0.204 0.621,0.205 0.227,-0.176 -0.546,-0.206 -0.922,-0.0797 -1.43,-0.295 -0.382,0.114 -0.614,-0.355 -0.792,0.0286 -0.389,-0.192 -0.829,-0.0967 -1.17,-0.23 0.229,-0.298 -0.107,-0.185 -0.248,-0.256 z m -7.99,0.164 c -0.291,0.102 0.0217,0.337 0.133,0.439 0.307,0.143 0.631,-0.452 0.168,-0.239 -0.128,-0.0367 -0.138,-0.235 -0.301,-0.2 z m 1.22,0.0449 c -0.344,0.436 0.564,0.0648 0.293,0.665 -0.309,0.315 0.27,0.348 0.213,0.165 0.0195,-0.207 0.111,-0.298 -0.00128,-0.613 -0.0828,-0.255 -0.421,-0.113 -0.505,-0.217 z m -0.342,0.18 c -0.174,0.324 -0.253,0.436 -0.648,0.287 -0.198,0.255 -0.705,-0.413 -1.1,0.00598 -0.223,-0.337 -0.702,-0.222 -1.08,-0.0586 -0.134,0.172 -0.0345,0.265 -0.295,0.265 0.0457,0.13 0.294,0.109 -0.0564,0.249 -0.296,0.0809 -0.0867,0.585 0.0801,0.402 0.185,-0.186 0.488,-0.29 0.742,-0.0261 0.124,0.335 0.115,0.835 -9.19e-4,1.19 -0.464,0.605 -0.075,1.24 -0.0162,1.89 0.252,0.896 -0.146,-0.767 0.0895,-0.319 0.183,0.483 0.106,1.13 0.574,1.42 0.265,-0.00862 0.554,0.26 0.602,0.543 0.147,0.321 0.355,0.34 0.105,-0.0156 0.0996,-0.348 -0.0553,-0.568 -0.196,-0.631 0.209,-0.286 -0.0482,-0.701 -0.134,-0.189 -0.591,0.202 -0.233,-1.34 0.15,-1.03 0.299,-0.502 0.408,0.407 0.481,0.31 -0.153,-0.582 0.387,-0.912 0.564,-1.42 0.241,-0.219 0.509,-0.712 0.49,-0.328 0.162,-0.21 0.405,-0.279 0.0346,-0.296 0.337,-0.289 -0.443,-0.0694 0.00637,-0.313 0.559,0.0349 0.591,-0.376 0.377,-0.666 0.128,-0.542 -0.331,0.168 -0.275,-0.383 -0.5,-0.238 -0.201,0.561 -0.565,0.689 -0.185,0.568 -0.0103,-0.283 -0.338,-0.183 -0.42,-0.408 0.43,-0.865 0.494,-0.938 0.321,-0.157 0.262,-0.377 -0.00625,-0.147 -0.00649,-0.0931 -0.0558,-0.229 -0.0723,-0.307 z m -0.451,5.67 c -0.323,0.315 -0.15,0.752 -0.355,1.14 -0.211,0.4779998 0.0443,0.9279998 0.176,1.4199998 0.422,0.36 0.47,0.801 0.406,1.34 0.0574,0.447 -0.00649,0.926 0.0923,1.36 0.201,0.381 -0.0443,0.907 0.386,1.17 0.116,-0.345 0.0101,-0.695 -0.0049,-1.09 0.108,-0.111 0.198,-0.255 0.348,-0.485 -0.335,-0.419 0.175,-0.0027 0.188,-0.484 0.0184,-0.432 0.144,-0.77 0.453,-1.03 0.0585,-0.532 0.173,-1.08 0.25,-1.57 -0.174,-0.284 -0.495,-0.261 -0.672,-0.459 -0.262,0.0801 0.0356,-0.4779998 -0.334,-0.5939998 -0.216,-0.267 -0.379,-0.562 -0.66,-0.588 -0.234,-0.3 -0.154,0.52 -0.246,-0.0796 z m 9.87,0.588 c -0.173,0.363 -0.526,0.573 -0.26,0.9589998 0.43,0.0711 0.318,-0.5749998 0.344,-0.8649998 l -0.0644,-0.0801 z m -1.06,0.123 c 0.119,0.214 0.343,1.3999998 0.51,0.9529998 -0.0971,-0.365 -0.26,-0.7049998 -0.51,-0.9529998 z m 1.93,0.5819998 c -0.179,0.122 0.0904,0.37 0.258,0.496 -0.0617,0.418 0.324,0.211 0.422,0.349 0.423,0.508 0.0266,-0.38 -0.137,-0.502 -0.328,-0.5849998 -0.426,0.4 -0.543,-0.343 z m 0.449,1.09 c 0.101,0.435 -0.371,0.843 -0.355,0.207 -0.0463,-0.553 -0.424,0.483 -0.456,0.0405 -0.275,0.212 -0.188,0.507 -0.618,0.702 -0.262,0.318 -0.232,1.13 -0.109,1.35 0.272,-0.0823 0.456,-0.287 0.733,-0.32 0.162,0.0848 0.101,0.446 0.308,0.144 -0.164,0.44 0.236,0.862 0.494,0.359 0.335,-0.45 0.527,-1.09 0.217,-1.58 -0.155,-0.274 -0.0683,-0.603 -0.213,-0.904 z m -4.84,0.105 c -0.241,0.359 -0.35,0.726 -0.316,1.18 0.289,0.258 0.28,-0.751 0.346,-1.01 -0.0061,-0.0574 -0.0204,-0.114 -0.0293,-0.172 z"
     fill="#2e4e72"
     stroke="#ffffff"
     stroke-width="0.0564"
     id="path3-8" /><path
     d="m 20.38275,8.3993342 c 0,4.3399998 -3.65,7.8499998 -8.16,7.8499998 -4.51,0 -8.16,-3.52 -8.16,-7.8499998 0,-4.34 3.65,-7.85 8.16,-7.85 4.51,0 8.16,3.52 8.16,7.85 z"
     fill="none"
     stroke="#6e96c4"
     stroke-width="0.885"
     id="path4-2" /><path
     d="M 0.38274999,7.1193342 12.28275,14.099334 v 9.57 l -11.90000001,-7.98 z"
     fill="#d4aa00"
     stroke="#000000"
     stroke-linejoin="bevel"
     stroke-width="0.539"
     id="path5-0" /><path
     d="m 23.38275,7.1193342 -11.1,6.9799998 v 9.57 l 11.1,-7.98 z"
     fill="#ffff7a"
     stroke="#000000"
     stroke-linejoin="bevel"
     stroke-width="0.549"
     id="path6-0" /><g
     enable-background="new"
     stroke-dashoffset=".5"
     stroke-linejoin="round"
     transform="matrix(.56625909 .32692978 -.32692978 .56625909 15.571125 5.856155)"
     id="g16"><path
       d="m8.0961023 18.028419h5.9999997l-3.12491 6.990956z"
       fill="#505050"
       stroke="#505050"
       stroke-linecap="round"
       stroke-width=".75"
       id="path7" /><path
       d="m8.0961004 1.0284199 6.0000006-.000001.000001 17.0000001h-5.9999997z"
       fill="#de6b37"
       stroke="#c04317"
       stroke-linecap="round"
       stroke-width=".75"
       id="path8" /><path
       d="m10.576704 2.1008083.000001 15.7948847"
       fill="none"
       opacity=".5"
       stroke="#f8b008"
       stroke-width="2.105985"
       id="path9" /><path
       d="m12.686221 2.0551469-.080979 16.1486211"
       fill-opacity=".588235"
       opacity=".25"
       stroke="#632923"
       stroke-width="2.159348"
       id="path10" /><path
       d="m12.096101 2.0284193.000001 15.9999997"
       fill="#fc894f"
       opacity=".5"
       stroke="#a7481e"
       stroke-linecap="round"
       stroke-width=".75"
       id="path11" /><path
       d="m11.463292 23.228968 1.996957-4.943779-1.996957-.000001z"
       fill="#969696"
       stroke="#969696"
       stroke-linecap="square"
       stroke-width=".5"
       id="path12" /><path
       d="m9.5961007 2.0284198.0000015 15.9999982"
       fill="#db562d"
       opacity=".5"
       stroke="#9b3819"
       stroke-linecap="round"
       stroke-width=".75"
       id="path13" /><g
       fill="#e6e6e6"
       stroke-width=".5"
       id="g15"><path
         d="m7.8653316-.08727704h6.4615374v2.1791313h-6.4615374z"
         stroke="#969696"
         stroke-linecap="round"
         id="path14" /><path
         d="m10.728912 23.38728-1.9969556-5.102091h1.9969556z"
         stroke="#e6e6e6"
         stroke-linecap="square"
         id="path15" /></g></g></svg>
