<?xml version="1.0" encoding="UTF-8" standalone="no"?>
<svg
   height="24"
   viewBox="0 0 24 24"
   width="24"
   version="1.1"
   id="svg6"
   sodipodi:docname="mActionSharingImport.svg"
   inkscape:version="1.3 (0e150ed6c4, 2023-07-21)"
   xmlns:inkscape="http://www.inkscape.org/namespaces/inkscape"
   xmlns:sodipodi="http://sodipodi.sourceforge.net/DTD/sodipodi-0.dtd"
   xmlns="http://www.w3.org/2000/svg"
   xmlns:svg="http://www.w3.org/2000/svg">
  <defs
     id="defs6" />
  <sodipodi:namedview
     id="namedview6"
     pagecolor="#505050"
     bordercolor="#eeeeee"
     borderopacity="1"
     inkscape:showpageshadow="0"
     inkscape:pageopacity="0"
     inkscape:pagecheckerboard="0"
     inkscape:deskcolor="#d1d1d1"
     showgrid="true"
     inkscape:zoom="23.953242"
     inkscape:cx="16.177351"
     inkscape:cy="14.924911"
     inkscape:window-width="1920"
     inkscape:window-height="1009"
     inkscape:window-x="1912"
     inkscape:window-y="81"
     inkscape:window-maximized="1"
     inkscape:current-layer="svg6">
    <inkscape:grid
       id="grid6"
       units="px"
       originx="0"
       originy="0"
       spacingx="1"
       spacingy="1"
       empcolor="#0099e5"
       empopacity="0.30196078"
       color="#0099e5"
       opacity="0.14901961"
       empspacing="5"
       dotted="false"
       gridanglex="30"
       gridanglez="30"
       visible="true" />
  </sodipodi:namedview>
  <path
     d="m 16.771509,1.5775602 5.488718,5.0632119 -3.614177,0.026127 0.11337,8.7293779 -3.616556,0.02614 -0.113371,-8.7293805 -3.61417,0.026126 5.356185,-5.1416171 z"
     style="fill:#6d97c4;fill-rule:evenodd;stroke:#415a75;stroke-width:1.15523;stroke-linecap:round;stroke-linejoin:round"
     id="path1" />
  <path
     d="M 7.3686268,15.422482 1.8799091,10.359269 5.494085,10.333142 5.3807167,1.6037606 l 3.6165541,-0.026146 0.11337,8.7293834 3.6141722,-0.02613 -5.3561832,5.14162 z"
     style="fill:#6d97c4;fill-rule:evenodd;stroke:#415a75;stroke-width:1.15523;stroke-linecap:round;stroke-linejoin:round"
     id="path1-5" />
  <g
     fill="none"
     stroke-dasharray="1.896 .948"
     stroke-width=".948"
     id="g5">
    <path
       d="m1.0054352 1h15.832339v3.1664679h-15.832339z"
       id="path2" />
    <path
       d="m1.0054352 1h20.582041v3.1664679h-20.582041z"
       id="path3" />
    <path
       d="m21.587477 4.1664677h3.1664679v1.583234h-3.1664679z"
       id="path4" />
    <path
       d="m1.0054352 1h20.582041v3.1664679h-20.582041z"
       id="path5" />
  </g>
  <path
     d="m 19.995759,21.937808 -15.9963108,-0.03109 0.00467,-4.906768 3.4277809,0.0071 -0.00155,1.635586 9.1407499,0.01779 0.0016,-1.635585 3.427781,0.0071 z"
     fill="#6d97c4"
     stroke="#415a75"
     stroke-width="0.997948"
     id="path6" />
</svg>
