<?xml version="1.0" encoding="UTF-8" standalone="no"?>
<svg
   height="24"
   width="24"
   version="1.1"
   id="svg12"
   sodipodi:docname="mGeoPackage.svg"
   inkscape:version="1.3 (0e150ed6c4, 2023-07-21)"
   xmlns:inkscape="http://www.inkscape.org/namespaces/inkscape"
   xmlns:sodipodi="http://sodipodi.sourceforge.net/DTD/sodipodi-0.dtd"
   xmlns="http://www.w3.org/2000/svg"
   xmlns:svg="http://www.w3.org/2000/svg">
  <defs
     id="defs12">
    <clipPath
       clipPathUnits="userSpaceOnUse"
       id="clipPath2">
      <path
         d="M 0,0 H 400 V 120 H 0 Z"
         id="path2-1" />
    </clipPath>
    <clipPath
       clipPathUnits="userSpaceOnUse"
       id="clipPath4">
      <path
         d="M 0,0 H 400 V 120 H 0 Z"
         id="path4-3" />
    </clipPath>
    <clipPath
       clipPathUnits="userSpaceOnUse"
       id="clipPath6">
      <path
         d="M 0,0 H 400 V 120 H 0 Z"
         id="path6-4" />
    </clipPath>
    <clipPath
       clipPathUnits="userSpaceOnUse"
       id="clipPath8">
      <path
         d="M 0,0 H 400 V 120 H 0 Z"
         id="path8-2" />
    </clipPath>
    <clipPath
       clipPathUnits="userSpaceOnUse"
       id="clipPath10">
      <path
         d="M 0,0 H 400 V 120 H 0 Z"
         id="path10-0" />
    </clipPath>
    <clipPath
       clipPathUnits="userSpaceOnUse"
       id="clipPath12">
      <path
         d="M 0,0 H 400 V 120 H 0 Z"
         id="path12" />
    </clipPath>
    <clipPath
       clipPathUnits="userSpaceOnUse"
       id="clipPath14">
      <path
         d="M 0,0 H 400 V 120 H 0 Z"
         id="path14" />
    </clipPath>
    <clipPath
       clipPathUnits="userSpaceOnUse"
       id="clipPath16">
      <path
         d="M 0,0 H 400 V 120 H 0 Z"
         id="path16" />
    </clipPath>
    <clipPath
       clipPathUnits="userSpaceOnUse"
       id="clipPath18">
      <path
         d="M 0,0 H 400 V 120 H 0 Z"
         id="path18" />
    </clipPath>
    <clipPath
       clipPathUnits="userSpaceOnUse"
       id="clipPath20">
      <path
         d="M 0,0 H 400 V 120 H 0 Z"
         id="path20" />
    </clipPath>
    <clipPath
       clipPathUnits="userSpaceOnUse"
       id="clipPath22">
      <path
         d="M 0,0 H 400 V 120 H 0 Z"
         id="path22" />
    </clipPath>
    <clipPath
       clipPathUnits="userSpaceOnUse"
       id="clipPath24">
      <path
         d="M 0,0 H 400 V 120 H 0 Z"
         id="path24" />
    </clipPath>
    <clipPath
       clipPathUnits="userSpaceOnUse"
       id="clipPath26">
      <path
         d="M 0,0 H 400 V 120 H 0 Z"
         id="path26" />
    </clipPath>
    <clipPath
       clipPathUnits="userSpaceOnUse"
       id="clipPath28">
      <path
         d="M 0,0 H 400 V 120 H 0 Z"
         id="path28" />
    </clipPath>
    <clipPath
       clipPathUnits="userSpaceOnUse"
       id="clipPath30">
      <path
         d="M 0,0 H 400 V 120 H 0 Z"
         id="path30" />
    </clipPath>
    <clipPath
       clipPathUnits="userSpaceOnUse"
       id="clipPath32">
      <path
         d="M 0,0 H 400 V 120 H 0 Z"
         id="path32" />
    </clipPath>
    <clipPath
       clipPathUnits="userSpaceOnUse"
       id="clipPath34">
      <path
         d="M 0,0 H 400 V 120 H 0 Z"
         id="path34" />
    </clipPath>
    <clipPath
       clipPathUnits="userSpaceOnUse"
       id="clipPath36">
      <path
         d="M 0,0 H 400 V 120 H 0 Z"
         id="path36" />
    </clipPath>
    <clipPath
       clipPathUnits="userSpaceOnUse"
       id="clipPath38">
      <path
         d="M 0,0 H 400 V 120 H 0 Z"
         id="path38" />
    </clipPath>
    <clipPath
       clipPathUnits="userSpaceOnUse"
       id="clipPath40">
      <path
         d="M 0,0 H 400 V 120 H 0 Z"
         id="path40" />
    </clipPath>
    <clipPath
       clipPathUnits="userSpaceOnUse"
       id="clipPath42">
      <path
         d="M 0,0 H 400 V 120 H 0 Z"
         id="path42" />
    </clipPath>
    <clipPath
       clipPathUnits="userSpaceOnUse"
       id="clipPath44">
      <path
         d="M 0,0 H 400 V 120 H 0 Z"
         id="path44" />
    </clipPath>
    <clipPath
       clipPathUnits="userSpaceOnUse"
       id="clipPath46">
      <path
         d="M 0,0 H 400 V 120 H 0 Z"
         id="path46" />
    </clipPath>
    <clipPath
       clipPathUnits="userSpaceOnUse"
       id="clipPath48">
      <path
         d="M 0,0 H 400 V 120 H 0 Z"
         id="path48" />
    </clipPath>
    <clipPath
       clipPathUnits="userSpaceOnUse"
       id="clipPath50">
      <path
         d="M 0,0 H 400 V 120 H 0 Z"
         id="path50" />
    </clipPath>
    <clipPath
       clipPathUnits="userSpaceOnUse"
       id="clipPath52">
      <path
         d="M 0,0 H 400 V 120 H 0 Z"
         id="path52" />
    </clipPath>
    <clipPath
       clipPathUnits="userSpaceOnUse"
       id="clipPath54">
      <path
         d="M 0,0 H 400 V 120 H 0 Z"
         id="path54" />
    </clipPath>
    <clipPath
       clipPathUnits="userSpaceOnUse"
       id="clipPath56">
      <path
         d="M 0,0 H 400 V 120 H 0 Z"
         id="path56" />
    </clipPath>
    <clipPath
       clipPathUnits="userSpaceOnUse"
       id="clipPath58">
      <path
         d="M 0,0 H 400 V 120 H 0 Z"
         id="path58" />
    </clipPath>
    <clipPath
       clipPathUnits="userSpaceOnUse"
       id="clipPath60">
      <path
         d="M 0,0 H 400 V 120 H 0 Z"
         id="path60" />
    </clipPath>
    <clipPath
       clipPathUnits="userSpaceOnUse"
       id="clipPath62">
      <path
         d="M 0,0 H 400 V 120 H 0 Z"
         id="path62" />
    </clipPath>
    <clipPath
       clipPathUnits="userSpaceOnUse"
       id="clipPath64">
      <path
         d="M 0,0 H 400 V 120 H 0 Z"
         id="path64" />
    </clipPath>
    <clipPath
       clipPathUnits="userSpaceOnUse"
       id="clipPath66">
      <path
         d="M 0,0 H 400 V 120 H 0 Z"
         id="path66" />
    </clipPath>
    <clipPath
       clipPathUnits="userSpaceOnUse"
       id="clipPath68">
      <path
         d="M 0,0 H 400 V 120 H 0 Z"
         id="path68" />
    </clipPath>
    <clipPath
       clipPathUnits="userSpaceOnUse"
       id="clipPath70">
      <path
         d="M 0,0 H 400 V 120 H 0 Z"
         id="path70" />
    </clipPath>
    <clipPath
       clipPathUnits="userSpaceOnUse"
       id="clipPath72">
      <path
         d="M 0,0 H 400 V 120 H 0 Z"
         id="path72" />
    </clipPath>
    <clipPath
       clipPathUnits="userSpaceOnUse"
       id="clipPath74">
      <path
         d="M 0,0 H 400 V 120 H 0 Z"
         id="path74" />
    </clipPath>
    <clipPath
       clipPathUnits="userSpaceOnUse"
       id="clipPath76">
      <path
         d="M 0,0 H 400 V 120 H 0 Z"
         id="path76" />
    </clipPath>
    <clipPath
       clipPathUnits="userSpaceOnUse"
       id="clipPath78">
      <path
         d="M 0,0 H 400 V 120 H 0 Z"
         id="path78" />
    </clipPath>
    <clipPath
       clipPathUnits="userSpaceOnUse"
       id="clipPath80">
      <path
         d="M 0,0 H 400 V 120 H 0 Z"
         id="path80" />
    </clipPath>
    <clipPath
       clipPathUnits="userSpaceOnUse"
       id="clipPath82">
      <path
         d="M 0,0 H 400 V 120 H 0 Z"
         id="path82" />
    </clipPath>
    <clipPath
       clipPathUnits="userSpaceOnUse"
       id="clipPath84">
      <path
         d="M 0,0 H 400 V 120 H 0 Z"
         id="path84" />
    </clipPath>
    <clipPath
       clipPathUnits="userSpaceOnUse"
       id="clipPath86">
      <path
         d="M 0,0 H 400 V 120 H 0 Z"
         id="path86" />
    </clipPath>
    <clipPath
       clipPathUnits="userSpaceOnUse"
       id="clipPath88">
      <path
         d="M 0,0 H 400 V 120 H 0 Z"
         id="path88" />
    </clipPath>
    <clipPath
       clipPathUnits="userSpaceOnUse"
       id="clipPath90">
      <path
         d="M 0,0 H 400 V 120 H 0 Z"
         id="path90" />
    </clipPath>
    <clipPath
       clipPathUnits="userSpaceOnUse"
       id="clipPath92">
      <path
         d="M 0,0 H 400 V 120 H 0 Z"
         id="path92" />
    </clipPath>
    <clipPath
       clipPathUnits="userSpaceOnUse"
       id="clipPath94">
      <path
         d="M 0,0 H 400 V 120 H 0 Z"
         id="path94" />
    </clipPath>
    <clipPath
       clipPathUnits="userSpaceOnUse"
       id="clipPath96">
      <path
         d="M 0,0 H 400 V 120 H 0 Z"
         id="path96" />
    </clipPath>
    <clipPath
       clipPathUnits="userSpaceOnUse"
       id="clipPath98">
      <path
         d="M 0,0 H 400 V 120 H 0 Z"
         id="path98" />
    </clipPath>
    <clipPath
       clipPathUnits="userSpaceOnUse"
       id="clipPath100">
      <path
         d="M 0,0 H 400 V 120 H 0 Z"
         id="path100" />
    </clipPath>
    <clipPath
       clipPathUnits="userSpaceOnUse"
       id="clipPath102">
      <path
         d="M 0,0 H 400 V 120 H 0 Z"
         id="path102" />
    </clipPath>
    <clipPath
       clipPathUnits="userSpaceOnUse"
       id="clipPath104">
      <path
         d="M 0,0 H 400 V 120 H 0 Z"
         id="path104" />
    </clipPath>
    <clipPath
       clipPathUnits="userSpaceOnUse"
       id="clipPath106">
      <path
         d="M 0,0 H 400 V 120 H 0 Z"
         id="path106" />
    </clipPath>
    <clipPath
       clipPathUnits="userSpaceOnUse"
       id="clipPath108">
      <path
         d="M 0,0 H 400 V 120 H 0 Z"
         id="path108" />
    </clipPath>
    <clipPath
       clipPathUnits="userSpaceOnUse"
       id="clipPath110">
      <path
         d="M 0,0 H 400 V 120 H 0 Z"
         id="path110" />
    </clipPath>
    <clipPath
       clipPathUnits="userSpaceOnUse"
       id="clipPath112">
      <path
         d="M 0,0 H 400 V 120 H 0 Z"
         id="path112" />
    </clipPath>
    <clipPath
       clipPathUnits="userSpaceOnUse"
       id="clipPath114">
      <path
         d="M 0,0 H 400 V 120 H 0 Z"
         id="path114" />
    </clipPath>
    <clipPath
       clipPathUnits="userSpaceOnUse"
       id="clipPath116">
      <path
         d="M 0,0 H 400 V 120 H 0 Z"
         id="path116" />
    </clipPath>
    <clipPath
       clipPathUnits="userSpaceOnUse"
       id="clipPath118">
      <path
         d="M 0,0 H 400 V 120 H 0 Z"
         id="path118" />
    </clipPath>
    <clipPath
       clipPathUnits="userSpaceOnUse"
       id="clipPath120">
      <path
         d="M 0,0 H 400 V 120 H 0 Z"
         id="path120" />
    </clipPath>
    <clipPath
       clipPathUnits="userSpaceOnUse"
       id="clipPath122">
      <path
         d="M 0,0 H 400 V 120 H 0 Z"
         id="path122" />
    </clipPath>
    <clipPath
       clipPathUnits="userSpaceOnUse"
       id="clipPath124">
      <path
         d="M 0,0 H 400 V 120 H 0 Z"
         id="path124" />
    </clipPath>
    <clipPath
       clipPathUnits="userSpaceOnUse"
       id="clipPath126">
      <path
         d="M 0,0 H 400 V 120 H 0 Z"
         id="path126" />
    </clipPath>
    <clipPath
       clipPathUnits="userSpaceOnUse"
       id="clipPath128">
      <path
         d="M 0,0 H 400 V 120 H 0 Z"
         id="path128" />
    </clipPath>
    <clipPath
       clipPathUnits="userSpaceOnUse"
       id="clipPath130">
      <path
         d="M 0,0 H 400 V 120 H 0 Z"
         id="path130" />
    </clipPath>
    <clipPath
       clipPathUnits="userSpaceOnUse"
       id="clipPath132">
      <path
         d="M 0,0 H 400 V 120 H 0 Z"
         id="path132" />
    </clipPath>
    <clipPath
       clipPathUnits="userSpaceOnUse"
       id="clipPath134">
      <path
         d="M 0,0 H 400 V 120 H 0 Z"
         id="path134" />
    </clipPath>
    <clipPath
       clipPathUnits="userSpaceOnUse"
       id="clipPath136">
      <path
         d="M 0,0 H 400 V 120 H 0 Z"
         id="path136" />
    </clipPath>
    <clipPath
       clipPathUnits="userSpaceOnUse"
       id="clipPath138">
      <path
         d="M 0,0 H 400 V 120 H 0 Z"
         id="path138" />
    </clipPath>
  </defs>
  <sodipodi:namedview
     id="namedview12"
     pagecolor="#505050"
     bordercolor="#eeeeee"
     borderopacity="1"
     inkscape:showpageshadow="0"
     inkscape:pageopacity="0"
     inkscape:pagecheckerboard="0"
     inkscape:deskcolor="#d1d1d1"
     inkscape:zoom="24.875"
     inkscape:cx="11.979899"
     inkscape:cy="8.8241206"
     inkscape:window-width="1536"
     inkscape:window-height="793"
     inkscape:window-x="-8"
     inkscape:window-y="-8"
     inkscape:window-maximized="1"
     inkscape:current-layer="svg12" />
  <g
     id="g2"
     transform="matrix(0.17477722,0,0,0.17477722,-0.02256939,-0.08190892)">
    <path
       id="path1-4"
       d="M 55.26,0.52 55.22,13.78"
       style="fill:none;stroke:#4a607e;stroke-width:1;stroke-linecap:butt;stroke-linejoin:miter;stroke-miterlimit:10;stroke-dasharray:none;stroke-opacity:1"
       transform="matrix(0.63994667,0,0,0.63994667,0,0.53968)"
       clip-path="url(#clipPath2)" />
    <path
       id="path3-4"
       d="M 55.22,13.78 C 49.19,13.84 43.2,13.95 37.26,14.1 34.34,14.17 31.42,14.18 28.5,14.13 19.2,13.98 9.87,13.88 0.51,13.84"
       style="fill:none;stroke:#6891cb;stroke-width:1;stroke-linecap:butt;stroke-linejoin:miter;stroke-miterlimit:10;stroke-dasharray:none;stroke-opacity:1"
       transform="matrix(0.63994667,0,0,0.63994667,0,0.53968)"
       clip-path="url(#clipPath4)" />
    <path
       id="path5"
       d="m 38.45,42.48 c -2.75,0.31 -5.07,0.15 -6.96,-0.49"
       style="fill:none;stroke:#636f87;stroke-width:1;stroke-linecap:butt;stroke-linejoin:miter;stroke-miterlimit:10;stroke-dasharray:none;stroke-opacity:1"
       transform="matrix(0.63994667,0,0,0.63994667,0,0.53968)"
       clip-path="url(#clipPath6)" />
    <path
       id="path7-6"
       d="m 31.49,41.99 0.03,-13.76 c 0,-0.33 0.16,-0.5 0.49,-0.5 l 22.72,0.01 c 0.32,0 0.48,-0.16 0.48,-0.47 l 0.01,-13.49"
       style="fill:none;stroke:#556682;stroke-width:1;stroke-linecap:butt;stroke-linejoin:miter;stroke-miterlimit:10;stroke-dasharray:none;stroke-opacity:1"
       transform="matrix(0.63994667,0,0,0.63994667,0,0.53968)"
       clip-path="url(#clipPath8)" />
    <path
       id="path9-1"
       d="M 31.49,41.99 C 25.91,41.54 20.32,41.45 14.73,41.7 14.14,41.73 13.83,41.33 13.14,41.38 8.98,41.7 4.77,41.81 0.51,41.71"
       style="fill:none;stroke:#80a0d3;stroke-width:1;stroke-linecap:butt;stroke-linejoin:miter;stroke-miterlimit:10;stroke-dasharray:none;stroke-opacity:1"
       transform="matrix(0.63994667,0,0,0.63994667,0,0.53968)"
       clip-path="url(#clipPath10)" />
    <path
       id="path11"
       d="M 53.62,42.56 53.55,49.4"
       style="fill:none;stroke:#636f87;stroke-width:1;stroke-linecap:butt;stroke-linejoin:miter;stroke-miterlimit:10;stroke-dasharray:none;stroke-opacity:1"
       transform="matrix(0.63994667,0,0,0.63994667,0,0.53968)"
       clip-path="url(#clipPath12)" />
    <path
       id="path13"
       d="M 53.55,49.4 0.52,49.62"
       style="fill:none;stroke:#94adda;stroke-width:1;stroke-linecap:butt;stroke-linejoin:miter;stroke-miterlimit:10;stroke-dasharray:none;stroke-opacity:1"
       transform="matrix(0.63994667,0,0,0.63994667,0,0.53968)"
       clip-path="url(#clipPath14)" />
    <path
       id="path15"
       d="M 53.55,60.13 C 45.41,58.89 38.74,59.83 31.26,59.49 20.99,59.02 10.74,59.16 0.51,59.93"
       style="fill:none;stroke:#a6bbe1;stroke-width:1;stroke-linecap:butt;stroke-linejoin:miter;stroke-miterlimit:10;stroke-dasharray:none;stroke-opacity:1"
       transform="matrix(0.63994667,0,0,0.63994667,0,0.53968)"
       clip-path="url(#clipPath16)" />
    <path
       id="path17"
       d="m 0.64,114.78 5.22,-0.31"
       style="fill:none;stroke:#1c4a67;stroke-width:1;stroke-linecap:butt;stroke-linejoin:miter;stroke-miterlimit:10;stroke-dasharray:none;stroke-opacity:1"
       transform="matrix(0.63994667,0,0,0.63994667,0,0.53968)"
       clip-path="url(#clipPath18)" />
    <path
       id="path19"
       d="m 5.86,114.47 25.32,0.06 c 0.22,0 0.33,-0.11 0.33,-0.33 L 31.47,98.69"
       style="fill:none;stroke:#9b9a9a;stroke-width:1;stroke-linecap:butt;stroke-linejoin:miter;stroke-miterlimit:10;stroke-dasharray:none;stroke-opacity:1"
       transform="matrix(0.63994667,0,0,0.63994667,0,0.53968)"
       clip-path="url(#clipPath20)" />
    <path
       id="path21"
       d="M 31.47,98.69 31.39,92.12"
       style="fill:none;stroke:#1c4a67;stroke-width:1;stroke-linecap:butt;stroke-linejoin:miter;stroke-miterlimit:10;stroke-dasharray:none;stroke-opacity:1"
       transform="matrix(0.63994667,0,0,0.63994667,0,0.53968)"
       clip-path="url(#clipPath22)" />
    <path
       id="path23"
       d="m 31.39,92.12 0.08,-5.63"
       style="fill:none;stroke:#8d8f95;stroke-width:1;stroke-linecap:butt;stroke-linejoin:miter;stroke-miterlimit:10;stroke-dasharray:none;stroke-opacity:1"
       transform="matrix(0.63994667,0,0,0.63994667,0,0.53968)"
       clip-path="url(#clipPath24)" />
    <path
       id="path25"
       d="M 31.47,86.49 31.5,73.87"
       style="fill:none;stroke:#1c4a67;stroke-width:1;stroke-linecap:butt;stroke-linejoin:miter;stroke-miterlimit:10;stroke-dasharray:none;stroke-opacity:1"
       transform="matrix(0.63994667,0,0,0.63994667,0,0.53968)"
       clip-path="url(#clipPath26)" />
    <path
       id="path27"
       d="m 31.5,73.87 0.04,-3.62 c 0,-0.31 0.16,-0.47 0.47,-0.47 h 21 c 0.39,0 0.58,-0.19 0.57,-0.57 l -0.03,-9.08"
       style="fill:none;stroke:#757d8d;stroke-width:1;stroke-linecap:butt;stroke-linejoin:miter;stroke-miterlimit:10;stroke-dasharray:none;stroke-opacity:1"
       transform="matrix(0.63994667,0,0,0.63994667,0,0.53968)"
       clip-path="url(#clipPath28)" />
    <path
       id="path29"
       d="M 53.55,60.13 V 49.4"
       style="fill:none;stroke:#687389;stroke-width:1;stroke-linecap:butt;stroke-linejoin:miter;stroke-miterlimit:10;stroke-dasharray:none;stroke-opacity:1"
       transform="matrix(0.63994667,0,0,0.63994667,0,0.53968)"
       clip-path="url(#clipPath30)" />
    <path
       id="path31"
       d="M 31.5,73.87 C 19.93,75.61 10.08,80.24 0.52,86.72"
       style="fill:none;stroke:#5a91bf;stroke-width:1;stroke-linecap:butt;stroke-linejoin:miter;stroke-miterlimit:10;stroke-dasharray:none;stroke-opacity:1"
       transform="matrix(0.63994667,0,0,0.63994667,0,0.53968)"
       clip-path="url(#clipPath32)" />
    <path
       id="path33"
       d="M 31.39,92.12 C 18.22,94.87 10.2,100.89 0.56,109.61"
       style="fill:none;stroke:#72a3c7;stroke-width:1;stroke-linecap:butt;stroke-linejoin:miter;stroke-miterlimit:10;stroke-dasharray:none;stroke-opacity:1"
       transform="matrix(0.63994667,0,0,0.63994667,0,0.53968)"
       clip-path="url(#clipPath34)" />
    <path
       id="path35"
       d="m 31.47,98.69 c -9.9,3.01 -18.44,8.27 -25.61,15.78"
       style="fill:none;stroke:#80afcc;stroke-width:1;stroke-linecap:butt;stroke-linejoin:miter;stroke-miterlimit:10;stroke-dasharray:none;stroke-opacity:1"
       transform="matrix(0.63994667,0,0,0.63994667,0,0.53968)"
       clip-path="url(#clipPath36)" />
    <path
       id="path37"
       d="m 31.47,86.49 c -11.74,2.15 -22.01,8 -30.94,15.77"
       style="fill:none;stroke:#72a3c7;stroke-width:1;stroke-linecap:butt;stroke-linejoin:miter;stroke-miterlimit:10;stroke-dasharray:none;stroke-opacity:1"
       transform="matrix(0.63994667,0,0,0.63994667,0,0.53968)"
       clip-path="url(#clipPath38)" />
    <path
       id="path39"
       d="m 98.06,0.53 0.09,12.64"
       style="fill:none;stroke:#4a607e;stroke-width:1;stroke-linecap:butt;stroke-linejoin:miter;stroke-miterlimit:10;stroke-dasharray:none;stroke-opacity:1"
       transform="matrix(0.63994667,0,0,0.63994667,0,0.53968)"
       clip-path="url(#clipPath40)" />
    <path
       id="path41"
       d="M 98.15,13.17 67.24,12.56"
       style="fill:none;stroke:#6891cb;stroke-width:1;stroke-linecap:butt;stroke-linejoin:miter;stroke-miterlimit:10;stroke-dasharray:none;stroke-opacity:1"
       transform="matrix(0.63994667,0,0,0.63994667,0,0.53968)"
       clip-path="url(#clipPath42)" />
    <path
       id="path43"
       d="m 104.91,87.33 -6.24,-0.07 c -0.36,0 -0.54,-0.18 -0.54,-0.54 l 0.01,-10.85"
       style="fill:none;stroke:#818591;stroke-width:1;stroke-linecap:butt;stroke-linejoin:miter;stroke-miterlimit:10;stroke-dasharray:none;stroke-opacity:1"
       transform="matrix(0.63994667,0,0,0.63994667,0,0.53968)"
       clip-path="url(#clipPath44)" />
    <path
       id="path45"
       d="M 98.14,75.87 V 61.98"
       style="fill:none;stroke:#757d8d;stroke-width:1;stroke-linecap:butt;stroke-linejoin:miter;stroke-miterlimit:10;stroke-dasharray:none;stroke-opacity:1"
       transform="matrix(0.63994667,0,0,0.63994667,0,0.53968)"
       clip-path="url(#clipPath46)" />
    <path
       id="path47"
       d="M 98.14,61.98 V 43.27"
       style="fill:none;stroke:#687389;stroke-width:1;stroke-linecap:butt;stroke-linejoin:miter;stroke-miterlimit:10;stroke-dasharray:none;stroke-opacity:1"
       transform="matrix(0.63994667,0,0,0.63994667,0,0.53968)"
       clip-path="url(#clipPath48)" />
    <path
       id="path49"
       d="m 98.14,43.27 0.02,-7.46"
       style="fill:none;stroke:#636f87;stroke-width:1;stroke-linecap:butt;stroke-linejoin:miter;stroke-miterlimit:10;stroke-dasharray:none;stroke-opacity:1"
       transform="matrix(0.63994667,0,0,0.63994667,0,0.53968)"
       clip-path="url(#clipPath50)" />
    <path
       id="path51"
       d="M 98.16,35.81 98.15,13.17"
       style="fill:none;stroke:#556682;stroke-width:1;stroke-linecap:butt;stroke-linejoin:miter;stroke-miterlimit:10;stroke-dasharray:none;stroke-opacity:1"
       transform="matrix(0.63994667,0,0,0.63994667,0,0.53968)"
       clip-path="url(#clipPath52)" />
    <path
       id="path53"
       d="m 98.16,35.81 c -1.52,-0.01 -3.16,0 -4.91,0.01 -0.48,0.01 -0.79,0.11 -0.94,0.31 -0.06,0.08 -0.16,0.13 -0.27,0.13 -6.67,-0.31 -12.61,-0.24 -17.8,0.19 -2.49,0.21 -4.82,0.08 -6.99,-0.39"
       style="fill:none;stroke:#80a0d3;stroke-width:1;stroke-linecap:butt;stroke-linejoin:miter;stroke-miterlimit:10;stroke-dasharray:none;stroke-opacity:1"
       transform="matrix(0.63994667,0,0,0.63994667,0,0.53968)"
       clip-path="url(#clipPath54)" />
    <path
       id="path55"
       d="m 98.14,61.98 -0.21,-0.27 c -0.18,-0.23 -0.4,-0.27 -0.65,-0.14 l -0.36,0.19 c -0.18,0.1 -0.37,0.15 -0.57,0.14 l -29.1,-0.13"
       style="fill:none;stroke:#a6bbe1;stroke-width:1;stroke-linecap:butt;stroke-linejoin:miter;stroke-miterlimit:10;stroke-dasharray:none;stroke-opacity:1"
       transform="matrix(0.63994667,0,0,0.63994667,0,0.53968)"
       clip-path="url(#clipPath56)" />
    <path
       id="path57"
       d="M 98.14,75.87 67.26,76.08"
       style="fill:none;stroke:#bfcde9;stroke-width:1;stroke-linecap:butt;stroke-linejoin:miter;stroke-miterlimit:10;stroke-dasharray:none;stroke-opacity:1"
       transform="matrix(0.63994667,0,0,0.63994667,0,0.53968)"
       clip-path="url(#clipPath58)" />
    <path
       id="path59"
       d="m 112.98,87.5 c -4.27,-0.04 -8.52,0.06 -12.74,0.31 -1.01,0.07 -2.01,0.2 -3,0.4 -2.35,0.48 -4.95,0.2 -7.75,0.36 -1.27,0.07 -3.7,-0.18 -7.31,-0.74 -0.31,-0.05 -0.58,0.04 -0.8,0.26 l -0.67,0.66"
       style="fill:none;stroke:#d7dff1;stroke-width:1;stroke-linecap:butt;stroke-linejoin:miter;stroke-miterlimit:10;stroke-dasharray:none;stroke-opacity:1"
       transform="matrix(0.63994667,0,0,0.63994667,0,0.53968)"
       clip-path="url(#clipPath60)" />
    <path
       id="path61"
       d="M 80.71,88.75 67.25,82.18"
       style="fill:none;stroke:#669ac3;stroke-width:1;stroke-linecap:butt;stroke-linejoin:miter;stroke-miterlimit:10;stroke-dasharray:none;stroke-opacity:1"
       transform="matrix(0.63994667,0,0,0.63994667,0,0.53968)"
       clip-path="url(#clipPath62)" />
    <path
       id="path63"
       d="m 98.14,43.27 -30.9,0.39"
       style="fill:none;stroke:#94adda;stroke-width:1;stroke-linecap:butt;stroke-linejoin:miter;stroke-miterlimit:10;stroke-dasharray:none;stroke-opacity:1"
       transform="matrix(0.63994667,0,0,0.63994667,0,0.53968)"
       clip-path="url(#clipPath64)" />
    <path
       id="path65"
       d="m 80.71,88.75 c 11.11,5.04 23.2,9.23 35.61,4.63"
       style="fill:none;stroke:#72a3c7;stroke-width:1;stroke-linecap:butt;stroke-linejoin:miter;stroke-miterlimit:10;stroke-dasharray:none;stroke-opacity:1"
       transform="matrix(0.63994667,0,0,0.63994667,0,0.53968)"
       clip-path="url(#clipPath66)" />
    <path
       id="path67"
       d="m 116.32,93.38 5.85,12.15"
       style="fill:none;stroke:#1c4a67;stroke-width:1;stroke-linecap:butt;stroke-linejoin:miter;stroke-miterlimit:10;stroke-dasharray:none;stroke-opacity:1"
       transform="matrix(0.63994667,0,0,0.63994667,0,0.53968)"
       clip-path="url(#clipPath68)" />
    <path
       id="path69"
       d="m 122.17,105.53 c -18.16,7.03 -39.21,0.79 -54.95,-9.39"
       style="fill:none;stroke:#80afcc;stroke-width:1;stroke-linecap:butt;stroke-linejoin:miter;stroke-miterlimit:10;stroke-dasharray:none;stroke-opacity:1"
       transform="matrix(0.63994667,0,0,0.63994667,0,0.53968)"
       clip-path="url(#clipPath70)" />
    <path
       id="path71"
       d="m 113.62,87.5 2.7,5.88"
       style="fill:none;stroke:#8d8f95;stroke-width:1;stroke-linecap:butt;stroke-linejoin:miter;stroke-miterlimit:10;stroke-dasharray:none;stroke-opacity:1"
       transform="matrix(0.63994667,0,0,0.63994667,0,0.53968)"
       clip-path="url(#clipPath72)" />
    <path
       id="path73"
       d="M 67.24,114.53 81.82,114.4"
       style="fill:none;stroke:#9b9a9a;stroke-width:1;stroke-linecap:butt;stroke-linejoin:miter;stroke-miterlimit:10;stroke-dasharray:none;stroke-opacity:1"
       transform="matrix(0.63994667,0,0,0.63994667,0,0.53968)"
       clip-path="url(#clipPath74)" />
    <path
       id="path75"
       d="m 81.82,114.4 14.07,-0.25"
       style="fill:none;stroke:#1c4a67;stroke-width:1;stroke-linecap:butt;stroke-linejoin:miter;stroke-miterlimit:10;stroke-dasharray:none;stroke-opacity:1"
       transform="matrix(0.63994667,0,0,0.63994667,0,0.53968)"
       clip-path="url(#clipPath76)" />
    <path
       id="path77"
       d="m 95.89,114.15 30.05,0.38 c 0.39,0.01 0.5,-0.16 0.33,-0.51 l -4.1,-8.49"
       style="fill:none;stroke:#9b9a9a;stroke-width:1;stroke-linecap:butt;stroke-linejoin:miter;stroke-miterlimit:10;stroke-dasharray:none;stroke-opacity:1"
       transform="matrix(0.63994667,0,0,0.63994667,0,0.53968)"
       clip-path="url(#clipPath78)" />
    <path
       id="path79"
       d="M 95.89,114.15 C 85.81,110.88 76.28,106.77 67.3,101.81"
       style="fill:none;stroke:#80afcc;stroke-width:1;stroke-linecap:butt;stroke-linejoin:miter;stroke-miterlimit:10;stroke-dasharray:none;stroke-opacity:1"
       transform="matrix(0.63994667,0,0,0.63994667,0,0.53968)"
       clip-path="url(#clipPath80)" />
    <path
       id="path81"
       d="m 81.82,114.4 c -5.01,-1.67 -9.89,-3.83 -14.63,-6.48"
       style="fill:none;stroke:#80afcc;stroke-width:1;stroke-linecap:butt;stroke-linejoin:miter;stroke-miterlimit:10;stroke-dasharray:none;stroke-opacity:1"
       transform="matrix(0.63994667,0,0,0.63994667,0,0.53968)"
       clip-path="url(#clipPath82)" />
    <path
       id="path83"
       d="m 182.23,3.98 c 4.74,3.45 8.57,5.35 12.85,10.49"
       style="fill:none;stroke:#4a607e;stroke-width:1;stroke-linecap:butt;stroke-linejoin:miter;stroke-miterlimit:10;stroke-dasharray:none;stroke-opacity:1"
       transform="matrix(0.63994667,0,0,0.63994667,0,0.53968)"
       clip-path="url(#clipPath84)" />
    <path
       id="path85"
       d="m 195.08,14.47 c -0.38,0.19 -0.7,0.31 -0.96,0.38 -0.09,0.03 -0.16,0.02 -0.23,-0.01 -0.11,-0.05 -0.19,-0.13 -0.23,-0.22 -0.09,-0.19 -0.23,-0.3 -0.43,-0.33 -2.85,-0.45 -5.73,-0.56 -8.62,-0.33 -0.07,0.01 -0.13,-0.03 -0.16,-0.1 -0.05,-0.11 -0.08,-0.19 -0.09,-0.26 -0.01,-0.08 -0.05,-0.12 -0.13,-0.12 l -49.14,0.24"
       style="fill:none;stroke:#6891cb;stroke-width:1;stroke-linecap:butt;stroke-linejoin:miter;stroke-miterlimit:10;stroke-dasharray:none;stroke-opacity:1"
       transform="matrix(0.63994667,0,0,0.63994667,0,0.53968)"
       clip-path="url(#clipPath86)" />
    <path
       id="path87"
       d="m 205.97,38.4 c -3.43,-0.63 -6.59,-0.78 -9.48,-0.43 -1.11,0.13 -1.74,-0.09 -2.55,-0.09 -6.23,0.01 -12.45,0.05 -18.67,0.13 -0.27,0 -0.34,0.12 -0.22,0.35 0.32,0.62 0.11,1.15 -0.64,1.6"
       style="fill:none;stroke:#80a0d3;stroke-width:1;stroke-linecap:butt;stroke-linejoin:miter;stroke-miterlimit:10;stroke-dasharray:none;stroke-opacity:1"
       transform="matrix(0.63994667,0,0,0.63994667,0,0.53968)"
       clip-path="url(#clipPath88)" />
    <path
       id="path89"
       d="m 171.99,32.67 c -1.73,-3.35 -4.08,-4.99 -7.05,-4.92 -5.87,0.15 -9.02,6.97 -10.14,12.05"
       style="fill:none;stroke:#556682;stroke-width:1;stroke-linecap:butt;stroke-linejoin:miter;stroke-miterlimit:10;stroke-dasharray:none;stroke-opacity:1"
       transform="matrix(0.63994667,0,0,0.63994667,0,0.53968)"
       clip-path="url(#clipPath90)" />
    <path
       id="path91"
       d="m 154.8,39.8 c -0.62,-0.11 -0.95,-0.52 -0.99,-1.22 -0.02,-0.33 -0.2,-0.49 -0.54,-0.48 -6.34,0.26 -12.68,0.31 -19.03,0.15 -2.78,-0.07 -4.77,0.03 -5.98,0.29 -1.78,0.38 -3.53,0.12 -5.26,-0.77"
       style="fill:none;stroke:#80a0d3;stroke-width:1;stroke-linecap:butt;stroke-linejoin:miter;stroke-miterlimit:10;stroke-dasharray:none;stroke-opacity:1"
       transform="matrix(0.63994667,0,0,0.63994667,0,0.53968)"
       clip-path="url(#clipPath92)" />
    <path
       id="path93"
       d="m 145.15,109.62 c 7.5,3.91 15.45,5.52 23.85,4.83 5.77,-0.47 11.29,-2.34 16.55,-5.59"
       style="fill:none;stroke:#9b9a9a;stroke-width:1;stroke-linecap:butt;stroke-linejoin:miter;stroke-miterlimit:10;stroke-dasharray:none;stroke-opacity:1"
       transform="matrix(0.63994667,0,0,0.63994667,0,0.53968)"
       clip-path="url(#clipPath94)" />
    <path
       id="path95"
       d="m 185.55,108.86 4.7,-3.76"
       style="fill:none;stroke:#1c4a67;stroke-width:1;stroke-linecap:butt;stroke-linejoin:miter;stroke-miterlimit:10;stroke-dasharray:none;stroke-opacity:1"
       transform="matrix(0.63994667,0,0,0.63994667,0,0.53968)"
       clip-path="url(#clipPath96)" />
    <path
       id="path97"
       d="m 190.25,105.1 5.08,-5.34"
       style="fill:none;stroke:#8d8f95;stroke-width:1;stroke-linecap:butt;stroke-linejoin:miter;stroke-miterlimit:10;stroke-dasharray:none;stroke-opacity:1"
       transform="matrix(0.63994667,0,0,0.63994667,0,0.53968)"
       clip-path="url(#clipPath98)" />
    <path
       id="path99"
       d="m 195.33,99.76 c 2.77,-3.34 5,-7 6.69,-10.97"
       style="fill:none;stroke:#1c4a67;stroke-width:1;stroke-linecap:butt;stroke-linejoin:miter;stroke-miterlimit:10;stroke-dasharray:none;stroke-opacity:1"
       transform="matrix(0.63994667,0,0,0.63994667,0,0.53968)"
       clip-path="url(#clipPath100)" />
    <path
       id="path101"
       d="m 202.02,88.79 c 3.75,-8.75 5.66,-17.76 5.73,-27.01"
       style="fill:none;stroke:#757d8d;stroke-width:1;stroke-linecap:butt;stroke-linejoin:miter;stroke-miterlimit:10;stroke-dasharray:none;stroke-opacity:1"
       transform="matrix(0.63994667,0,0,0.63994667,0,0.53968)"
       clip-path="url(#clipPath102)" />
    <path
       id="path103"
       d="m 207.75,61.78 0.12,-5.32"
       style="fill:none;stroke:#687389;stroke-width:1;stroke-linecap:butt;stroke-linejoin:miter;stroke-miterlimit:10;stroke-dasharray:none;stroke-opacity:1"
       transform="matrix(0.63994667,0,0,0.63994667,0,0.53968)"
       clip-path="url(#clipPath104)" />
    <path
       id="path105"
       d="m 207.87,56.46 c 0.03,-6.07 -0.61,-12.09 -1.9,-18.06"
       style="fill:none;stroke:#636f87;stroke-width:1;stroke-linecap:butt;stroke-linejoin:miter;stroke-miterlimit:10;stroke-dasharray:none;stroke-opacity:1"
       transform="matrix(0.63994667,0,0,0.63994667,0,0.53968)"
       clip-path="url(#clipPath106)" />
    <path
       id="path107"
       d="M 205.97,38.4 C 204.24,29.48 200.61,21.5 195.08,14.47"
       style="fill:none;stroke:#556682;stroke-width:1;stroke-linecap:butt;stroke-linejoin:miter;stroke-miterlimit:10;stroke-dasharray:none;stroke-opacity:1"
       transform="matrix(0.63994667,0,0,0.63994667,0,0.53968)"
       clip-path="url(#clipPath108)" />
    <path
       id="path109"
       d="m 163.97,87.29 c -1.92,-0.01 -2.9,-1.23 -4.77,-1.21"
       style="fill:none;stroke:#8d8f95;stroke-width:1;stroke-linecap:butt;stroke-linejoin:miter;stroke-miterlimit:10;stroke-dasharray:none;stroke-opacity:1"
       transform="matrix(0.63994667,0,0,0.63994667,0,0.53968)"
       clip-path="url(#clipPath110)" />
    <path
       id="path111"
       d="m 159.2,86.08 c 0.17,0.09 0.3,0.02 0.39,-0.23 0.06,-0.2 0.03,-0.38 -0.09,-0.55 -2.67,-3.56 -4.39,-7.44 -5.15,-11.63"
       style="fill:none;stroke:#1c4a67;stroke-width:1;stroke-linecap:butt;stroke-linejoin:miter;stroke-miterlimit:10;stroke-dasharray:none;stroke-opacity:1"
       transform="matrix(0.63994667,0,0,0.63994667,0,0.53968)"
       clip-path="url(#clipPath112)" />
    <path
       id="path113"
       d="M 154.35,73.67 153.02,62"
       style="fill:none;stroke:#757d8d;stroke-width:1;stroke-linecap:butt;stroke-linejoin:miter;stroke-miterlimit:10;stroke-dasharray:none;stroke-opacity:1"
       transform="matrix(0.63994667,0,0,0.63994667,0,0.53968)"
       clip-path="url(#clipPath114)" />
    <path
       id="path115"
       d="m 153.02,62 -0.03,-6.6"
       style="fill:none;stroke:#687389;stroke-width:1;stroke-linecap:butt;stroke-linejoin:miter;stroke-miterlimit:10;stroke-dasharray:none;stroke-opacity:1"
       transform="matrix(0.63994667,0,0,0.63994667,0,0.53968)"
       clip-path="url(#clipPath116)" />
    <path
       id="path117"
       d="m 152.99,55.4 c 0.03,-5.53 0.63,-10.73 1.81,-15.6"
       style="fill:none;stroke:#636f87;stroke-width:1;stroke-linecap:butt;stroke-linejoin:miter;stroke-miterlimit:10;stroke-dasharray:none;stroke-opacity:1"
       transform="matrix(0.63994667,0,0,0.63994667,0,0.53968)"
       clip-path="url(#clipPath118)" />
    <path
       id="path119"
       d="m 207.87,56.46 c 0.03,-0.31 0.01,-0.61 -0.08,-0.9 -0.11,-0.34 -0.34,-0.51 -0.7,-0.5 -6.7,0.13 -13.39,0.15 -20.08,0.06 -0.93,-0.01 -1.84,0.11 -2.71,0.36 -2.41,0.7 -4.78,0.79 -7.1,0.26 -0.4,-0.09 -0.79,0.18 -0.85,0.58 l -0.57,3.75"
       style="fill:none;stroke:#94adda;stroke-width:1;stroke-linecap:butt;stroke-linejoin:miter;stroke-miterlimit:10;stroke-dasharray:none;stroke-opacity:1"
       transform="matrix(0.63994667,0,0,0.63994667,0,0.53968)"
       clip-path="url(#clipPath120)" />
    <path
       id="path121"
       d="m 152.99,55.4 c -1.05,-0.45 -1.98,-0.62 -2.81,-0.51 -5.59,0.8 -12.22,0.24 -17.93,0.23 -0.57,0 -1.23,0.54 -2.03,0.5 -1.89,-0.09 -5.08,0.71 -6.67,-0.11 -0.98,-0.5 -2.15,0.13 -2.29,1.22 l -0.24,2"
       style="fill:none;stroke:#94adda;stroke-width:1;stroke-linecap:butt;stroke-linejoin:miter;stroke-miterlimit:10;stroke-dasharray:none;stroke-opacity:1"
       transform="matrix(0.63994667,0,0,0.63994667,0,0.53968)"
       clip-path="url(#clipPath122)" />
    <path
       id="path123"
       d="M 190.25,105.1 C 174.56,90.27 153.56,90.16 136.81,103.17"
       style="fill:none;stroke:#72a3c7;stroke-width:1;stroke-linecap:butt;stroke-linejoin:miter;stroke-miterlimit:10;stroke-dasharray:none;stroke-opacity:1"
       transform="matrix(0.63994667,0,0,0.63994667,0,0.53968)"
       clip-path="url(#clipPath124)" />
    <path
       id="path125"
       d="M 185.55,108.86 C 171.36,97.21 156.85,96.73 142.02,107.43"
       style="fill:none;stroke:#80afcc;stroke-width:1;stroke-linecap:butt;stroke-linejoin:miter;stroke-miterlimit:10;stroke-dasharray:none;stroke-opacity:1"
       transform="matrix(0.63994667,0,0,0.63994667,0,0.53968)"
       clip-path="url(#clipPath126)" />
    <path
       id="path127"
       d="M 202.02,88.79 C 193.93,81.21 184.75,77.32 174.31,74.14"
       style="fill:none;stroke:#5a91bf;stroke-width:1;stroke-linecap:butt;stroke-linejoin:miter;stroke-miterlimit:10;stroke-dasharray:none;stroke-opacity:1"
       transform="matrix(0.63994667,0,0,0.63994667,0,0.53968)"
       clip-path="url(#clipPath128)" />
    <path
       id="path129"
       d="M 195.33,99.76 C 187.18,93.18 178.21,88.65 168.4,86.16"
       style="fill:none;stroke:#72a3c7;stroke-width:1;stroke-linecap:butt;stroke-linejoin:miter;stroke-miterlimit:10;stroke-dasharray:none;stroke-opacity:1"
       transform="matrix(0.63994667,0,0,0.63994667,0,0.53968)"
       clip-path="url(#clipPath130)" />
    <path
       id="path131"
       d="m 207.75,61.78 -32.01,0.55"
       style="fill:none;stroke:#a6bbe1;stroke-width:1;stroke-linecap:butt;stroke-linejoin:miter;stroke-miterlimit:10;stroke-dasharray:none;stroke-opacity:1"
       transform="matrix(0.63994667,0,0,0.63994667,0,0.53968)"
       clip-path="url(#clipPath132)" />
    <path
       id="path133"
       d="m 153.02,62 -31.06,-0.1 c -0.34,0 -0.53,0.17 -0.58,0.5 l -0.17,1.06"
       style="fill:none;stroke:#a6bbe1;stroke-width:1;stroke-linecap:butt;stroke-linejoin:miter;stroke-miterlimit:10;stroke-dasharray:none;stroke-opacity:1"
       transform="matrix(0.63994667,0,0,0.63994667,0,0.53968)"
       clip-path="url(#clipPath134)" />
    <path
       id="path135"
       d="M 154.35,73.67 C 143.6,75.46 134.02,79.5 125.6,85.78"
       style="fill:none;stroke:#5a91bf;stroke-width:1;stroke-linecap:butt;stroke-linejoin:miter;stroke-miterlimit:10;stroke-dasharray:none;stroke-opacity:1"
       transform="matrix(0.63994667,0,0,0.63994667,0,0.53968)"
       clip-path="url(#clipPath136)" />
    <path
       id="path137"
       d="m 159.2,86.08 c -9.83,1.43 -18.86,5.37 -27.11,11.81"
       style="fill:none;stroke:#72a3c7;stroke-width:1;stroke-linecap:butt;stroke-linejoin:miter;stroke-miterlimit:10;stroke-dasharray:none;stroke-opacity:1"
       transform="matrix(0.63994667,0,0,0.63994667,0,0.53968)"
       clip-path="url(#clipPath138)" />
    <path
       id="path259"
       d="M 55.26,0.52 55.22,13.78 C 49.19,13.84 43.2,13.95 37.26,14.1 34.34,14.17 31.42,14.18 28.5,14.13 19.2,13.98 9.87,13.88 0.51,13.84 L 0.53,1.1 c 0,-0.38 0.19,-0.57 0.56,-0.57 z"
       style="fill:#5d8bc7;fill-opacity:1;fill-rule:nonzero;stroke:none"
       transform="matrix(0.63994667,0,0,0.63994667,0,0.53968)" />
    <path
       id="path260"
       d="m 55.26,0.52 6.47,4.71 c 0.27,0.19 0.4,0.45 0.4,0.78 v 26.02 c 0,0.44 -0.22,0.66 -0.66,0.66 L 38.86,32.68 c -0.28,0 -0.42,0.14 -0.42,0.42 l 0.01,9.38 c -2.75,0.31 -5.07,0.15 -6.96,-0.49 l 0.03,-13.76 c 0,-0.33 0.16,-0.5 0.49,-0.5 l 22.72,0.01 c 0.32,0 0.48,-0.16 0.48,-0.47 l 0.01,-13.49 z"
       style="fill:#373535;fill-opacity:1;fill-rule:nonzero;stroke:none"
       transform="matrix(0.63994667,0,0,0.63994667,0,0.53968)" />
    <path
       id="path261"
       d="M 98.06,0.53 98.15,13.17 67.24,12.56 67.23,1.07 c 0,-0.36 0.18,-0.54 0.55,-0.54 z"
       style="fill:#5d8bc7;fill-opacity:1;fill-rule:nonzero;stroke:none"
       transform="matrix(0.63994667,0,0,0.63994667,0,0.53968)" />
    <path
       id="path262"
       d="m 98.06,0.53 6.43,4.63 c 0.27,0.19 0.41,0.46 0.41,0.8 l 0.01,81.37 -6.24,-0.07 c -0.36,0 -0.54,-0.18 -0.54,-0.54 L 98.14,75.87 V 61.98 43.27 l 0.02,-7.46 -0.01,-22.64 z"
       style="fill:#373535;fill-opacity:1;fill-rule:nonzero;stroke:none"
       transform="matrix(0.63994667,0,0,0.63994667,0,0.53968)" />
    <path
       id="path263"
       d="m 182.23,3.98 c 4.74,3.45 8.57,5.35 12.85,10.49 -0.38,0.19 -0.7,0.31 -0.96,0.38 -0.09,0.03 -0.16,0.02 -0.23,-0.01 -0.11,-0.05 -0.19,-0.13 -0.23,-0.22 -0.09,-0.19 -0.23,-0.3 -0.43,-0.33 -2.85,-0.45 -5.73,-0.56 -8.62,-0.33 -0.07,0.01 -0.13,-0.03 -0.16,-0.1 -0.05,-0.11 -0.08,-0.19 -0.09,-0.26 -0.01,-0.08 -0.05,-0.12 -0.13,-0.12 l -49.14,0.24 C 147.26,0.24 165.82,-3.05 182.23,3.98 Z"
       style="fill:#5d8bc7;fill-opacity:1;fill-rule:nonzero;stroke:none"
       transform="matrix(0.63994667,0,0,0.63994667,0,0.53968)" />
    <path
       id="path266"
       d="m 182.23,3.98 c 1.73,0.65 3.34,1.46 4.85,2.41 24.08,15.22 30.05,41.29 26.94,68.11 -2.26,19.56 -13.59,40.71 -34.79,44.44 -12.81,2.25 -24.17,-0.85 -34.08,-9.32 7.5,3.91 15.45,5.52 23.85,4.83 5.77,-0.47 11.29,-2.34 16.55,-5.59 l 4.7,-3.76 5.08,-5.34 c 2.77,-3.34 5,-7 6.69,-10.97 3.75,-8.75 5.66,-17.76 5.73,-27.01 l 0.12,-5.32 C 207.9,50.39 207.26,44.37 205.97,38.4 204.24,29.48 200.61,21.5 195.08,14.47 190.8,9.33 186.97,7.43 182.23,3.98 Z"
       style="fill:#373535;fill-opacity:1;fill-rule:nonzero;stroke:none"
       transform="matrix(0.63994667,0,0,0.63994667,0,0.53968)" />
    <path
       id="path269"
       d="m 98.15,13.17 0.01,22.64 c -1.52,-0.01 -3.16,0 -4.91,0.01 -0.48,0.01 -0.79,0.11 -0.94,0.31 -0.06,0.08 -0.16,0.13 -0.27,0.13 -6.67,-0.31 -12.61,-0.24 -17.8,0.19 -2.49,0.21 -4.82,0.08 -6.99,-0.39 l -0.01,-23.5 z"
       style="fill:#7297ce;fill-opacity:1;fill-rule:nonzero;stroke:none"
       transform="matrix(0.63994667,0,0,0.63994667,0,0.53968)" />
    <path
       id="path271"
       d="m 55.22,13.78 -0.01,13.49 c 0,0.31 -0.16,0.47 -0.48,0.47 L 32.01,27.73 c -0.33,0 -0.49,0.17 -0.49,0.5 L 31.49,41.99 C 25.91,41.54 20.32,41.45 14.73,41.7 14.14,41.73 13.83,41.33 13.14,41.38 8.98,41.7 4.77,41.81 0.51,41.71 V 13.84 c 9.36,0.04 18.69,0.14 27.99,0.29 2.92,0.05 5.84,0.04 8.76,-0.03 5.94,-0.15 11.93,-0.26 17.96,-0.32 z"
       style="fill:#7297ce;fill-opacity:1;fill-rule:nonzero;stroke:none"
       transform="matrix(0.63994667,0,0,0.63994667,0,0.53968)" />
    <path
       id="path272"
       d="m 195.08,14.47 c 5.53,7.03 9.16,15.01 10.89,23.93 -3.43,-0.63 -6.59,-0.78 -9.48,-0.43 -1.11,0.13 -1.74,-0.09 -2.55,-0.09 -6.23,0.01 -12.45,0.05 -18.67,0.13 -0.27,0 -0.34,0.12 -0.22,0.35 0.32,0.62 0.11,1.15 -0.64,1.6 l -2.42,-7.29 c -1.73,-3.35 -4.08,-4.99 -7.05,-4.92 -5.87,0.15 -9.02,6.97 -10.14,12.05 -0.62,-0.11 -0.95,-0.52 -0.99,-1.22 -0.02,-0.33 -0.2,-0.49 -0.54,-0.48 -6.34,0.26 -12.68,0.31 -19.03,0.15 -2.78,-0.07 -4.77,0.03 -5.98,0.29 -1.78,0.38 -3.53,0.12 -5.26,-0.77 1.9,-9.15 5.93,-17.16 12.09,-24.05 l 49.14,-0.24 c 0.08,0 0.12,0.04 0.13,0.12 0.01,0.07 0.04,0.15 0.09,0.26 0.03,0.07 0.09,0.11 0.16,0.1 2.89,-0.23 5.77,-0.12 8.62,0.33 0.2,0.03 0.34,0.14 0.43,0.33 0.04,0.09 0.12,0.17 0.23,0.22 0.07,0.03 0.14,0.04 0.23,0.01 0.26,-0.07 0.58,-0.19 0.96,-0.38 z"
       style="fill:#7297ce;fill-opacity:1;fill-rule:nonzero;stroke:none"
       transform="matrix(0.63994667,0,0,0.63994667,0,0.53968)" />
    <path
       id="path274"
       d="m 171.99,32.67 c -14.85,1.1 -12.51,34.77 -11.18,44.07 0.52,3.64 1.57,7.16 3.16,10.55 -1.92,-0.01 -2.9,-1.23 -4.77,-1.21 0.17,0.09 0.3,0.02 0.39,-0.23 0.06,-0.2 0.03,-0.38 -0.09,-0.55 -2.67,-3.56 -4.39,-7.44 -5.15,-11.63 L 153.02,62 152.99,55.4 c 0.03,-5.53 0.63,-10.73 1.81,-15.6 1.12,-5.08 4.27,-11.9 10.14,-12.05 2.97,-0.07 5.32,1.57 7.05,4.92 z"
       style="fill:#373535;fill-opacity:1;fill-rule:nonzero;stroke:none"
       transform="matrix(0.63994667,0,0,0.63994667,0,0.53968)" />
    <path
       id="path277"
       d="m 98.16,35.81 -0.02,7.46 -30.9,0.39 0.01,-7.6 c 2.17,0.47 4.5,0.6 6.99,0.39 5.19,-0.43 11.13,-0.5 17.8,-0.19 0.11,0 0.21,-0.05 0.27,-0.13 0.15,-0.2 0.46,-0.3 0.94,-0.31 1.75,-0.01 3.39,-0.02 4.91,-0.01 z"
       style="fill:#8ea9d8;fill-opacity:1;fill-rule:nonzero;stroke:none"
       transform="matrix(0.63994667,0,0,0.63994667,0,0.53968)" />
    <path
       id="path280"
       d="m 154.8,39.8 c -1.18,4.87 -1.78,10.07 -1.81,15.6 -1.05,-0.45 -1.98,-0.62 -2.81,-0.51 -5.59,0.8 -12.22,0.24 -17.93,0.23 -0.57,0 -1.23,0.54 -2.03,0.5 -1.89,-0.09 -5.08,0.71 -6.67,-0.11 -0.98,-0.5 -2.15,0.13 -2.29,1.22 l -0.24,2 c -0.28,-6.95 0.38,-13.94 1.98,-20.96 1.73,0.89 3.48,1.15 5.26,0.77 1.21,-0.26 3.2,-0.36 5.98,-0.29 6.35,0.16 12.69,0.11 19.03,-0.15 0.34,-0.01 0.52,0.15 0.54,0.48 0.04,0.7 0.37,1.11 0.99,1.22 z"
       style="fill:#8ea9d8;fill-opacity:1;fill-rule:nonzero;stroke:none"
       transform="matrix(0.63994667,0,0,0.63994667,0,0.53968)" />
    <path
       id="path281"
       d="m 205.97,38.4 c 1.29,5.97 1.93,11.99 1.9,18.06 0.03,-0.31 0.01,-0.61 -0.08,-0.9 -0.11,-0.34 -0.34,-0.51 -0.7,-0.5 -6.7,0.13 -13.39,0.15 -20.08,0.06 -0.93,-0.01 -1.84,0.11 -2.71,0.36 -2.41,0.7 -4.78,0.79 -7.1,0.26 -0.4,-0.09 -0.79,0.18 -0.85,0.58 l -0.57,3.75 c 0.2,-6.78 -0.26,-13.48 -1.37,-20.11 0.75,-0.45 0.96,-0.98 0.64,-1.6 -0.12,-0.23 -0.05,-0.35 0.22,-0.35 6.22,-0.08 12.44,-0.12 18.67,-0.13 0.81,0 1.44,0.22 2.55,0.09 2.89,-0.35 6.05,-0.2 9.48,0.43 z"
       style="fill:#8ea9d8;fill-opacity:1;fill-rule:nonzero;stroke:none"
       transform="matrix(0.63994667,0,0,0.63994667,0,0.53968)" />
    <path
       id="path282"
       d="m 31.49,41.99 c 1.89,0.64 4.21,0.8 6.96,0.49 L 53.62,42.56 53.55,49.4 0.52,49.62 0.51,41.71 c 4.26,0.1 8.47,-0.01 12.63,-0.33 0.69,-0.05 1,0.35 1.59,0.32 5.59,-0.25 11.18,-0.16 16.76,0.29 z"
       style="fill:#8ea9d8;fill-opacity:1;fill-rule:nonzero;stroke:none"
       transform="matrix(0.63994667,0,0,0.63994667,0,0.53968)" />
    <path
       id="path283"
       d="m 53.62,42.56 6.51,4.8 c 0.23,0.17 0.34,0.39 0.34,0.67 v 26.23 c 0,0.27 -0.21,0.49 -0.48,0.49 H 38.97 c -0.35,0 -0.53,0.18 -0.53,0.53 l -0.03,43.67 c 0,0.34 -0.27,0.61 -0.61,0.61 h -30 c -0.33,0 -0.64,-0.1 -0.91,-0.29 l -6.25,-4.49 5.22,-0.31 25.32,0.06 c 0.22,0 0.33,-0.11 0.33,-0.33 l -0.04,-15.51 -0.08,-6.57 0.08,-5.63 0.03,-12.62 0.04,-3.62 c 0,-0.31 0.16,-0.47 0.47,-0.47 h 21 c 0.39,0 0.58,-0.19 0.57,-0.57 L 53.55,60.13 V 49.4 Z"
       style="fill:#373535;fill-opacity:1;fill-rule:nonzero;stroke:none"
       transform="matrix(0.63994667,0,0,0.63994667,0,0.53968)" />
    <path
       id="path284"
       d="m 98.14,43.27 v 18.71 l -0.21,-0.27 c -0.18,-0.23 -0.4,-0.27 -0.65,-0.14 l -0.36,0.19 c -0.18,0.1 -0.37,0.15 -0.57,0.14 L 67.25,61.77 67.24,43.66 Z"
       style="fill:#99b1dc;fill-opacity:1;fill-rule:nonzero;stroke:none"
       transform="matrix(0.63994667,0,0,0.63994667,0,0.53968)" />
    <path
       id="path285"
       d="M 53.55,49.4 V 60.13 C 45.41,58.89 38.74,59.83 31.26,59.49 20.99,59.02 10.74,59.16 0.51,59.93 L 0.52,49.62 Z"
       style="fill:#99b1dc;fill-opacity:1;fill-rule:nonzero;stroke:none"
       transform="matrix(0.63994667,0,0,0.63994667,0,0.53968)" />
    <path
       id="path290"
       d="m 152.99,55.4 0.03,6.6 -31.06,-0.1 c -0.34,0 -0.53,0.17 -0.58,0.5 l -0.17,1.06 -0.19,-4.73 0.24,-2 c 0.14,-1.09 1.31,-1.72 2.29,-1.22 1.59,0.82 4.78,0.02 6.67,0.11 0.8,0.04 1.46,-0.5 2.03,-0.5 5.71,0.01 12.34,0.57 17.93,-0.23 0.83,-0.11 1.76,0.06 2.81,0.51 z"
       style="fill:#99b1dc;fill-opacity:1;fill-rule:nonzero;stroke:none"
       transform="matrix(0.63994667,0,0,0.63994667,0,0.53968)" />
    <path
       id="path291"
       d="m 207.87,56.46 -0.12,5.32 -32.01,0.55 0.04,-2.26 0.57,-3.75 c 0.06,-0.4 0.45,-0.67 0.85,-0.58 2.32,0.53 4.69,0.44 7.1,-0.26 0.87,-0.25 1.78,-0.37 2.71,-0.36 6.69,0.09 13.38,0.07 20.08,-0.06 0.36,-0.01 0.59,0.16 0.7,0.5 0.09,0.29 0.11,0.59 0.08,0.9 z"
       style="fill:#99b1dc;fill-opacity:1;fill-rule:nonzero;stroke:none"
       transform="matrix(0.63994667,0,0,0.63994667,0,0.53968)" />
    <path
       id="path295"
       d="m 53.55,60.13 0.03,9.08 c 0.01,0.38 -0.18,0.57 -0.57,0.57 h -21 c -0.31,0 -0.47,0.16 -0.47,0.47 L 31.5,73.87 C 19.93,75.61 10.08,80.24 0.52,86.72 L 0.51,59.93 c 10.23,-0.77 20.48,-0.91 30.75,-0.44 7.48,0.34 14.15,-0.6 22.29,0.64 z"
       style="fill:#b3c4e5;fill-opacity:1;fill-rule:nonzero;stroke:none"
       transform="matrix(0.63994667,0,0,0.63994667,0,0.53968)" />
    <path
       id="path297"
       d="m 98.14,61.98 v 13.89 l -30.88,0.21 -0.01,-14.31 29.1,0.13 c 0.2,0.01 0.39,-0.04 0.57,-0.14 l 0.36,-0.19 c 0.25,-0.13 0.47,-0.09 0.65,0.14 z"
       style="fill:#b3c4e5;fill-opacity:1;fill-rule:nonzero;stroke:none"
       transform="matrix(0.63994667,0,0,0.63994667,0,0.53968)" />
    <path
       id="path298"
       d="m 207.75,61.78 c -0.07,9.25 -1.98,18.26 -5.73,27.01 -8.09,-7.58 -17.27,-11.47 -27.71,-14.65 l 1.43,-11.81 z"
       style="fill:#b3c4e5;fill-opacity:1;fill-rule:nonzero;stroke:none"
       transform="matrix(0.63994667,0,0,0.63994667,0,0.53968)" />
    <path
       id="path300"
       d="m 153.02,62 1.33,11.67 c -10.75,1.79 -20.33,5.83 -28.75,12.11 -2.59,-7.19 -4.05,-14.63 -4.39,-22.32 l 0.17,-1.06 c 0.05,-0.33 0.24,-0.5 0.58,-0.5 z"
       style="fill:#b3c4e5;fill-opacity:1;fill-rule:nonzero;stroke:none"
       transform="matrix(0.63994667,0,0,0.63994667,0,0.53968)" />
    <path
       id="path303"
       d="m 154.35,73.67 c 0.76,4.19 2.48,8.07 5.15,11.63 0.12,0.17 0.15,0.35 0.09,0.55 -0.09,0.25 -0.22,0.32 -0.39,0.23 -9.83,1.43 -18.86,5.37 -27.11,11.81 -2.75,-3.7 -4.91,-7.74 -6.49,-12.11 8.42,-6.28 18,-10.32 28.75,-12.11 z"
       style="fill:#005e99;fill-opacity:1;fill-rule:nonzero;stroke:none"
       transform="matrix(0.63994667,0,0,0.63994667,0,0.53968)" />
    <path
       id="path304"
       d="m 31.5,73.87 -0.03,12.62 c -11.74,2.15 -22.01,8 -30.94,15.77 L 0.52,86.72 C 10.08,80.24 19.93,75.61 31.5,73.87 Z"
       style="fill:#005e99;fill-opacity:1;fill-rule:nonzero;stroke:none"
       transform="matrix(0.63994667,0,0,0.63994667,0,0.53968)" />
    <path
       id="path305"
       d="m 174.31,74.14 c 10.44,3.18 19.62,7.07 27.71,14.65 -1.69,3.97 -3.92,7.63 -6.69,10.97 -8.15,-6.58 -17.12,-11.11 -26.93,-13.6 3.14,-3.15 5.11,-7.16 5.91,-12.02 z"
       style="fill:#005e99;fill-opacity:1;fill-rule:nonzero;stroke:none"
       transform="matrix(0.63994667,0,0,0.63994667,0,0.53968)" />
    <path
       id="path306"
       d="m 98.14,75.87 -0.01,10.85 c 0,0.36 0.18,0.54 0.54,0.54 l 6.24,0.07 8.07,0.17 c -4.27,-0.04 -8.52,0.06 -12.74,0.31 -1.01,0.07 -2.01,0.2 -3,0.4 -2.35,0.48 -4.95,0.2 -7.75,0.36 -1.27,0.07 -3.7,-0.18 -7.31,-0.74 -0.31,-0.05 -0.58,0.04 -0.8,0.26 l -0.67,0.66 -13.46,-6.57 0.01,-6.1 z"
       style="fill:#cbd5ed;fill-opacity:1;fill-rule:nonzero;stroke:none"
       transform="matrix(0.63994667,0,0,0.63994667,0,0.53968)" />
    <path
       id="path310"
       d="m 67.25,82.18 13.46,6.57 c 11.11,5.04 23.2,9.23 35.61,4.63 l 5.85,12.15 c -18.16,7.03 -39.21,0.79 -54.95,-9.39 z"
       style="fill:#005e99;fill-opacity:1;fill-rule:nonzero;stroke:none"
       transform="matrix(0.63994667,0,0,0.63994667,0,0.53968)" />
    <path
       id="path311"
       d="m 163.97,87.29 c 1.35,0.14 2.83,-0.24 4.43,-1.13 9.81,2.49 18.78,7.02 26.93,13.6 l -5.08,5.34 C 174.56,90.27 153.56,90.16 136.81,103.17 l -4.72,-5.28 c 8.25,-6.44 17.28,-10.38 27.11,-11.81 1.87,-0.02 2.85,1.2 4.77,1.21 z"
       style="fill:#e3e8f5;fill-opacity:1;fill-rule:nonzero;stroke:none"
       transform="matrix(0.63994667,0,0,0.63994667,0,0.53968)" />
    <path
       id="path312"
       d="m 31.47,86.49 -0.08,5.63 C 18.22,94.87 10.2,100.89 0.56,109.61 L 0.53,102.26 C 9.46,94.49 19.73,88.64 31.47,86.49 Z"
       style="fill:#e3e8f5;fill-opacity:1;fill-rule:nonzero;stroke:none"
       transform="matrix(0.63994667,0,0,0.63994667,0,0.53968)" />
    <path
       id="path313"
       d="m 112.98,87.5 h 0.64 l 2.7,5.88 c -12.41,4.6 -24.5,0.41 -35.61,-4.63 l 0.67,-0.66 c 0.22,-0.22 0.49,-0.31 0.8,-0.26 3.61,0.56 6.04,0.81 7.31,0.74 2.8,-0.16 5.4,0.12 7.75,-0.36 0.99,-0.2 1.99,-0.33 3,-0.4 4.22,-0.25 8.47,-0.35 12.74,-0.31 z"
       style="fill:#e3e8f5;fill-opacity:1;fill-rule:nonzero;stroke:none"
       transform="matrix(0.63994667,0,0,0.63994667,0,0.53968)" />
    <path
       id="path314"
       d="m 113.62,87.5 c 1.67,1.16 3.28,2.34 4.83,3.53 1.21,0.93 2.17,2.12 2.86,3.57 3.95,8.25 7.91,16.46 11.86,24.65 0.07,0.15 -0.03,0.32 -0.2,0.32 H 74.45 c -0.36,0 -0.68,-0.11 -0.97,-0.33 l -6.24,-4.71 14.58,-0.13 14.07,-0.25 30.05,0.38 c 0.39,0.01 0.5,-0.16 0.33,-0.51 l -4.1,-8.49 -5.85,-12.15 z"
       style="fill:#373535;fill-opacity:1;fill-rule:nonzero;stroke:none"
       transform="matrix(0.63994667,0,0,0.63994667,0,0.53968)" />
    <path
       id="path318"
       d="m 31.39,92.12 0.08,6.57 c -9.9,3.01 -18.44,8.27 -25.61,15.78 l -5.22,0.31 -0.08,-5.17 C 10.2,100.89 18.22,94.87 31.39,92.12 Z"
       style="fill:#005e99;fill-opacity:1;fill-rule:nonzero;stroke:none"
       transform="matrix(0.63994667,0,0,0.63994667,0,0.53968)" />
    <path
       id="path319"
       d="m 190.25,105.1 -4.7,3.76 c -14.19,-11.65 -28.7,-12.13 -43.53,-1.43 l -5.21,-4.26 c 16.75,-13.01 37.75,-12.9 53.44,1.93 z"
       style="fill:#005e99;fill-opacity:1;fill-rule:nonzero;stroke:none"
       transform="matrix(0.63994667,0,0,0.63994667,0,0.53968)" />
    <path
       id="path320"
       d="m 67.22,96.14 c 15.74,10.18 36.79,16.42 54.95,9.39 l 4.1,8.49 c 0.17,0.35 0.06,0.52 -0.33,0.51 L 95.89,114.15 C 85.81,110.88 76.28,106.77 67.3,101.81 Z"
       style="fill:#ffffff;fill-opacity:1;fill-rule:nonzero;stroke:none"
       transform="matrix(0.63994667,0,0,0.63994667,0,0.53968)" />
    <path
       id="path322"
       d="m 31.47,98.69 0.04,15.51 c 0,0.22 -0.11,0.33 -0.33,0.33 L 5.86,114.47 c 7.17,-7.51 15.71,-12.77 25.61,-15.78 z"
       style="fill:#ffffff;fill-opacity:1;fill-rule:nonzero;stroke:none"
       transform="matrix(0.63994667,0,0,0.63994667,0,0.53968)" />
    <path
       id="path324"
       d="m 185.55,108.86 c -5.26,3.25 -10.78,5.12 -16.55,5.59 -8.4,0.69 -16.35,-0.92 -23.85,-4.83 l -3.13,-2.19 c 14.83,-10.7 29.34,-10.22 43.53,1.43 z"
       style="fill:#ffffff;fill-opacity:1;fill-rule:nonzero;stroke:none"
       transform="matrix(0.63994667,0,0,0.63994667,0,0.53968)" />
    <path
       id="path326"
       d="m 67.3,101.81 c 8.98,4.96 18.51,9.07 28.59,12.34 l -14.07,0.25 c -5.01,-1.67 -9.89,-3.83 -14.63,-6.48 z"
       style="fill:#005e99;fill-opacity:1;fill-rule:nonzero;stroke:none"
       transform="matrix(0.63994667,0,0,0.63994667,0,0.53968)" />
    <path
       id="path330"
       d="m 67.19,107.92 c 4.74,2.65 9.62,4.81 14.63,6.48 l -14.58,0.13 z"
       style="fill:#ffffff;fill-opacity:1;fill-rule:nonzero;stroke:none"
       transform="matrix(0.63994667,0,0,0.63994667,0,0.53968)" />
  </g>
  <g
     fill="none"
     fill-rule="evenodd"
     stroke-width="0.934"
     id="g12"
     transform="matrix(0.69574351,0,0,0.69574351,3.7826788,7.7875257)">
    <g
       transform="matrix(-1.07085,0,0,-1.07027,22.8,15.3)"
       id="g5">
      <path
         d="M 10.142,13.944 0,7.892 V 0.128 L 10.142,6.18 Z"
         fill="#806600"
         height="100%"
         width="100%"
         id="path1" />
      <path
         d="m 0.25,0.569 v 7.18 l 9.642,5.754 v -7.18 z"
         stroke="#000000"
         stroke-width="0.467"
         id="path2" />
      <g
         transform="matrix(-1,0,0,1,30.425,0)"
         id="g4">
        <path
           d="M 20.283,13.944 10.142,7.892 V 0.128 L 20.283,6.18 Z"
           fill="#806600"
           height="100%"
           width="100%"
           id="path3" />
        <path
           d="m 10.392,0.569 v 7.18 l 9.641,5.754 v -7.18 z"
           stroke="#000000"
           stroke-width="0.467"
           id="path4" />
      </g>
    </g>
    <g
       transform="matrix(1.07085,0,0,1.07027,3.867,-0.293)"
       id="g7">
      <circle
         cx="7.6269999"
         cy="7.8759999"
         fill="#6e96c4"
         r="7.599"
         id="circle5" />
      <g
         transform="translate(0.95,1.199)"
         id="g6">
        <circle
           cx="6.73"
           cy="6.598"
           fill="#2e4e72"
           r="6.5359998"
           id="circle6" />
        <path
           d="M 12.463,4.246 12.293,4.058 12.26,3.757 12.085,3.852 11.991,4.222 11.738,3.952 11.728,3.698 11.484,3.488 11.394,3.398 H 11.11 l 0.09,0.253 0.34,0.19 0.06,0.063 -0.074,0.037 0.003,0.2 L 11.363,4.21 11.222,4.179 11.132,4.053 11.362,4.066 11.425,3.982 10.915,3.638 10.875,3.49 10.668,3.678 10.458,3.635 10.138,4.051 10.075,4.214 9.87,4.233 9.567,4.234 9.386,4.15 9.333,3.79 9.397,3.619 9.706,3.551 10.042,3.619 10.082,3.433 9.94,3.399 l 0.05,-0.29 0.337,-0.052 0.237,-0.335 0.243,-0.04 0.221,0.032 h 0.081 L 11.065,2.4 10.797,2.508 10.703,2.274 10.547,2.252 10.517,2.091 10.645,1.952 10.946,1.834 11.024,1.696 A 6.525,6.525 0 0 0 7.947,0.182 L 7.868,0.168 C 7.748,0.146 7.626,0.13 7.503,0.116 A 6.557,6.557 0 0 0 6.706,0.062 6.504,6.504 0 0 0 2.864,1.314 H 2.92 L 3.194,1.312 3.341,1.393 3.618,1.453 3.639,1.562 4.079,1.578 4.019,1.437 3.629,1.426 3.721,1.339 3.688,1.236 H 3.335 L 3.721,0.947 h 0.37 L 4.264,1.187 4.553,1.203 4.726,1.034 4.856,1.1 4.618,1.333 4.302,1.339 c 0.017,0 0.028,0.228 0.028,0.228 L 4.732,1.557 4.775,1.447 5.052,1.431 5.085,1.269 4.922,1.241 4.976,1.094 5.101,1.056 5.536,1.077 5.296,1.295 5.335,1.464 5.585,1.502 5.568,1.198 5.808,1.073 6.232,1.023 6.846,1.295 V 1.529 L 7.041,1.578 6.943,1.763 H 6.667 L 6.584,1.974 5.95,1.825 6.448,1.56 6.258,1.399 5.829,1.453 5.791,1.492 H 5.79 L 5.784,1.5 5.66,1.628 5.456,1.645 5.473,1.747 5.544,1.777 5.541,1.81 5.375,1.834 5.363,1.931 5.203,1.939 5.175,1.747 4.889,1.834 4.307,2.176 4.371,2.416 4.534,2.522 4.86,2.567 v 0.37 L 5.01,2.913 5.15,2.623 5.497,2.514 V 2.069 L 5.689,1.924 6.156,2.034 6.122,2.328 H 6.248 L 6.59,2.159 6.607,2.545 6.857,2.697 6.846,2.926 6.606,3.006 6.623,3.083 6.911,3.213 6.905,3.371 6.822,3.378 6.821,3.374 6.457,3.262 6.442,3.145 6.548,3.072 V 2.966 L 6.434,2.937 6.406,3.035 6.205,3.066 6.185,3.059 v 0.01 L 6.115,3.08 6.059,2.966 5.994,2.937 H 5.85 L 5.785,2.991 V 3.109 L 5.907,3.149 6.028,3.166 6.001,3.178 5.891,3.3 5.843,3.24 5.736,3.211 5.446,3.484 5.485,3.514 5.057,3.751 4.654,4.17 4.627,4.356 4.224,4.621 4.024,4.822 4.047,5.224 3.769,5.094 3.771,4.86 H 3.001 L 2.601,5.062 2.427,5.382 2.358,5.636 2.471,5.882 2.785,5.92 3.285,5.585 3.329,5.751 3.177,6.039 3.557,6.104 3.596,6.692 3.644,6.7 H 3.648 L 4.118,6.78 4.448,6.398 4.851,6.479 4.992,6.676 5.378,6.653 5.388,6.539 5.601,6.642 5.841,7.016 6.253,7.022 6.406,7.289 6.427,7.614 6.884,7.788 7.46,7.794 7.628,8.071 7.884,8.153 7.834,8.381 7.554,8.737 7.474,9.524 7.22,9.724 6.846,9.712 6.72,9.93 6.813,10.338 6.406,10.86 6.275,11.1 l -0.389,0.186 -0.255,0.039 -0.01,0.108 0.179,0.052 -0.023,0.116 -0.16,0.155 0.098,0.123 0.193,0.006 -0.011,0.149 -0.051,0.147 -0.017,0.12 0.286,0.24 L 6.077,12.666 5.687,12.659 5.3,12.321 5,11.79 5.042,11.278 4.814,10.974 4.906,10.458 4.771,10.419 V 9.3 C 4.771,9.3 4.39,9.012 4.368,9.012 4.346,9.012 4.167,8.964 4.167,8.964 L 4.129,8.752 3.634,8.132 3.684,7.91 3.7,7.546 4.042,7.306 3.993,6.898 3.493,6.861 3.102,6.415 2.825,6.339 2.645,6.306 2.667,6.143 2.438,6.111 V 6.203 L 1.868,6.062 1.638,5.71 1.718,5.566 1.623,5.565 1.595,5.473 1.662,5.439 1.37,5.013 1.308,4.627 H 1.16 L 1.21,5 1.46,5.386 1.432,5.539 1.22,5.506 0.96,5.062 V 4.544 L 0.688,4.414 V 4.041 A 6.472,6.472 0 0 0 0.328,5.165 L 0.342,5.162 0.432,5.144 0.485,5.399 0.597,5.58 0.672,5.665 0.807,5.718 0.68,5.87 0.433,5.894 H 0.247 L 0.267,5.674 0.422,5.642 0.409,5.538 0.281,5.458 0.271,5.45 A 6.55,6.55 0 0 0 0.167,6.6 v 0.035 a 6.547,6.547 0 0 0 6.54,6.505 6.53,6.53 0 0 0 5.072,-2.417 H 11.564 V 10.288 L 11.314,9.952 V 9.43 L 11.123,9.24 11.107,9.023 11.347,8.56 10.889,7.75 10.943,7.202 10.531,7.159 10.378,7.007 H 10.101 L 9.96,7.137 H 9.47 L 9.453,7.181 H 9.181 L 8.557,6.469 8.562,5.914 8.665,5.876 8.704,5.664 H 8.557 L 8.497,5.441 9.22,4.919 V 4.549 L 9.574,4.353 9.717,4.368 h 0.29 l 0.23,-0.123 0.733,-0.057 v 0.375 l 0.58,0.147 0.113,0.082 h 0.106 V 4.588 l 0.335,-0.033 0.317,0.237 h 0.522 L 12.979,4.758 A 6.44,6.44 0 0 0 12.803,4.24 Z"
           fill="#aec7e2"
           fill-rule="nonzero"
           id="path6" />
      </g>
    </g>
    <g
       id="g11">
      <path
         d="m 11.942,13.8 v 9.093 L 1.234,15.997 V 7.152 Z"
         fill="#d4aa00"
         id="path7" />
      <path
         d="m 11.942,13.793 v 9.1 L 22.651,15.997 V 7.152 Z"
         fill="#ffff7a"
         id="path8" />
      <g
         stroke="#000000"
         stroke-width="0.467"
         transform="matrix(1.07085,0,0,1.07027,1.234,7.006)"
         id="g10">
        <path
           d="m 10,6.75 v 7.77"
           stroke-linecap="square"
           id="path9" />
        <path
           d="M 0.015,0.232 V 8.403 L 10.037,14.669 20.078,8.403 V 0.232 L 10.047,6.339 Z"
           id="path10" />
      </g>
    </g>
  </g>
</svg>
