<?xml version="1.0" encoding="UTF-8" standalone="no"?>
<!-- Created with Inkscape (http://www.inkscape.org/) -->

<svg
   width="24"
   height="24"
   id="svg5692"
   version="1.1"
   inkscape:version="1.3 (0e150ed6c4, 2023-07-21)"
   sodipodi:docname="multidomains_connect.svg"
   inkscape:export-filename="/media/home1/robert/svn/graphics/trunk/toolbar-icons/32x32/layer-vector.png"
   inkscape:export-xdpi="90"
   inkscape:export-ydpi="90"
   xmlns:inkscape="http://www.inkscape.org/namespaces/inkscape"
   xmlns:sodipodi="http://sodipodi.sourceforge.net/DTD/sodipodi-0.dtd"
   xmlns:xlink="http://www.w3.org/1999/xlink"
   xmlns="http://www.w3.org/2000/svg"
   xmlns:svg="http://www.w3.org/2000/svg"
   xmlns:rdf="http://www.w3.org/1999/02/22-rdf-syntax-ns#"
   xmlns:cc="http://creativecommons.org/ns#"
   xmlns:dc="http://purl.org/dc/elements/1.1/">
  <title
     id="title2829">GIS icon theme 0.2</title>
  <defs
     id="defs5694">
    <inkscape:perspective
       sodipodi:type="inkscape:persp3d"
       inkscape:vp_x="0 : 16 : 1"
       inkscape:vp_y="0 : 1000 : 0"
       inkscape:vp_z="32 : 16 : 1"
       inkscape:persp3d-origin="16 : 10.666667 : 1"
       id="perspective3486" />
    <inkscape:perspective
       id="perspective3496"
       inkscape:persp3d-origin="0.5 : 0.33333333 : 1"
       inkscape:vp_z="1 : 0.5 : 1"
       inkscape:vp_y="0 : 1000 : 0"
       inkscape:vp_x="0 : 0.5 : 1"
       sodipodi:type="inkscape:persp3d" />
    <inkscape:perspective
       id="perspective3600"
       inkscape:persp3d-origin="0.5 : 0.33333333 : 1"
       inkscape:vp_z="1 : 0.5 : 1"
       inkscape:vp_y="0 : 1000 : 0"
       inkscape:vp_x="0 : 0.5 : 1"
       sodipodi:type="inkscape:persp3d" />
    <inkscape:perspective
       id="perspective7871"
       inkscape:persp3d-origin="0.5 : 0.33333333 : 1"
       inkscape:vp_z="1 : 0.5 : 1"
       inkscape:vp_y="0 : 1000 : 0"
       inkscape:vp_x="0 : 0.5 : 1"
       sodipodi:type="inkscape:persp3d" />
    <inkscape:perspective
       id="perspective8710"
       inkscape:persp3d-origin="0.5 : 0.33333333 : 1"
       inkscape:vp_z="1 : 0.5 : 1"
       inkscape:vp_y="0 : 1000 : 0"
       inkscape:vp_x="0 : 0.5 : 1"
       sodipodi:type="inkscape:persp3d" />
    <inkscape:perspective
       id="perspective9811"
       inkscape:persp3d-origin="0.5 : 0.33333333 : 1"
       inkscape:vp_z="1 : 0.5 : 1"
       inkscape:vp_y="0 : 1000 : 0"
       inkscape:vp_x="0 : 0.5 : 1"
       sodipodi:type="inkscape:persp3d" />
    <inkscape:perspective
       id="perspective4762"
       inkscape:persp3d-origin="0.5 : 0.33333333 : 1"
       inkscape:vp_z="1 : 0.5 : 1"
       inkscape:vp_y="0 : 1000 : 0"
       inkscape:vp_x="0 : 0.5 : 1"
       sodipodi:type="inkscape:persp3d" />
    <linearGradient
       id="linearGradient2831">
      <stop
         id="stop2833"
         offset="0"
         style="stop-color:#264976;stop-opacity:1;" />
      <stop
         style="stop-color:#3f689d;stop-opacity:1;"
         offset="0.33333334"
         id="stop2855" />
      <stop
         id="stop2835"
         offset="1"
         style="stop-color:#5689ca;stop-opacity:0;" />
    </linearGradient>
    <linearGradient
       id="linearGradient2380">
      <stop
         id="stop2382"
         offset="0"
         style="stop-color:#8cb0d8;stop-opacity:1;" />
      <stop
         id="stop2384"
         offset="1"
         style="stop-color:#4580bf;stop-opacity:1;" />
    </linearGradient>
    <linearGradient
       id="linearGradient2682">
      <stop
         id="stop2684"
         offset="0"
         style="stop-color:#2b5b95;stop-opacity:1;" />
      <stop
         id="stop2686"
         offset="1"
         style="stop-color:#5c8fce;stop-opacity:0;" />
    </linearGradient>
    <linearGradient
       id="linearGradient2402">
      <stop
         id="stop2404"
         offset="0"
         style="stop-color:#4580bf;stop-opacity:1;" />
      <stop
         id="stop2406"
         offset="1"
         style="stop-color:#376da5;stop-opacity:1;" />
    </linearGradient>
    <linearGradient
       inkscape:collect="always"
       xlink:href="#linearGradient4137"
       id="linearGradient3226"
       gradientUnits="userSpaceOnUse"
       gradientTransform="translate(-33)"
       x1="23"
       y1="15"
       x2="23"
       y2="21" />
    <linearGradient
       id="linearGradient4137">
      <stop
         id="stop4139"
         offset="0"
         style="stop-color:#555753;stop-opacity:1;" />
      <stop
         id="stop4141"
         offset="1"
         style="stop-color:#555753;stop-opacity:0;" />
    </linearGradient>
  </defs>
  <sodipodi:namedview
     id="base"
     pagecolor="#ffffff"
     bordercolor="#666666"
     borderopacity="1.0"
     inkscape:pageopacity="0.0"
     inkscape:pageshadow="2"
     inkscape:zoom="16"
     inkscape:cx="1.15625"
     inkscape:cy="4.21875"
     inkscape:current-layer="layer2"
     showgrid="false"
     inkscape:grid-bbox="true"
     inkscape:document-units="px"
     borderlayer="false"
     inkscape:window-width="1920"
     inkscape:window-height="1009"
     inkscape:window-x="3832"
     inkscape:window-y="-8"
     inkscape:window-maximized="1"
     inkscape:snap-global="false"
     showguides="false"
     inkscape:guide-bbox="true"
     inkscape:snap-object-midpoints="true"
     inkscape:snap-grids="false"
     inkscape:snap-others="false"
     inkscape:showpageshadow="0"
     inkscape:pagecheckerboard="0"
     inkscape:deskcolor="#d1d1d1">
    <inkscape:grid
       type="xygrid"
       id="grid5700"
       empspacing="5"
       visible="false"
       enabled="true"
       snapvisiblegridlinesonly="true"
       dotted="true"
       originx="2.5px"
       originy="2.5px"
       spacingy="1"
       spacingx="1"
       units="px" />
  </sodipodi:namedview>
  <metadata
     id="metadata5697">
    <rdf:RDF>
      <cc:Work
         rdf:about="">
        <dc:format>image/svg+xml</dc:format>
        <dc:type
           rdf:resource="http://purl.org/dc/dcmitype/StillImage" />
        <dc:title>GIS icon theme 0.2</dc:title>
        <dc:creator>
          <cc:Agent>
            <dc:title>Arnaud Morvan</dc:title>
          </cc:Agent>
        </dc:creator>
        <dc:rights>
          <cc:Agent>
            <dc:title>Arnaud Morvan</dc:title>
          </cc:Agent>
        </dc:rights>
        <dc:subject>
          <rdf:Bag>
            <rdf:li>GIS icons</rdf:li>
          </rdf:Bag>
        </dc:subject>
        <dc:coverage>GIS icons</dc:coverage>
        <dc:description />
        <cc:license
           rdf:resource="http://creativecommons.org/licenses/by-sa/3.0/" />
      </cc:Work>
      <cc:License
         rdf:about="http://creativecommons.org/licenses/by-sa/3.0/">
        <cc:permits
           rdf:resource="http://creativecommons.org/ns#Reproduction" />
        <cc:permits
           rdf:resource="http://creativecommons.org/ns#Distribution" />
        <cc:requires
           rdf:resource="http://creativecommons.org/ns#Notice" />
        <cc:requires
           rdf:resource="http://creativecommons.org/ns#Attribution" />
        <cc:permits
           rdf:resource="http://creativecommons.org/ns#DerivativeWorks" />
        <cc:requires
           rdf:resource="http://creativecommons.org/ns#ShareAlike" />
      </cc:License>
    </rdf:RDF>
  </metadata>
  <g
     inkscape:groupmode="layer"
     id="layer2"
     inkscape:label="Layer"
     style="display:inline"
     transform="translate(0,-8)">
    <path
       style="fill:none;fill-rule:evenodd;stroke:#000000;stroke-width:0.538272px;stroke-linecap:butt;stroke-linejoin:miter;stroke-opacity:1"
       d="m 2.6416175,10.501 c -1.000624,0.143186 -1.177552,1.529215 -0.991401,2.449597 -0.08831,1.048705 0.242476,1.997646 0.539507,2.953015 0.159103,0.891227 -0.2278199,1.873976 -0.019426,2.712958 0.181421,1.01121 -0.120456,2.593709 0.179907,3.295384 0.6493396,-1.093482 0.9887776,-1.370924 1.8960977,-2.327201 0.9816873,-0.96067 0.4761559,-0.44905 1.0874153,-1.143088 1.1086334,-0.975983 2.512038,-1.967184 4.00359,-2.123238 1.0632635,-0.269732 1.9308155,-1.275783 2.1509285,-2.490671 0.342789,-1.0299 0.464129,-2.683209 -0.619296,-3.181591 -0.9788325,-0.348564 -2.0241705,-0.363409 -3.0275915,-0.599385 -1.498415,-0.2402485 -3.050355,-0.2246225 -4.50491,0.286221 -0.234653,0.03541 -0.473055,0.06821 -0.694821,0.167999 z"
       id="path4249"
       inkscape:connector-curvature="0"
       sodipodi:nodetypes="ccccccccccccc" />
    <path
       style="display:inline;fill:none;fill-rule:evenodd;stroke:#000000;stroke-width:0.538272px;stroke-linecap:butt;stroke-linejoin:miter;stroke-opacity:1"
       d="m 6.4423509,17.465682 c -1.1086334,0.975983 -1.3355414,1.166352 -2.1960487,2.119071 -0.6112504,0.907393 -1.8960977,1.327481 -2.0152155,3.333383 0.01454,2.463624 -0.051184,3.915163 0.5791816,5.17667 0.181421,1.01121 3.291485,0.624959 4.201223,1.232884 0.598599,0.507906 1.514352,0.05092 1.60592,-0.789709 0.05378,-0.84736 0.295326,-1.69556 0.856277,-2.289955 1.0861387,-1.163433 2.5120377,-1.967184 4.0035897,-2.123238 1.063264,-0.269733 2.106935,-1.530336 2.327048,-2.745223 0.270613,-1.650203 -0.119121,-1.84781 -0.795415,-2.927039 C 14.04234,18.200346 13.440957,18.019339 11.981319,17.853141 10.85904,17.206296 10.07663,16.072122 8.6019013,16.448193 7.6867165,16.758386 6.6641169,17.365885 6.4423509,17.465682 Z"
       id="path4249-5"
       inkscape:connector-curvature="0"
       sodipodi:nodetypes="ccccccccccccc" />
    <path
       style="display:inline;fill:none;fill-rule:evenodd;stroke:#000000;stroke-width:0.538272px;stroke-linecap:butt;stroke-linejoin:miter;stroke-opacity:1"
       d="m 21.44479,11.268452 c -0.469274,-1.003747 -1.661085,-1.4407235 -2.363016,-0.922794 -0.904859,0.273754 -3.869558,-0.4601825 -4.561868,0.186757 -0.687092,0.479248 -3.118134,0.564873 -2.860555,2.617484 -0.413316,1.461167 -0.764472,2.068468 -1.582721,2.922223 0.404296,0.966988 0.999073,1.421124 1.904689,1.781019 0.72493,0.326394 1.369482,-0.0357 2.061021,0.347205 0.966571,0.25218 1.592702,0.859233 2.082398,2.408839 0.596643,1.025459 2.91664,2.209531 4.006087,2.016468 0.978184,8.33e-4 2.398463,-0.449583 2.434904,-1.764906 -0.05184,-1.152775 -0.405046,-2.25888 -0.559311,-3.398175 -0.323816,-1.662104 -0.175114,-1.792057 -0.455383,-3.14529 -0.111575,-0.234743 -0.222278,-1.322861 -0.106245,-3.04883 z"
       id="path4249-8"
       inkscape:connector-curvature="0"
       sodipodi:nodetypes="ccccccccccccc" />
    <path
       id="path4249-5-3"
       style="display:inline;fill:none;fill-rule:evenodd;stroke:#069a00;stroke-width:0.538272px;stroke-linecap:butt;stroke-linejoin:miter;stroke-opacity:1"
       d="m 10.07663,16.072122 c 0.06567,0.744816 1.288655,1.705466 1.903839,1.781394 -0.535604,-0.308705 -1.609731,-1.036578 -1.903839,-1.781394 z m 1.903839,1.781394 c 1.0435,0.283812 1.574579,-0.07593 2.061871,0.34683 -0.312437,-0.053 -2.054667,-0.150415 -2.061871,-0.34683 z m 2.167969,0.378906 c 0.76661,0.2173 1.869365,1.767578 1.9763,2.376763 0,0 -0.125476,-1.173421 -1.114972,-2.15606 -0.310103,-0.08091 -0.586002,-0.152587 -0.861328,-0.220703 z"
       sodipodi:nodetypes="cccccccccc" />
    <path
       id="path4249-3"
       style="display:inline;fill:none;fill-rule:evenodd;stroke:#ff0000;stroke-width:0.538272px;stroke-linecap:butt;stroke-linejoin:miter;stroke-opacity:1"
       d="m 11.728516,12.296875 c -0.07992,0.23708 -0.10832,0.515243 -0.06836,0.84375 0.04833,-0.274699 0.07494,-0.562721 0.06836,-0.84375 z m -0.07422,0.871094 c -0.374572,1.319181 -0.906221,2.16112 -1.577667,2.904148 0.608722,-0.466984 1.261596,-1.415778 1.411651,-2.243992 0.06683,-0.200784 0.123307,-0.42516 0.166016,-0.660156 z"
       sodipodi:nodetypes="ccccccc" />
    <path
       style="display:inline;fill:none;fill-rule:evenodd;stroke:#000000;stroke-width:0.167716;stroke-linecap:butt;stroke-linejoin:miter;stroke-miterlimit:4;stroke-dasharray:none;stroke-opacity:1"
       d="M 2.6416175,10.500999 V 21.681061"
       id="path4259-4"
       inkscape:connector-curvature="0"
       sodipodi:nodetypes="cc" />
    <path
       style="display:inline;fill:none;fill-rule:evenodd;stroke:#000000;stroke-width:0.167716;stroke-linecap:butt;stroke-linejoin:miter;stroke-miterlimit:4;stroke-dasharray:none;stroke-opacity:1"
       d="M 5.0318095,9.9662833 5.0295795,28.905245"
       id="path4261-0"
       inkscape:connector-curvature="0"
       sodipodi:nodetypes="cc" />
    <path
       style="display:inline;fill:none;fill-rule:evenodd;stroke:#000000;stroke-width:0.167716;stroke-linecap:butt;stroke-linejoin:miter;stroke-miterlimit:4;stroke-dasharray:none;stroke-opacity:1"
       d="m 7.5729609,10.092099 -0.00743,19.44808"
       id="path4263-2"
       inkscape:connector-curvature="0"
       sodipodi:nodetypes="cc" />
    <path
       style="display:inline;fill:none;fill-rule:evenodd;stroke:#000000;stroke-width:0.167716;stroke-linecap:butt;stroke-linejoin:miter;stroke-miterlimit:4;stroke-dasharray:none;stroke-opacity:1"
       d="m 9.9883129,10.532453 0.00464,15.20975"
       id="path4265-5"
       inkscape:connector-curvature="0"
       sodipodi:nodetypes="cc" />
    <path
       style="display:inline;fill:none;fill-rule:evenodd;stroke:#000000;stroke-width:0.167716;stroke-linecap:butt;stroke-linejoin:miter;stroke-miterlimit:4;stroke-dasharray:none;stroke-opacity:1"
       d="m 12.403665,11.208702 0.01039,13.137772"
       id="path4265-5-8"
       inkscape:connector-curvature="0"
       sodipodi:nodetypes="cc" />
    <path
       style="display:inline;fill:none;fill-rule:evenodd;stroke:#000000;stroke-width:0.167716;stroke-linecap:butt;stroke-linejoin:miter;stroke-miterlimit:4;stroke-dasharray:none;stroke-opacity:1"
       d="m 14.819017,10.132868 v 13.36814"
       id="path4265-5-8-9"
       inkscape:connector-curvature="0"
       sodipodi:nodetypes="cc" />
    <path
       style="display:inline;fill:none;fill-rule:evenodd;stroke:#000000;stroke-width:0.167716;stroke-linecap:butt;stroke-linejoin:miter;stroke-miterlimit:4;stroke-dasharray:none;stroke-opacity:1"
       d="m 17.226556,10.132947 0.0078,11.580069"
       id="path4265-5-8-9-2"
       inkscape:connector-curvature="0"
       sodipodi:nodetypes="cc" />
    <path
       style="display:inline;fill:none;fill-rule:evenodd;stroke:#000000;stroke-width:0.167716;stroke-linecap:butt;stroke-linejoin:miter;stroke-miterlimit:4;stroke-dasharray:none;stroke-opacity:1"
       d="m 19.649265,10.132951 4.56e-4,12.667378"
       id="path4265-5-8-9-2-6"
       inkscape:connector-curvature="0"
       sodipodi:nodetypes="cc" />
    <path
       style="display:inline;fill:none;fill-rule:evenodd;stroke:#000000;stroke-width:0.167716;stroke-linecap:butt;stroke-linejoin:miter;stroke-miterlimit:4;stroke-dasharray:none;stroke-opacity:1"
       d="m 22.065073,17.264445 0.0078,4.965025"
       id="path4265-5-8-9-2-6-3"
       inkscape:connector-curvature="0"
       sodipodi:nodetypes="cc" />
    <path
       style="display:inline;fill:none;fill-rule:evenodd;stroke:#000000;stroke-width:0.167716;stroke-linecap:butt;stroke-linejoin:miter;stroke-miterlimit:4;stroke-dasharray:none;stroke-opacity:1"
       d="M 1.333302,12.262417 H 21.397268"
       id="path4267-7"
       inkscape:connector-curvature="0"
       sodipodi:nodetypes="cc" />
    <path
       style="display:inline;fill:none;fill-rule:evenodd;stroke:#000000;stroke-width:0.167716;stroke-linecap:butt;stroke-linejoin:miter;stroke-miterlimit:4;stroke-dasharray:none;stroke-opacity:1"
       d="m 1.7376485,15.061812 19.9465555,0.0065"
       id="path4269-4"
       inkscape:connector-curvature="0"
       sodipodi:nodetypes="cc" />
    <path
       style="display:inline;fill:none;fill-rule:evenodd;stroke:#000000;stroke-width:0.167716;stroke-linecap:butt;stroke-linejoin:miter;stroke-miterlimit:4;stroke-dasharray:none;stroke-opacity:1"
       d="M 1.86166,18.049931 H 22.113686"
       id="path4271-6"
       inkscape:connector-curvature="0"
       sodipodi:nodetypes="cc" />
    <path
       style="display:inline;fill:none;fill-rule:evenodd;stroke:#000000;stroke-width:0.167716;stroke-linecap:butt;stroke-linejoin:miter;stroke-miterlimit:4;stroke-dasharray:none;stroke-opacity:1"
       d="M 2.3502045,20.912234 H 22.77529"
       id="path4273-7"
       inkscape:connector-curvature="0"
       sodipodi:nodetypes="cc" />
    <path
       style="display:inline;fill:none;fill-rule:evenodd;stroke:#000000;stroke-width:0.167716;stroke-linecap:butt;stroke-linejoin:miter;stroke-miterlimit:4;stroke-dasharray:none;stroke-opacity:1"
       d="M 2.411745,23.774537 H 14.495641"
       id="path4273-7-6"
       inkscape:connector-curvature="0"
       sodipodi:nodetypes="cc" />
    <path
       style="display:inline;fill:none;fill-rule:evenodd;stroke:#000000;stroke-width:0.167716;stroke-linecap:butt;stroke-linejoin:miter;stroke-miterlimit:4;stroke-dasharray:none;stroke-opacity:1"
       d="m 2.1157855,26.640812 7.2682113,3.9e-4"
       id="path4273-7-6-1"
       inkscape:connector-curvature="0"
       sodipodi:nodetypes="cc" />
    <path
       id="path4249-6"
       style="display:inline;fill:none;fill-rule:evenodd;stroke:#1300ff;stroke-width:0.538272px;stroke-linecap:butt;stroke-linejoin:miter;stroke-opacity:1"
       d="m 8.8710938,16.394531 c -0.087014,0.01219 -0.1773608,0.02923 -0.2695313,0.05273 -0.083921,0.02844 -0.1688794,0.06093 -0.2539063,0.09375 0.1763245,-0.05975 1.549,-0.429968 1.7289738,-0.468894 -0.004,5.37e-4 -1.2015439,0.32185 -1.2055362,0.322409 z m -0.5234376,0.146485 c -0.3592949,0.185567 -1.8028971,0.877318 -1.90625,0.923828 -0.3742635,0.329482 -0.6336453,0.559561 -0.8652343,0.769531 0.4934561,-0.418166 2.1910748,-1.359042 2.7714843,-1.693359 z m -2.7714843,1.693359 c -0.3081135,0.292912 -1.7999522,1.823503 -2.2363281,2.306641 0.9242013,-0.904414 1.7755904,-1.777531 2.2363281,-2.306641 z m -2.2363281,2.306641 c -0.2793537,0.274043 -0.5522865,0.583273 -0.7597657,0.996093 0.2664268,-0.415318 0.4935424,-0.700471 0.7597657,-0.996093 z"
       sodipodi:nodetypes="ccccccccccccccc" />
    <g
       style="display:inline"
       id="g3221"
       transform="translate(33,7.9999995)">
      <rect
         ry="2.0114901"
         inkscape:export-ydpi="120"
         inkscape:export-xdpi="120"
         y="13"
         x="-20"
         height="11"
         width="11"
         id="rect2730"
         style="display:inline;fill:#c4a000;fill-opacity:1;stroke:url(#linearGradient3226);stroke-width:0;stroke-linejoin:round;stroke-miterlimit:4;stroke-dasharray:none;stroke-opacity:1;enable-background:new"
         rx="2.0114901" />
      <path
         style="display:inline;fill:#fcffff;fill-opacity:1;fill-rule:nonzero;stroke:#008000;stroke-width:0;stroke-linecap:round;stroke-linejoin:round;stroke-miterlimit:4;stroke-dashoffset:7;stroke-opacity:1;enable-background:new"
         d="m -15,14 v 2.0625 c -0.537663,0.111041 -1.024662,0.383291 -1.375,0.78125 l -1.78125,-1.03125 -0.5,0.875 1.78125,1.03125 C -16.957063,17.966182 -17,18.225145 -17,18.5 c 0,0.274855 0.04294,0.533818 0.125,0.78125 l -1.78125,1.03125 0.5,0.875 1.78125,-1.03125 c 0.352503,0.40042 0.832682,0.670182 1.375,0.78125 V 23 h 1 v -2.0625 c 0.537663,-0.111041 1.024662,-0.383291 1.375,-0.78125 l 1.78125,1.03125 0.5,-0.875 -1.78125,-1.03125 C -12.042937,19.033818 -12,18.774855 -12,18.5 c 0,-0.274855 -0.04294,-0.533818 -0.125,-0.78125 l 1.78125,-1.03125 -0.5,-0.875 -1.78125,1.03125 C -12.977503,16.44333 -13.457682,16.173568 -14,16.0625 V 14 Z m 0.5,3.5 c 0.552,0 1,0.448 1,1 0,0.552 -0.448,1 -1,1 -0.552,0 -1,-0.448 -1,-1 0,-0.552 0.448,-1 1,-1 z"
         id="rect3812"
         inkscape:connector-curvature="0" />
      <path
         sodipodi:nodetypes="ccsssc"
         id="path4133"
         d="m -19,19 9,-0.0096 c 0,0 0,0 0,-2 C -10,14 -11,14 -14.5,14 -18,14 -19,14 -19,17 Z"
         style="display:inline;opacity:0.3;fill:#fcffff;fill-rule:evenodd;stroke:none;enable-background:new"
         inkscape:connector-curvature="0" />
    </g>
  </g>
</svg>
