<?xml version="1.0" encoding="UTF-8" standalone="no"?>
<!-- Created with Inkscape (http://www.inkscape.org/) -->

<svg
   xmlns:dc="http://purl.org/dc/elements/1.1/"
   xmlns:cc="http://creativecommons.org/ns#"
   xmlns:rdf="http://www.w3.org/1999/02/22-rdf-syntax-ns#"
   xmlns:svg="http://www.w3.org/2000/svg"
   xmlns="http://www.w3.org/2000/svg"
   xmlns:sodipodi="http://sodipodi.sourceforge.net/DTD/sodipodi-0.dtd"
   xmlns:inkscape="http://www.inkscape.org/namespaces/inkscape"
   width="24"
   height="24"
   id="svg5692"
   version="1.1"
   inkscape:version="0.92.2 (5c3e80d, 2017-08-06)"
   sodipodi:docname="profile_run2.svg"
   inkscape:export-filename="/media/home1/robert/svn/graphics/trunk/toolbar-icons/32x32/layer-vector.png"
   inkscape:export-xdpi="90"
   inkscape:export-ydpi="90">
  <title
     id="title2829">GIS icon theme 0.2</title>
  <defs
     id="defs5694">
    <inkscape:perspective
       sodipodi:type="inkscape:persp3d"
       inkscape:vp_x="0 : 16 : 1"
       inkscape:vp_y="0 : 1000 : 0"
       inkscape:vp_z="32 : 16 : 1"
       inkscape:persp3d-origin="16 : 10.666667 : 1"
       id="perspective3486" />
    <inkscape:perspective
       id="perspective3496"
       inkscape:persp3d-origin="0.5 : 0.33333333 : 1"
       inkscape:vp_z="1 : 0.5 : 1"
       inkscape:vp_y="0 : 1000 : 0"
       inkscape:vp_x="0 : 0.5 : 1"
       sodipodi:type="inkscape:persp3d" />
    <inkscape:perspective
       id="perspective3600"
       inkscape:persp3d-origin="0.5 : 0.33333333 : 1"
       inkscape:vp_z="1 : 0.5 : 1"
       inkscape:vp_y="0 : 1000 : 0"
       inkscape:vp_x="0 : 0.5 : 1"
       sodipodi:type="inkscape:persp3d" />
    <inkscape:perspective
       id="perspective7871"
       inkscape:persp3d-origin="0.5 : 0.33333333 : 1"
       inkscape:vp_z="1 : 0.5 : 1"
       inkscape:vp_y="0 : 1000 : 0"
       inkscape:vp_x="0 : 0.5 : 1"
       sodipodi:type="inkscape:persp3d" />
    <inkscape:perspective
       id="perspective8710"
       inkscape:persp3d-origin="0.5 : 0.33333333 : 1"
       inkscape:vp_z="1 : 0.5 : 1"
       inkscape:vp_y="0 : 1000 : 0"
       inkscape:vp_x="0 : 0.5 : 1"
       sodipodi:type="inkscape:persp3d" />
    <inkscape:perspective
       id="perspective9811"
       inkscape:persp3d-origin="0.5 : 0.33333333 : 1"
       inkscape:vp_z="1 : 0.5 : 1"
       inkscape:vp_y="0 : 1000 : 0"
       inkscape:vp_x="0 : 0.5 : 1"
       sodipodi:type="inkscape:persp3d" />
    <inkscape:perspective
       id="perspective4762"
       inkscape:persp3d-origin="0.5 : 0.33333333 : 1"
       inkscape:vp_z="1 : 0.5 : 1"
       inkscape:vp_y="0 : 1000 : 0"
       inkscape:vp_x="0 : 0.5 : 1"
       sodipodi:type="inkscape:persp3d" />
    <linearGradient
       id="linearGradient2831">
      <stop
         id="stop2833"
         offset="0"
         style="stop-color:#264976;stop-opacity:1;" />
      <stop
         style="stop-color:#3f689d;stop-opacity:1;"
         offset="0.33333334"
         id="stop2855" />
      <stop
         id="stop2835"
         offset="1"
         style="stop-color:#5689ca;stop-opacity:0;" />
    </linearGradient>
    <linearGradient
       id="linearGradient2380">
      <stop
         id="stop2382"
         offset="0"
         style="stop-color:#8cb0d8;stop-opacity:1;" />
      <stop
         id="stop2384"
         offset="1"
         style="stop-color:#4580bf;stop-opacity:1;" />
    </linearGradient>
    <linearGradient
       id="linearGradient2682">
      <stop
         id="stop2684"
         offset="0"
         style="stop-color:#2b5b95;stop-opacity:1;" />
      <stop
         id="stop2686"
         offset="1"
         style="stop-color:#5c8fce;stop-opacity:0;" />
    </linearGradient>
    <linearGradient
       id="linearGradient2402">
      <stop
         id="stop2404"
         offset="0"
         style="stop-color:#4580bf;stop-opacity:1;" />
      <stop
         id="stop2406"
         offset="1"
         style="stop-color:#376da5;stop-opacity:1;" />
    </linearGradient>
  </defs>
  <sodipodi:namedview
     id="base"
     pagecolor="#ffffff"
     bordercolor="#666666"
     borderopacity="1.0"
     inkscape:pageopacity="0.0"
     inkscape:pageshadow="2"
     inkscape:zoom="19.87288"
     inkscape:cx="3.0592052"
     inkscape:cy="7.6994159"
     inkscape:current-layer="layer2"
     showgrid="false"
     inkscape:grid-bbox="true"
     inkscape:document-units="px"
     borderlayer="false"
     inkscape:window-width="1920"
     inkscape:window-height="1147"
     inkscape:window-x="1432"
     inkscape:window-y="600"
     inkscape:window-maximized="1"
     inkscape:snap-global="false"
     showguides="false"
     inkscape:guide-bbox="true"
     inkscape:snap-object-midpoints="true"
     inkscape:snap-grids="false"
     inkscape:snap-others="false">
    <inkscape:grid
       type="xygrid"
       id="grid5700"
       empspacing="5"
       visible="true"
       enabled="true"
       snapvisiblegridlinesonly="true"
       dotted="true"
       originx="2.5"
       originy="2.5"
       spacingx="1"
       spacingy="1" />
  </sodipodi:namedview>
  <metadata
     id="metadata5697">
    <rdf:RDF>
      <cc:Work
         rdf:about="">
        <dc:format>image/svg+xml</dc:format>
        <dc:type
           rdf:resource="http://purl.org/dc/dcmitype/StillImage" />
        <dc:title>GIS icon theme 0.2</dc:title>
        <dc:creator>
          <cc:Agent>
            <dc:title>Arnaud Morvan</dc:title>
          </cc:Agent>
        </dc:creator>
        <dc:rights>
          <cc:Agent>
            <dc:title>Arnaud Morvan</dc:title>
          </cc:Agent>
        </dc:rights>
        <dc:subject>
          <rdf:Bag>
            <rdf:li>GIS icons</rdf:li>
          </rdf:Bag>
        </dc:subject>
        <dc:coverage>GIS icons</dc:coverage>
        <dc:description />
        <cc:license
           rdf:resource="http://creativecommons.org/licenses/by-sa/3.0/" />
      </cc:Work>
      <cc:License
         rdf:about="http://creativecommons.org/licenses/by-sa/3.0/">
        <cc:permits
           rdf:resource="http://creativecommons.org/ns#Reproduction" />
        <cc:permits
           rdf:resource="http://creativecommons.org/ns#Distribution" />
        <cc:requires
           rdf:resource="http://creativecommons.org/ns#Notice" />
        <cc:requires
           rdf:resource="http://creativecommons.org/ns#Attribution" />
        <cc:permits
           rdf:resource="http://creativecommons.org/ns#DerivativeWorks" />
        <cc:requires
           rdf:resource="http://creativecommons.org/ns#ShareAlike" />
      </cc:License>
    </rdf:RDF>
  </metadata>
  <g
     inkscape:groupmode="layer"
     id="layer2"
     inkscape:label="Layer"
     style="display:inline"
     transform="translate(0,-8)">
    <path
       style="fill:none;stroke:#1a90bc;stroke-width:0.98097855px;stroke-linecap:butt;stroke-linejoin:miter;stroke-opacity:1"
       d="M 3.7739875,16.202832 H 20.480172"
       id="path2696"
       inkscape:connector-curvature="0" />
    <path
       style="fill:none;stroke:#d45050;stroke-width:2.24012232px;stroke-linecap:butt;stroke-linejoin:miter;stroke-opacity:1"
       d="m 7.23933,11.489507 2.5832665,2.65611 2.8702965,-2.656111 z"
       id="path2758"
       inkscape:connector-curvature="0" />
    <path
       inkscape:connector-curvature="0"
       id="path2835"
       d="M 3.8746272,18.165305 H 20.127933"
       style="fill:none;stroke:#1a90bc;stroke-width:0.96759081px;stroke-linecap:butt;stroke-linejoin:miter;stroke-opacity:1" />
    <path
       style="fill:none;stroke:#1a90bc;stroke-width:0.96759081px;stroke-linecap:butt;stroke-linejoin:miter;stroke-opacity:1"
       d="M 4.1262264,20.178098 H 19.574415"
       id="path2837"
       inkscape:connector-curvature="0" />
    <path
       inkscape:connector-curvature="0"
       id="path2839"
       d="M 4.6797446,22.291531 H 18.869937"
       style="fill:none;stroke:#1a90bc;stroke-width:0.96759075px;stroke-linecap:butt;stroke-linejoin:miter;stroke-opacity:1" />
    <path
       style="fill:none;stroke:#1a90bc;stroke-width:0.96759087px;stroke-linecap:butt;stroke-linejoin:miter;stroke-opacity:1"
       d="M 5.5855016,24.404964 H 14.492111"
       id="path2841"
       inkscape:connector-curvature="0" />
    <path
       inkscape:connector-curvature="0"
       id="path2843"
       d="M 6.4912586,26.367437 H 13.334755"
       style="fill:none;stroke:#1a90bc;stroke-width:0.96759081px;stroke-linecap:butt;stroke-linejoin:miter;stroke-opacity:1" />
    <path
       style="display:inline;fill:none;stroke:#000000;stroke-width:1.33878458px;stroke-linecap:butt;stroke-linejoin:miter;stroke-opacity:1"
       d="m 0.81997213,12.385955 c 0.1426777,0.09635 0.25931087,0.09084 0.39968817,0.09084 0.016654,0 0.035066,-0.01361 0.049961,0 0.053706,0.04883 0.092148,0.151693 0.1498832,0.181677 0.064052,0.03328 0.1341359,-0.01991 0.1998442,0 0.036731,0.01129 0.06319,0.0797 0.099922,0.09084 0.065708,0.01991 0.1348157,-0.02626 0.1998441,0 0.1750945,0.07075 0.3278093,0.269643 0.4996102,0.363353 0.081337,0.04437 0.1657412,0.06899 0.2498052,0.09083 0.00172,4.41e-4 0.149728,-2.83e-4 0.1498832,0 0.011776,0.02141 -0.011776,0.06942 0,0.09084 0.011776,0.0214 0.038184,-0.0214 0.049962,0 0.011776,0.0214 -0.00745,0.06377 0,0.09083 0.010532,0.0383 0.039429,0.05254 0.049962,0.09084 0.019985,0.07268 -0.019985,0.199844 0,0.272514 0.010532,0.0383 0.039429,0.05254 0.049961,0.09084 0.00991,0.03601 -0.010213,0.253944 0,0.272515 0.011776,0.0214 0.038184,-0.02141 0.049962,0 0.013671,0.02485 -0.013551,0.314073 0,0.363353 0.010533,0.0383 0.039429,0.05254 0.049963,0.09084 0.014895,0.05416 -0.010533,0.124209 0,0.181676 0.011775,0.06423 0.038185,0.117443 0.049962,0.181677 0.00939,0.05125 0,0.212824 0,0.272515 0,0.181676 0,0.363351 0,0.545028 0,0.06056 -0.010533,0.124236 0,0.181677 0.011776,0.06423 0.038184,0.117443 0.049962,0.181676 0.010453,0.057 0,0.290225 0,0.363351 0,0.302795 0,0.605588 0,0.908383 0,0.211955 0,0.423913 0,0.635867 0,0.04091 -0.0076,0.244869 0,0.272515 0.010533,0.0383 0.042514,0.05022 0.049962,0.09083 0.010533,0.05744 -0.00808,0.122916 0,0.181675 0.00903,0.0657 0.038185,0.117444 0.049962,0.181678 0.010532,0.05744 -0.023551,0.138853 0,0.181677 0.011776,0.02141 0.042514,-0.02707 0.049962,0 0.019985,0.07268 -0.019985,0.199842 0,0.272513 0.010532,0.0383 0.039428,0.05254 0.049962,0.09084 0.0099,0.03601 -0.010214,0.253943 0,0.272514 0.011776,0.02141 0.038184,-0.02141 0.049962,0 0.023551,0.04283 -0.023552,0.138854 0,0.181675 0.011776,0.02141 0.038184,-0.0214 0.049961,0 0.02355,0.04282 -0.014896,0.127503 0,0.181678 0.01053,0.0383 0.03943,0.05254 0.04996,0.09083 0.01489,0.05416 -0.01053,0.124208 0,0.181675 0.01178,0.06423 0.03819,0.117444 0.04996,0.181677 0.0053,0.02872 -0.01178,0.06942 0,0.09084 0.01178,0.0214 0.03819,-0.02141 0.04996,0 0.02355,0.04283 -0.01489,0.127501 0,0.181676 0.01053,0.0383 0.03943,0.05254 0.04996,0.09083 0.0074,0.02707 -0.01178,0.06942 0,0.09084 0.01178,0.02141 0.03818,-0.02141 0.04996,0 0.02633,0.04787 0.03331,0.121118 0.04996,0.181676 0.03331,0.121119 0.06661,0.242236 0.09992,0.363353 0.01665,0.06056 0.02931,0.125338 0.04996,0.181677 -0.005,0.179962 0.07359,0.04295 0.09992,0.09084 0.02355,0.04282 -0.0149,0.127502 0,0.181675 0.02458,0.08939 0.175262,0.273967 0.199844,0.363353 0.0074,0.02707 -0.0075,0.06377 0,0.09084 0.114326,0.415731 -0.02071,-0.385464 0.09992,0.272513 0.0053,0.02872 -0.0075,0.06377 0,0.09083 0.02998,0.108989 0.119906,0.163515 0.149883,0.272513 0.0074,0.02707 -0.0075,0.06377 0,0.09083 0.01053,0.0383 0.03943,0.05254 0.04996,0.09084 0.0074,0.02707 -0.0075,0.06377 0,0.09084 0.01053,0.0383 0.03943,0.05254 0.04996,0.09083 0.0075,0.02707 -0.0075,0.06377 0,0.09084 0.02998,0.108989 0.119906,0.163496 0.149883,0.272514 0.0149,0.05416 -0.0149,0.127501 0,0.181675 0.103963,0.378047 -0.0034,-0.09711 0.09992,0.09084 0.01178,0.02141 -0.0074,0.06377 0,0.09084 0.01053,0.0383 0.03943,0.05254 0.04996,0.09083 0.0074,0.02707 -0.01178,0.06942 0,0.09084 0.103371,0.187948 -0.004,-0.287208 0.09992,0.09084 0.0075,0.02707 -0.01178,0.06942 0,0.09084 0.01178,0.0214 0.03818,-0.02141 0.04996,0 0.01178,0.0214 -0.0074,0.06377 0,0.09084 0.01053,0.0383 0.0369,0.0552 0.04996,0.09084 0.02066,0.05634 0.0293,0.125338 0.04996,0.181676 0.04582,0.124956 0.07708,0.09342 0.149883,0.181678 0.0196,0.02376 0.03331,0.06056 0.04996,0.09084 0.03331,0.06056 0.06661,0.121118 0.09992,0.181676 0.08327,0.151402 0.166537,0.302793 0.249805,0.45419 0.03331,0.06056 0.05779,0.143378 0.09992,0.181678 0.02979,0.02707 0.07013,-0.02707 0.09992,0 0.0149,0.01361 -0.01178,0.06942 0,0.09083 0.01178,0.02141 0.03506,-0.01361 0.04996,0 0.05995,0.0545 0.08993,0.218013 0.149883,0.272516 0.01489,0.01361 0.03507,-0.01361 0.04996,0 0.02107,0.01915 0.0289,0.07168 0.04996,0.09083 0.0149,0.01361 0.03331,0 0.04996,0 0.01665,0.03026 0.0289,0.07168 0.04996,0.09084 0.0149,0.01361 0.03507,-0.01361 0.04996,0 0.04213,0.0383 0.05779,0.143364 0.09992,0.181677 0.02979,0.02707 0.07013,-0.02707 0.09992,0 0.02107,0.01915 0.02889,0.07168 0.04996,0.09083 0.0149,0.01361 0.03507,-0.01361 0.04996,0 0.02107,0.01915 0.0289,0.07168 0.04996,0.09084 0.0149,0.01361 0.03819,-0.02141 0.04996,0 0.01178,0.0214 -0.01178,0.06942 0,0.09084 0.01178,0.02141 0.03507,-0.01361 0.04996,0 0.02107,0.01915 0.0289,0.07168 0.04996,0.09083 0.02979,0.02707 0.07013,-0.02707 0.09992,0 0.02107,0.01915 0.0289,0.07168 0.04996,0.09084 0.0149,0.01361 0.03507,-0.01361 0.04996,0 0.02107,0.01915 0.0289,0.07168 0.04996,0.09083 0.02948,0.0268 0.115519,-0.02083 0.149884,0 0.361888,0.219326 -0.07877,-0.0262 0.149883,0.181674 0.02979,0.02707 0.07637,-0.04282 0.09992,0 0.01178,0.02141 -0.01178,0.06942 0,0.09083 0.01021,0.01858 0.130074,-0.01806 0.149883,0 0.02107,0.01915 0.0289,0.07168 0.04996,0.09084 0.0149,0.01361 0.03416,-0.0095 0.04996,0 0.03533,0.0214 0.06459,0.06942 0.09992,0.09084 0.0158,0.0095 0.03416,-0.0095 0.04996,0 0.03533,0.0214 0.06459,0.06942 0.09992,0.09083 0.0316,0.01915 0.07013,-0.02707 0.09992,0 0.02107,0.01915 0.02889,0.07168 0.04996,0.09084 0.0314,0.02854 0.168442,-0.02854 0.199844,0 0.02107,0.01915 0.0289,0.07168 0.04996,0.09083 0.02226,0.02022 0.18203,-0.0066 0.199844,0 0.05164,0.01877 0.09794,0.07511 0.149883,0.09084 0.135438,0.04105 0.314372,-0.04099 0.449649,0 0.03673,0.01129 0.0638,0.0744 0.09992,0.09083 0.03231,0.01463 0.06661,0 0.09992,0 0.09992,0 0.199845,0 0.299767,0 0.05101,0 0.325454,-0.01463 0.3497266,0 0.02234,0.01361 0.0289,0.07168 0.04996,0.09084 0.01521,0.01383 0.127383,0 0.149884,0 0.18319,0 0.36638,0 0.549571,0 0.01664,0 0.03817,-0.02141 0.04997,0 0.01177,0.0214 -0.0149,0.0773 0,0.09083 0.01174,0.01064 0.167022,0 0.199842,0 0.133231,0 0.266461,0 0.399689,0 0.183191,0 0.366381,0 0.549572,0 0.04691,0 0.221178,0.01734 0.249805,0 0.02234,-0.01361 0.0289,-0.07168 0.04996,-0.09083 0.0149,-0.01361 0.03332,0 0.04997,0 0.03332,0 0.06662,0 0.09992,0 0.04996,0 0.102487,0.02872 0.149883,0 0.02235,-0.01361 0.02889,-0.07168 0.04996,-0.09084 0.02979,-0.02707 0.07012,0.02707 0.09992,0 0.02107,-0.01915 0.0289,-0.07168 0.04996,-0.09083 0.0149,-0.01361 0.03507,0.01361 0.04996,0 0.02107,-0.01915 0.0289,-0.07168 0.04997,-0.09084 0.0149,-0.01361 0.03507,0.01361 0.04996,0 0.02107,-0.01915 0.0289,-0.07168 0.04997,-0.09083 0.0149,-0.01361 0.03507,0.01361 0.04996,0 0.04213,-0.0383 0.05779,-0.143377 0.09992,-0.181676 0.123052,-0.111865 -0.04509,0.263677 0.149883,-0.09084 0.01177,-0.02141 -0.0149,-0.0773 0,-0.09084 0.0298,-0.02707 0.06832,0.01915 0.09992,0 0.155945,-0.09451 -0.01664,-0.06056 0.04997,-0.181673 0.02633,-0.04787 0.07359,-0.04296 0.09992,-0.09084 0.01177,-0.0214 -0.01177,-0.06942 0,-0.09083 0.103372,-0.187947 -0.0041,0.287208 0.09992,-0.09084 0.0075,-0.02707 -0.01177,-0.06942 0,-0.09083 0.01177,-0.0214 0.03818,0.02141 0.04996,0 0.01177,-0.0214 -0.01177,-0.06942 0,-0.09084 0.01177,-0.0214 0.03818,0.02141 0.04997,0 0.01177,-0.0214 -0.01177,-0.06942 0,-0.09084 0.01177,-0.02141 0.03818,0.0214 0.04996,0 0.01177,-0.02141 -0.01177,-0.06942 0,-0.09083 0.01177,-0.02141 0.03818,0.0214 0.04997,0 0.02633,-0.04787 0.0293,-0.125338 0.04996,-0.181677 0.01306,-0.03563 0.03332,-0.06056 0.04997,-0.09084 0.01664,-0.03026 0.0289,-0.07168 0.04996,-0.09083 0.0149,-0.01361 0.03817,0.0214 0.04996,0 0.01177,-0.02141 -0.01177,-0.06942 0,-0.09084 0.01177,-0.0214 0.03817,0.02141 0.04997,0 0.01177,-0.0214 -0.01177,-0.06942 0,-0.09084 0.01177,-0.0214 0.03817,0.02141 0.04996,0 0.01177,-0.0214 -0.01177,-0.06942 0,-0.09083 0.01177,-0.02141 0.03817,0.02141 0.04997,0 0.01177,-0.02141 -0.0075,-0.06377 0,-0.09084 0.01156,-0.04205 0.17046,-0.309926 0.199843,-0.363352 0.02938,-0.05344 0.176709,-0.342322 0.199846,-0.363354 0.0149,-0.01361 0.03817,0.0214 0.04996,0 0.01177,-0.02141 -0.0075,-0.06377 0,-0.09084 0.01053,-0.0383 0.03942,-0.05254 0.04997,-0.09084 0.0075,-0.02707 -0.01177,-0.06942 0,-0.09083 0.02354,-0.04283 0.07012,0.02707 0.09992,0 0.04213,-0.0383 0.05779,-0.143378 0.09992,-0.181678 0.0149,-0.01361 0.03507,0.01361 0.04997,0 0.02107,-0.01915 0.0289,-0.07168 0.04996,-0.09083 0.02978,-0.02707 0.07012,0.02707 0.09992,0 0.02107,-0.01915 0.03332,-0.06056 0.04997,-0.09084 0.03332,0 0.06832,0.01915 0.09992,0 0.04469,-0.02707 0.05779,-0.143377 0.09992,-0.181677 0.03997,-0.03634 0.109914,0.03634 0.149882,0 0.02107,-0.01915 0.0289,-0.07168 0.04997,-0.09083 0.0149,-0.01361 0.03818,0.0214 0.04996,0 0.01177,-0.02141 -0.01177,-0.06943 0,-0.09084 0.01177,-0.02141 0.03507,0.01361 0.04996,0 0.02107,-0.01915 0.02889,-0.07168 0.04997,-0.09084 0.02978,-0.02707 0.07637,0.04283 0.09992,0 0.01177,-0.0214 -0.01177,-0.06942 0,-0.09083 0.02355,-0.04283 0.07637,0.04283 0.09992,0 0.01177,-0.02141 -0.01177,-0.06942 0,-0.09084 0.02498,-0.04542 0.124903,0.04542 0.149884,0 0.01177,-0.0214 -0.0149,-0.0773 0,-0.09083 0.01462,-0.01334 0.258873,0 0.299766,0 0.233153,0 0.466302,0 0.699454,0 0.13323,0 0.26646,0 0.399688,0 0.0345,0 0.184654,0.0137 0.199844,0 0.02107,-0.01915 0.0289,-0.07168 0.04997,-0.09084 0.0149,-0.01361 0.03507,0.01361 0.04996,0 0.02107,-0.01915 0.02762,-0.0773 0.04997,-0.09083 0.0564,-0.03419 0.18825,0.02237 0.249804,0 0.05164,-0.01878 0.09794,-0.07509 0.149883,-0.09084 0.08214,-0.02489 0.166537,0 0.249806,0 0.03332,0 0.06661,0 0.09992,0 0.01664,0 0.03507,0.01361 0.04996,0 0.02107,-0.01915 0.0289,-0.07168 0.04997,-0.09083 0.0298,-0.02707 0.07637,0.04283 0.09992,0 0.01177,-0.02141 -0.0075,-0.06377 0,-0.09084 0.05524,-0.200849 0.031,-0.0282 0.09992,-0.09084 0.04213,-0.0383 0.05779,-0.143378 0.09992,-0.181678 0.0149,-0.01361 0.03507,0.01361 0.04997,0 0.04213,-0.0383 0.05779,-0.143378 0.09992,-0.181675 0.02979,-0.02707 0.07637,0.04283 0.09992,0 0.01177,-0.02141 -0.01177,-0.06942 0,-0.09083 0.01177,-0.02141 0.03507,0.01361 0.04996,0 0.211813,-0.192557 -0.111891,0.01075 0.09992,-0.181676 0.0149,-0.01361 0.03817,0.0214 0.04997,0 0.01177,-0.02141 -0.01177,-0.06942 0,-0.09084 0.01177,-0.02141 0.03818,0.02141 0.04996,0 0.01177,-0.02141 -0.0075,-0.06377 0,-0.09083 0.01053,-0.0383 0.03942,-0.05254 0.04997,-0.09084 0.0075,-0.02707 -0.01177,-0.06942 0,-0.09083 0.01177,-0.02141 0.03818,0.0214 0.04996,0 0.01177,-0.02141 -0.01177,-0.06942 0,-0.09084 0.01177,-0.0214 0.03817,0.02141 0.04996,0 0.02356,-0.04283 -0.0149,-0.127501 0,-0.181677 0.103962,-0.378046 -0.0035,0.09711 0.09992,-0.09083 0.01177,-0.02141 -0.0075,-0.06377 0,-0.09084 0.02107,-0.0766 0.07885,-0.105074 0.09992,-0.181677 0.0075,-0.02707 0,-0.06056 0,-0.09084 0.03332,-0.06056 0.07166,-0.113171 0.09992,-0.181678 0.0923,-0.223779 0.02169,-0.260511 0.04997,-0.363352 0.02997,-0.108989 0.119905,-0.163515 0.149881,-0.272512 0.0149,-0.05416 -0.02355,-0.138853 0,-0.181679 0.02633,-0.04786 0.0736,-0.04296 0.09992,-0.09083 0.01022,-0.01858 -0.01,-0.236498 0,-0.272515 0.02107,-0.0766 0.07885,-0.105075 0.09992,-0.181678 0.0149,-0.05417 -0.0149,-0.127516 0,-0.181675 0.02107,-0.0766 0.07885,-0.105074 0.09992,-0.181678 0.0075,-0.02707 -0.0075,-0.06377 0,-0.09084 0.01053,-0.0383 0.03942,-0.05254 0.04996,-0.09084 0.0149,-0.05416 -0.0149,-0.127501 0,-0.181678 0.01054,-0.0383 0.03942,-0.05254 0.04997,-0.09084 0.0149,-0.05416 -0.0149,-0.127501 0,-0.181674 0.165699,-0.301273 -0.02355,0.08563 0.04996,-0.181677 0.01053,-0.0383 0.03942,-0.05254 0.04997,-0.09084 0.02,-0.07268 -0.01999,-0.199843 0,-0.272514 0.02107,-0.0766 0.07885,-0.105074 0.09992,-0.181676 0.01999,-0.07268 -0.02,-0.199844 0,-0.272513 0.01053,-0.0383 0.03942,-0.05254 0.04996,-0.09083 0.0075,-0.02707 -0.0075,-0.06377 0,-0.09084 0.01053,-0.0383 0.03942,-0.05254 0.04997,-0.09083 0.01999,-0.07268 -0.01999,-0.199846 0,-0.272514 0.01053,-0.0383 0.03942,-0.05254 0.04996,-0.09084 0.01571,-0.0571 -0.01571,-0.306259 0,-0.363355 0.01053,-0.0383 0.03942,-0.05254 0.04997,-0.09084 0.01111,-0.04042 -0.0077,-0.321805 0,-0.363354 0.0075,-0.04063 0.03942,-0.05254 0.04996,-0.09084 0.01469,-0.0534 -0.01113,-0.373209 0,-0.454187 0.01277,-0.0929 0.0355,-0.18045 0.04997,-0.272515 0.01887,-0.120044 0.02445,-0.247439 0.04996,-0.363353 0.0088,-0.03975 0.04252,-0.05022 0.04996,-0.09084 0.01054,-0.05746 -0.0037,-0.121487 0,-0.181676 0.013,-0.212797 0.02348,-0.427243 0.04997,-0.635868 0.02367,-0.186598 0.07708,-0.358084 0.09992,-0.545029 0,-0.644289 -0.03533,-0.05322 0.04996,-0.363353 0.0149,-0.05416 -0.02355,-0.138853 0,-0.181675 0.01177,-0.02141 0.03817,0.0214 0.04997,0 0.02497,-0.04542 -0.02497,-0.227095 0,-0.272515 0.01177,-0.0214 0.03818,0.02141 0.04996,0 0.02355,-0.04283 -0.01053,-0.124234 0,-0.181677 0.01177,-0.06423 0.03817,-0.117444 0.04997,-0.181675 0.0053,-0.02872 -0.01177,-0.06942 0,-0.09084 0.01177,-0.0214 0.03818,0.02141 0.04996,0 0.01177,-0.0214 -0.0053,-0.06212 0,-0.09084 0.01177,-0.06423 0.03817,-0.117444 0.04997,-0.181677 0.0053,-0.02872 -0.0075,-0.06377 0,-0.09083 0.01053,-0.0383 0.03942,-0.05253 0.04996,-0.09084 0.0075,-0.02707 -0.01177,-0.06942 0,-0.09083 0.01177,-0.02141 0.03818,0.0214 0.04997,0 0.01177,-0.02141 -0.01177,-0.06942 0,-0.09084 0.01177,-0.02141 0.03817,0.0214 0.04996,0 0.01177,-0.02141 -0.01177,-0.06943 0,-0.09084 0.01177,-0.0214 0.03818,0.0214 0.04997,0 0.01177,-0.0214 -0.01177,-0.06942 0,-0.09083 0.01177,-0.0214 0.03507,0.01361 0.04996,0 0.02107,-0.01915 0.0289,-0.07168 0.04996,-0.09084 0.0149,-0.01361 0.03817,0.02141 0.04997,0 0.01177,-0.02141 -0.01177,-0.06942 0,-0.09084 0.01177,-0.0214 0.03818,0.0214 0.04996,0 0.01177,-0.0214 -0.01177,-0.06942 0,-0.09084 0.01177,-0.02141 0.03507,0.01361 0.04997,0 0.1657,-0.301275 -0.0471,0.04283 0.09992,-0.09084 0.02107,-0.01915 0.0289,-0.07168 0.04996,-0.09084 0.0149,-0.01361 0.03817,0.02141 0.04997,0 0.01177,-0.0214 -0.01177,-0.06942 0,-0.09084 0.02355,-0.04282 0.07012,0.02707 0.09992,0 0.02107,-0.01915 0.0289,-0.07168 0.04996,-0.09084 0.0149,-0.01361 0.03381,0.0073 0.04997,0 0.0511,-0.02321 0.09824,-0.07207 0.149883,-0.09084 0.03266,-0.01197 0.06661,0 0.09992,0 0.01665,0 0.03507,0.01361 0.04996,0 0.02107,-0.01915 0.0289,-0.07168 0.04997,-0.09083 0.01521,-0.01383 0.127383,0 0.149884,0 0.116575,0 0.233151,0 0.349728,0"
       id="path2692"
       inkscape:connector-curvature="0" />
  </g>
</svg>
