<?xml version="1.0" encoding="UTF-8" standalone="no"?>
<!-- Created with Inkscape (http://www.inkscape.org/) -->

<svg
   width="24"
   height="24"
   viewBox="0 0 6.3500001 6.3500001"
   version="1.1"
   id="svg1"
   xml:space="preserve"
   inkscape:version="1.3 (0e150ed6c4, 2023-07-21)"
   sodipodi:docname="project_toolbar.svg"
   inkscape:export-filename="..\project_toolbar.svg"
   inkscape:export-xdpi="96"
   inkscape:export-ydpi="96"
   xmlns:inkscape="http://www.inkscape.org/namespaces/inkscape"
   xmlns:sodipodi="http://sodipodi.sourceforge.net/DTD/sodipodi-0.dtd"
   xmlns="http://www.w3.org/2000/svg"
   xmlns:svg="http://www.w3.org/2000/svg"><sodipodi:namedview
     id="namedview1"
     pagecolor="#505050"
     bordercolor="#eeeeee"
     borderopacity="1"
     inkscape:showpageshadow="0"
     inkscape:pageopacity="0"
     inkscape:pagecheckerboard="0"
     inkscape:deskcolor="#d1d1d1"
     inkscape:document-units="mm"
     inkscape:zoom="27.416668"
     inkscape:cx="8.5349541"
     inkscape:cy="28.43161"
     inkscape:window-width="1920"
     inkscape:window-height="1009"
     inkscape:window-x="1912"
     inkscape:window-y="81"
     inkscape:window-maximized="1"
     inkscape:current-layer="svg1"
     showgrid="true"><inkscape:grid
       id="grid278"
       units="px"
       originx="0"
       originy="0"
       spacingx="0.26458334"
       spacingy="0.26458334"
       empcolor="#0099e5"
       empopacity="0.30196078"
       color="#0099e5"
       opacity="0.14901961"
       empspacing="5"
       dotted="false"
       gridanglex="30"
       gridanglez="30"
       visible="true" /><inkscape:page
       x="0"
       y="0"
       width="6.3499999"
       height="6.3499999"
       id="page1"
       margin="0"
       bleed="0"
       inkscape:export-filename="..\show_cont_table.svg"
       inkscape:export-xdpi="96"
       inkscape:export-ydpi="96" /></sodipodi:namedview><defs
     id="defs1" /><g
     id="layer3"
     inkscape:label="fill"
     transform="matrix(0.23499585,0,0,0.21208869,0.50847335,0.9717205)"><path
       style="opacity:1;fill:#6fd225;fill-opacity:1;stroke:none;stroke-width:2;stroke-linecap:round;stroke-miterlimit:4;stroke-dasharray:none;stroke-dashoffset:0;stroke-opacity:1"
       d="M 17.114017,5.6035525 V 7.6918252 H 14.748985 12.383952 V 7.2219172 6.7520082 L 12.97521,6.4701245 c 0.667293,-0.318134 1.280215,-0.569934 1.798935,-0.739037 0.193731,-0.06316 0.370999,-0.131921 0.393929,-0.152809 0.03627,-0.03304 -0.09285,-0.551814 -0.221653,-0.890591 l -0.0435,-0.114417 -0.592746,0.207283 c -0.32601,0.114005 -0.892778,0.338437 -1.259484,0.498738 l -0.666738,0.291456 v -1.027734 -1.027734 h 2.365033 2.365032 v 2.088273 z"
       id="path4308"
       inkscape:connector-curvature="0" /><path
       style="opacity:1;fill:#6fd225;fill-opacity:1;stroke:none;stroke-width:2;stroke-linecap:round;stroke-miterlimit:4;stroke-dasharray:none;stroke-dashoffset:0;stroke-opacity:1"
       d="m 12.031714,7.3395872 v 0.352238 h -0.553519 c -0.304435,0 -0.553518,-0.0081 -0.553518,-0.01804 0,-0.03882 1.022788,-0.686442 1.084091,-0.686442 0.01262,0 0.02295,0.158507 0.02295,0.352239 z"
       id="path4310"
       inkscape:connector-curvature="0" /><path
       style="opacity:1;fill:#6fd225;fill-opacity:1;stroke:none;stroke-width:2;stroke-linecap:round;stroke-miterlimit:4;stroke-dasharray:none;stroke-dashoffset:0;stroke-opacity:1"
       d="M 12.031714,10.157497 V 12.27093 H 9.7924812 7.5532483 v -0.583596 -0.583596 l 0.271458,-0.385061 C 8.4078623,9.8914772 9.2453022,9.0016952 10.166357,8.2306702 l 0.222917,-0.186606 h 0.82122 0.82122 z"
       id="path4312"
       inkscape:connector-curvature="0" /><path
       style="opacity:1;fill:#6fd225;fill-opacity:1;stroke:none;stroke-width:2;stroke-linecap:round;stroke-miterlimit:4;stroke-dasharray:none;stroke-dashoffset:0;stroke-opacity:1"
       d="m 8.2316913,8.6101622 c -0.299844,0.311354 -0.575157,0.599256 -0.611807,0.639781 -0.05567,0.06156 -0.06664,-0.0316 -0.06664,-0.566098 v -0.639781 h 0.611807 0.6118069 l -0.5451709,0.566098 z"
       id="path4314"
       inkscape:connector-curvature="0" /><path
       style="opacity:1;fill:#6fd225;fill-opacity:1;stroke:none;stroke-width:2;stroke-linecap:round;stroke-miterlimit:4;stroke-dasharray:none;stroke-dashoffset:0;stroke-opacity:1"
       d="m 12.031714,4.6379855 v 1.122706 l -0.440299,0.244984 c -0.570886,0.317645 -1.571563,0.9928507 -2.0460668,1.3805817 l -0.373953,0.305568 H 8.3623213 7.5532483 V 5.6035525 3.5152795 h 2.2392329 2.2392328 z"
       id="path4316"
       inkscape:connector-curvature="0" /><path
       style="opacity:1;fill:#6fd225;fill-opacity:1;stroke:none;stroke-width:2;stroke-linecap:round;stroke-miterlimit:4;stroke-dasharray:none;stroke-dashoffset:0;stroke-opacity:1"
       d="m 7.2010103,8.9145932 v 0.870529 l -0.228677,0.3142688 c -0.323951,0.445204 -0.833534,1.279502 -1.075725,1.761196 L 5.6902913,12.27093 H 4.1812583 2.6722253 V 10.157497 8.0440642 h 2.264392 2.264393 z"
       id="path4318"
       inkscape:connector-curvature="0" /><path
       style="opacity:1;fill:#39abff;fill-opacity:1;stroke:none;stroke-width:2;stroke-linecap:round;stroke-miterlimit:4;stroke-dasharray:none;stroke-dashoffset:0;stroke-opacity:1"
       d=""
       id="path4320"
       inkscape:connector-curvature="0" /><path
       style="opacity:1;fill:#6fd225;fill-opacity:1;stroke:none;stroke-width:2;stroke-linecap:round;stroke-miterlimit:4;stroke-dasharray:none;stroke-dashoffset:0;stroke-opacity:1"
       d="m 7.2002393,11.981591 c 7.67e-4,0.288113 1.31e-4,0.289339 -0.150189,0.289339 -0.178639,0 -0.178942,-0.0014 -0.05227,-0.241024 0.187741,-0.355143 0.201629,-0.358457 0.202455,-0.04832 z"
       id="path4322"
       inkscape:connector-curvature="0" /><path
       style="opacity:1;fill:#6fd225;fill-opacity:1;stroke:none;stroke-width:2;stroke-linecap:round;stroke-miterlimit:4;stroke-dasharray:none;stroke-dashoffset:0;stroke-opacity:1"
       d="m 7.2010103,14.837242 v 2.214073 h -0.933197 -0.933197 l 0.03203,-0.1887 c 0.246278,-1.451055 0.602546,-2.633759 1.212481,-4.025075 0.09286,-0.211822 0.09542,-0.213351 0.357708,-0.213859 l 0.264179,-5.12e-4 v 2.214073 z"
       id="path4324"
       inkscape:connector-curvature="0" /><path
       style="opacity:1;fill:#6fd225;fill-opacity:1;stroke:none;stroke-width:2;stroke-linecap:round;stroke-miterlimit:4;stroke-dasharray:none;stroke-dashoffset:0;stroke-opacity:1"
       d="m 5.4901353,12.665167 c 0,0.0231 -0.09122,0.266181 -0.202704,0.540182 -0.436931,1.07384 -0.754348,2.262709 -0.983173,3.682426 l -0.02636,0.16354 h -0.802837 -0.802837 v -2.214073 -2.214073 h 1.408955 c 0.774925,0 1.408955,0.0189 1.408955,0.042 z"
       id="path4326"
       inkscape:connector-curvature="0" /><path
       style="opacity:1;fill:#6fd225;fill-opacity:1;stroke:none;stroke-width:2;stroke-linecap:round;stroke-miterlimit:4;stroke-dasharray:none;stroke-dashoffset:0;stroke-opacity:1"
       d="m 7.2010103,19.466667 v 2.063113 h -2.264393 -2.264392 v -2.063113 -2.063114 h 0.786797 0.786797 l -0.03089,0.225343 c -0.01699,0.123939 -0.04608,0.596041 -0.06465,1.049117 -0.02581,0.629612 -0.01911,0.832829 0.0284,0.862192 0.03419,0.02113 0.271853,0.0227 0.528143,0.0035 l 0.465983,-0.03494 0.03302,-0.838739 c 0.01817,-0.461306 0.04726,-0.934976 0.06465,-1.052598 l 0.03163,-0.21386 h 0.949451 0.949452 v 2.063114 z"
       id="path4328"
       inkscape:connector-curvature="0" /></g><path
     inkscape:connector-curvature="0"
     id="path4259"
     d="M 5.6996274,6.3500007 V 9.1794425e-7"
     style="fill:none;fill-rule:evenodd;stroke:#000000;stroke-width:0.0683676;stroke-linecap:butt;stroke-linejoin:miter;stroke-miterlimit:4;stroke-dasharray:none;stroke-opacity:1" /><path
     sodipodi:nodetypes="cc"
     inkscape:connector-curvature="0"
     id="path4261"
     d="M 4.576257,6.3500004 V 9.1794425e-7"
     style="fill:none;fill-rule:evenodd;stroke:#000000;stroke-width:0.0672008;stroke-linecap:butt;stroke-linejoin:miter;stroke-miterlimit:4;stroke-dasharray:none;stroke-opacity:1" /><path
     sodipodi:nodetypes="cc"
     inkscape:connector-curvature="0"
     id="path4263"
     d="M 3.3819366,6.3500007 V 9.1794425e-7"
     style="fill:none;fill-rule:evenodd;stroke:#000000;stroke-width:0.0672008;stroke-linecap:butt;stroke-linejoin:miter;stroke-miterlimit:4;stroke-dasharray:none;stroke-opacity:1" /><path
     sodipodi:nodetypes="cc"
     inkscape:connector-curvature="0"
     id="path4265"
     d="M 2.2467413,6.3500007 V 9.1794425e-7"
     style="fill:none;fill-rule:evenodd;stroke:#000000;stroke-width:0.0683676;stroke-linecap:butt;stroke-linejoin:miter;stroke-miterlimit:4;stroke-dasharray:none;stroke-opacity:1" /><path
     inkscape:connector-curvature="0"
     id="path4267"
     d="M 6.3381747,5.5709249 H 3.3611323e-7"
     style="fill:none;fill-rule:evenodd;stroke:#000000;stroke-width:0.0670999;stroke-linecap:butt;stroke-linejoin:miter;stroke-miterlimit:4;stroke-dasharray:none;stroke-opacity:1" /><path
     inkscape:connector-curvature="0"
     id="path4269"
     d="M 6.3381747,4.6210931 H 0.01182555"
     style="fill:none;fill-rule:evenodd;stroke:#000000;stroke-width:0.0676738;stroke-linecap:butt;stroke-linejoin:miter;stroke-miterlimit:4;stroke-dasharray:none;stroke-opacity:1" /><path
     sodipodi:nodetypes="cc"
     inkscape:connector-curvature="0"
     id="path4271"
     d="M 6.3381747,3.607228 H 0.01182555"
     style="fill:none;fill-rule:evenodd;stroke:#000000;stroke-width:0.0669745;stroke-linecap:butt;stroke-linejoin:miter;stroke-miterlimit:4;stroke-dasharray:none;stroke-opacity:1" /><path
     sodipodi:nodetypes="cc"
     inkscape:connector-curvature="0"
     id="path4273"
     d="M 6.314525,2.6360511 H 3.3611323e-7"
     style="fill:none;fill-rule:evenodd;stroke:#000000;stroke-width:0.0673539;stroke-linecap:butt;stroke-linejoin:miter;stroke-miterlimit:4;stroke-dasharray:none;stroke-opacity:1" /><path
     sodipodi:nodetypes="cc"
     inkscape:connector-curvature="0"
     id="path4271-2"
     d="M 6.3381747,1.6810334 H 3.3611323e-7"
     style="display:inline;fill:none;fill-rule:evenodd;stroke:#000000;stroke-width:0.0675441;stroke-linecap:butt;stroke-linejoin:miter;stroke-miterlimit:4;stroke-dasharray:none;stroke-opacity:1" /><path
     sodipodi:nodetypes="cc"
     inkscape:connector-curvature="0"
     id="path4273-4"
     d="M 6.3381747,0.70997697 H 3.3611323e-7"
     style="display:inline;fill:none;fill-rule:evenodd;stroke:#000000;stroke-width:0.0674162;stroke-linecap:butt;stroke-linejoin:miter;stroke-miterlimit:4;stroke-dasharray:none;stroke-opacity:1" /><path
     sodipodi:nodetypes="cc"
     inkscape:connector-curvature="0"
     id="path4265-1"
     d="M 1.099721,6.3500007 V 9.1794425e-7"
     style="display:inline;fill:none;fill-rule:evenodd;stroke:#000000;stroke-width:0.0683676;stroke-linecap:butt;stroke-linejoin:miter;stroke-miterlimit:4;stroke-dasharray:none;stroke-opacity:1" /><g
     id="layer2"
     inkscape:label="Layer"
     style="display:inline"
     transform="matrix(0.23499585,0,0,0.21208869,0.50847335,-0.72498905)"><path
       style="fill:none;fill-rule:evenodd;stroke:#000000;stroke-width:1.3;stroke-linecap:butt;stroke-linejoin:miter;stroke-miterlimit:4;stroke-dasharray:none;stroke-opacity:1"
       d="m 4.6797453,27.521536 c 0,0 -0.805117,-10.869084 10.3658847,-14.441792"
       id="path4264"
       inkscape:connector-curvature="0"
       sodipodi:nodetypes="cc" /></g><style
     type="text/css"
     id="style4" /><rect
     style="fill:#000000;stroke-width:0.382295"
     id="rect408-9"
     width="4.1865264e-14"
     height="0.30264539"
     x="0.20788549"
     y="0.037137102" /></svg>
