<?xml version="1.0" encoding="UTF-8" standalone="no"?>
<!-- Svg Vector Icons : http://www.onlinewebfonts.com/icon -->

<svg
   xmlns:dc="http://purl.org/dc/elements/1.1/"
   xmlns:cc="http://creativecommons.org/ns#"
   xmlns:rdf="http://www.w3.org/1999/02/22-rdf-syntax-ns#"
   xmlns:svg="http://www.w3.org/2000/svg"
   xmlns="http://www.w3.org/2000/svg"
   xmlns:sodipodi="http://sodipodi.sourceforge.net/DTD/sodipodi-0.dtd"
   xmlns:inkscape="http://www.inkscape.org/namespaces/inkscape"
   version="1.1"
   x="0px"
   y="0px"
   viewBox="0 0 25.6 25.6"
   enable-background="new 0 0 1000 1000"
   xml:space="preserve"
   id="svg18"
   sodipodi:docname="show_cont_table.svg"
   width="25.6"
   height="25.6"
   inkscape:version="0.92.1 r15371"
   inkscape:export-filename="D:\PycharmProjects\qgis-flo-2d-plugin\flo2d\img\show_control_table.png"
   inkscape:export-xdpi="95.399475"
   inkscape:export-ydpi="95.399475"><defs
     id="defs22" /><sodipodi:namedview
     pagecolor="#ffffff"
     bordercolor="#666666"
     borderopacity="1"
     objecttolerance="10"
     gridtolerance="10"
     guidetolerance="10"
     inkscape:pageopacity="0"
     inkscape:pageshadow="2"
     inkscape:window-width="1920"
     inkscape:window-height="1018"
     id="namedview20"
     showgrid="false"
     inkscape:zoom="27.232"
     inkscape:cx="8.3621289"
     inkscape:cy="12.018662"
     inkscape:window-x="-8"
     inkscape:window-y="-8"
     inkscape:window-maximized="1"
     inkscape:current-layer="svg18" /><metadata
     id="metadata10"> Svg Vector Icons : http://www.onlinewebfonts.com/icon <rdf:RDF><cc:Work
     rdf:about=""><dc:format>image/svg+xml</dc:format><dc:type
       rdf:resource="http://purl.org/dc/dcmitype/StillImage" /><dc:title /></cc:Work></rdf:RDF></metadata><g
     id="g16"
     transform="matrix(0.02434589,0,0,0.03226714,0.68632935,-4.4443238)"
     style="fill:#5682e4;fill-opacity:1"><g
       transform="matrix(1,0,0,-1,0,1952)"
       id="g14"
       style="fill:#5682e4;fill-opacity:1"><path
         d="m 990,1141.7 v 620.7 c 0,18 -14.6,32.7 -32.7,32.7 H 42.7 c -18,0 -32.7,-14.6 -32.7,-32.7 v -620.7 c 0,-18 14.6,-32.7 32.7,-32.7 h 914.7 c 34.3,0 32.6,32.7 32.6,32.7 z m -718.7,0 H 42.7 v 130.7 h 228.7 v -130.7 z m 0,163.3 H 42.7 v 130.7 H 271.4 V 1305 Z m 0,163.3 H 42.7 V 1599 h 228.7 v -130.7 z m 0,163.4 H 42.7 v 130.7 H 271.4 V 1631.7 Z M 499,1141.7 H 304 v 130.7 h 196 z m 0,163.3 H 304 v 130.7 H 500 Z M 304,1468.3 V 1599 h 195 l 1,-130.7 z m 196,163.4 H 304 v 130.7 h 196 z m 228.7,-490 h -195 l -2,130.7 h 197 z m 0,163.3 h -195 l -2,130.7 h 197 z m 0,163.3 h -196 l -1,130.7 h 197 z m 0,163.4 h -196 l -1,130.7 h 197 z m 228.6,-490 h -196 l -1,130.7 h 197 z m 0,163.3 h -196 l -1,130.7 h 197 z m 0,163.3 h -197 V 1599 h 197 z m 0,163.4 h -196 l -1,130.7 h 197 z M 238.7,1403 H 75.3 v -65.3 h 163.3 v 65.3 z m 0,-163.3 H 75.3 v -65.3 h 163.3 v 65.3 z m 0,326.6 H 75.3 V 1501 h 163.3 v 65.3 z m 228.6,163.4 H 336.7 v -65.3 h 130.7 v 65.3 z m 228.7,0 H 565.3 v -65.3 H 696 Z m -457.3,0 H 75.3 v -65.3 h 163.3 v 65.3 z m 686,0 H 794 v -65.3 h 130.7 z"
         id="path12"
         inkscape:connector-curvature="0"
         style="fill:#5682e4;fill-opacity:1" /></g></g></svg>