<?xml version="1.0" encoding="UTF-8" standalone="no"?>
<svg
   xmlns:dc="http://purl.org/dc/elements/1.1/"
   xmlns:cc="http://creativecommons.org/ns#"
   xmlns:rdf="http://www.w3.org/1999/02/22-rdf-syntax-ns#"
   xmlns:svg="http://www.w3.org/2000/svg"
   xmlns="http://www.w3.org/2000/svg"
   xmlns:sodipodi="http://sodipodi.sourceforge.net/DTD/sodipodi-0.dtd"
   xmlns:inkscape="http://www.inkscape.org/namespaces/inkscape"
   height="117px"
   version="1.1"
   viewBox="0 0 117 117"
   width="117px"
   id="svg1451"
   sodipodi:docname="zoom_in.svg"
   inkscape:version="0.92.2 (5c3e80d, 2017-08-06)">
  <metadata
     id="metadata1455">
    <rdf:RDF>
      <cc:Work
         rdf:about="">
        <dc:format>image/svg+xml</dc:format>
        <dc:type
           rdf:resource="http://purl.org/dc/dcmitype/StillImage" />
      </cc:Work>
    </rdf:RDF>
  </metadata>
  <sodipodi:namedview
     pagecolor="#ffffff"
     bordercolor="#666666"
     borderopacity="1"
     objecttolerance="10"
     gridtolerance="10"
     guidetolerance="10"
     inkscape:pageopacity="0"
     inkscape:pageshadow="2"
     inkscape:window-width="694"
     inkscape:window-height="480"
     id="namedview1453"
     showgrid="false"
     inkscape:zoom="2.017094"
     inkscape:cx="58.5"
     inkscape:cy="58.5"
     inkscape:window-x="2460"
     inkscape:window-y="1129"
     inkscape:window-maximized="0"
     inkscape:current-layer="svg1451" />
  <title
     id="title1440" />
  <desc
     id="desc1442" />
  <defs
     id="defs1444" />
  <path
     d="m 45.6,90.7 c 11,0 21,-3.9 28.8,-10.5 l 35,35 c 0.8,0.8 1.8,1.2 2.9,1.2 1,0 2.1,-0.4 2.9,-1.2 1.6,-1.6 1.6,-4.2 0,-5.8 l -35,-35 C 86.7,66.6 90.7,56.5 90.7,45.6 90.7,20.7 70.5,0.5 45.6,0.5 20.8,0.5 0.5,20.8 0.5,45.6 c 0,24.9 20.3,45.1 45.1,45.1 z m 0,-82 C 66,8.7 82.5,25.3 82.5,45.6 82.5,66 66,82.5 45.6,82.5 25.2,82.5 8.7,65.9 8.7,45.6 8.7,25.3 25.3,8.7 45.6,8.7 Z"
     id="Shape"
     inkscape:connector-curvature="0"
     style="fill:#c41e1e;fill-rule:nonzero;stroke:none;stroke-width:1;fill-opacity:1" />
  <path
     d="m 41.5,72.3 c 0,2.3 1.8,4.1 4.1,4.1 2.3,0 4.1,-1.8 4.1,-4.1 V 49.7 h 22.6 c 2.3,0 4.1,-1.8 4.1,-4.1 0,-2.3 -1.8,-4.1 -4.1,-4.1 H 49.7 V 18.9 c 0,-2.3 -1.8,-4.1 -4.1,-4.1 -2.3,0 -4.1,1.8 -4.1,4.1 V 41.5 H 18.9 c -2.3,0 -4.1,1.8 -4.1,4.1 0,2.3 1.8,4.1 4.1,4.1 h 22.6 z"
     id="path1447"
     inkscape:connector-curvature="0"
     style="fill:#080808;fill-rule:nonzero;stroke:none;stroke-width:1;fill-opacity:1" />
</svg>
