<?xml version="1.0" encoding="UTF-8" standalone="no"?>
<svg
   xmlns:dc="http://purl.org/dc/elements/1.1/"
   xmlns:cc="http://creativecommons.org/ns#"
   xmlns:rdf="http://www.w3.org/1999/02/22-rdf-syntax-ns#"
   xmlns:svg="http://www.w3.org/2000/svg"
   xmlns="http://www.w3.org/2000/svg"
   xmlns:sodipodi="http://sodipodi.sourceforge.net/DTD/sodipodi-0.dtd"
   xmlns:inkscape="http://www.inkscape.org/namespaces/inkscape"
   height="117px"
   version="1.1"
   viewBox="0 0 117 117"
   width="117px"
   id="svg869"
   sodipodi:docname="zoom_out.svg"
   inkscape:version="0.92.2 (5c3e80d, 2017-08-06)">
  <metadata
     id="metadata873">
    <rdf:RDF>
      <cc:Work
         rdf:about="">
        <dc:format>image/svg+xml</dc:format>
        <dc:type
           rdf:resource="http://purl.org/dc/dcmitype/StillImage" />
      </cc:Work>
    </rdf:RDF>
  </metadata>
  <sodipodi:namedview
     pagecolor="#ffffff"
     bordercolor="#666666"
     borderopacity="1"
     objecttolerance="10"
     gridtolerance="10"
     guidetolerance="10"
     inkscape:pageopacity="0"
     inkscape:pageshadow="2"
     inkscape:window-width="694"
     inkscape:window-height="480"
     id="namedview871"
     showgrid="false"
     inkscape:zoom="2.017094"
     inkscape:cx="58.5"
     inkscape:cy="58.747881"
     inkscape:window-x="2451"
     inkscape:window-y="1269"
     inkscape:window-maximized="0"
     inkscape:current-layer="svg869" />
  <title
     id="title858" />
  <desc
     id="desc860" />
  <defs
     id="defs862" />
  <path
     d="M 45.6,0.5 C 20.7,0.5 0.5,20.7 0.5,45.6 c 0,24.9 20.2,45.1 45.1,45.1 11,0 21,-3.9 28.9,-10.5 l 35.1,35.1 c 0.8,0.8 1.8,1.2 2.9,1.2 1,0 2.1,-0.4 2.9,-1.2 1.6,-1.6 1.6,-4.2 0,-5.8 L 80.3,74.5 C 86.8,66.7 90.8,56.6 90.8,45.6 90.7,20.7 70.5,0.5 45.6,0.5 Z m 0,82.1 c -20.4,0 -37,-16.6 -37,-37 0,-20.4 16.6,-37 37,-37 20.4,0 37,16.6 37,37 0,20.4 -16.6,37 -37,37 z"
     id="Shape"
     inkscape:connector-curvature="0"
     style="fill:#c41e1e;fill-rule:nonzero;stroke:none;stroke-width:1;fill-opacity:1" />
  <path
     d="M 72.3,41.5 H 18.9 c -2.3,0 -4.1,1.8 -4.1,4.1 0,2.3 1.8,4.1 4.1,4.1 h 53.4 c 2.3,0 4.1,-1.8 4.1,-4.1 0,-2.3 -1.8,-4.1 -4.1,-4.1 z"
     id="path865"
     inkscape:connector-curvature="0"
     style="fill:#000000;fill-rule:nonzero;stroke:none;stroke-width:1;fill-opacity:1" />
</svg>
